SplineFontDB: 3.0
FontName: Jost-MediumItalic
FullName: Jost* 500 Medium Italic
FamilyName: Jost* Medium
Weight: Medium
Copyright: This typeface is licensed under the SIL open font license.
UComments: "2018-6-8: Created with FontForge (http://fontforge.org)"
Version: 003.400
ItalicAngle: -10
UnderlinePosition: -100
UnderlineWidth: 50
Ascent: 800
Descent: 200
InvalidEm: 0
LayerCount: 2
Layer: 0 0 "Back" 1
Layer: 1 0 "Fore" 0
XUID: [1021 69 1495626776 760146]
FSType: 0
OS2Version: 0
OS2_WeightWidthSlopeOnly: 0
OS2_UseTypoMetrics: 0
CreationTime: 1528480336
ModificationTime: 1577673574
PfmFamily: 17
TTFWeight: 500
TTFWidth: 5
LineGap: 100
VLineGap: 0
OS2TypoAscent: 825
OS2TypoAOffset: 0
OS2TypoDescent: -225
OS2TypoDOffset: 0
OS2TypoLinegap: 100
OS2WinAscent: 900
OS2WinAOffset: 0
OS2WinDescent: 300
OS2WinDOffset: 0
HheadAscent: 1030
HheadAOffset: 0
HheadDescent: -350
HheadDOffset: 0
OS2CapHeight: 700
OS2XHeight: 460
OS2Vendor: 'PfEd'
Lookup: 1 0 0 "alt a" { "alt a"  } ['ss01' ('DFLT' <'dflt' > 'latn' <'dflt' > ) ]
Lookup: 1 0 0 "Tabular Numbers lookup" { "Tabular Numbers lookup"  } ['tnum' ('DFLT' <'dflt' > 'grek' <'dflt' > 'latn' <'dflt' > ) ]
Lookup: 258 0 0 "Lets get our kern on" { "kernin like nobodys business" [150,0,4] } ['kern' ('DFLT' <'dflt' > 'latn' <'dflt' > ) ]
MarkAttachClasses: 1
DEI: 91125
KernClass2: 16 14 "kernin like nobodys business"
 43 slash seven V W Wcircumflex uni040E uni0423
 175 quotedbl quotesingle asterisk grave dieresis ordfeminine macron degree acute ordmasculine circumflex breve dotaccent ring tilde quoteleft quoteright quotedblleft quotedblright
 25 nine question F P uni0420
 131 A L backslash Agrave Aacute Acircumflex Atilde Adieresis Aring Amacron Abreve Aogonek Lacute uni013B Lslash uni0410 uni0414 uni041C
 58 three eight B C germandbls uni0411 uni0412 uni0417 uni0421
 29 K X Z uni0416 uni041A uni0425

StartChar: H
Encoding: 72 72 0
Width: 720
VWidth: 0
Flags: HMW
LayerCount: 2
Fore
SplineSet
148 322 m 1
 166 430 l 1
 654 430 l 1
 636 322 l 1
 148 322 l 1
622 700 m 1
 741 700 l 1
 620 0 l 1
 504 0 l 1
 622 700 l 1
166 700 m 1
 284 700 l 1
 164 0 l 1
 48 0 l 1
 166 700 l 1
EndSplineSet
EndChar

StartChar: O
Encoding: 79 79 1
Width: 778
VWidth: 0
Flags: HMW
LayerCount: 2
Fore
SplineSet
192 350 m 0
 172 222 237 103 376 102 c 0
 517 101 629 215 652 350 c 0
 672 478 608 597 468 598 c 0
 327 599 215 485 192 350 c 0
68 350 m 0
 99 550 272 712 480 712 c 0
 686 712 804 543 776 350 c 0
 745 149 574 -15 364 -15 c 0
 158 -15 40 157 68 350 c 0
EndSplineSet
EndChar

StartChar: I
Encoding: 73 73 2
Width: 266
VWidth: 0
Flags: HMW
LayerCount: 2
Fore
SplineSet
166 700 m 1
 286 700 l 1
 164 0 l 1
 48 0 l 1
 166 700 l 1
EndSplineSet
EndChar

StartChar: C
Encoding: 67 67 3
Width: 670
VWidth: 0
Flags: HMW
LayerCount: 2
Fore
SplineSet
194 350 m 0
 174 220 248 106 380 104 c 0
 475 103 552 148 612 202 c 1
 591 62 l 1
 527 16 457 -12 364 -12 c 0
 160 -11 40 156 68 350 c 0
 99 553 272 711 480 712 c 0
 568 712 632 688 688 638 c 1
 666 497 l 1
 624 557 560 596 472 596 c 0
 338 596 217 488 194 350 c 0
EndSplineSet
EndChar

StartChar: E
Encoding: 69 69 4
Width: 554
VWidth: 0
Flags: HMW
LayerCount: 2
Fore
SplineSet
119 0 m 1
 136 104 l 1
 482 104 l 1
 464 0 l 1
 119 0 l 1
221 596 m 1
 238 700 l 1
 583 700 l 1
 565 596 l 1
 221 596 l 1
174 324 m 1
 192 426 l 1
 517 426 l 1
 499 324 l 1
 174 324 l 1
166 700 m 1
 282 700 l 1
 162 0 l 1
 48 0 l 1
 166 700 l 1
EndSplineSet
EndChar

StartChar: F
Encoding: 70 70 6
Width: 505
VWidth: 0
Flags: HMW
LayerCount: 2
Fore
SplineSet
220 594 m 1
 238 700 l 1
 544 700 l 1
 526 594 l 1
 220 594 l 1
173 316 m 1
 190 419 l 1
 486 419 l 1
 469 316 l 1
 173 316 l 1
166 700 m 1
 282 700 l 1
 162 0 l 1
 48 0 l 1
 166 700 l 1
EndSplineSet
EndChar

StartChar: G
Encoding: 71 71 7
Width: 766
VWidth: 0
Flags: HMW
LayerCount: 2
Fore
SplineSet
416 266 m 1
 434 366 l 1
 760 366 l 1
 730 167 592 -15 368 -15 c 0
 160 -15 39 154 68 350 c 0
 100 555 273 712 485 712 c 0
 609 712 702 656 755 556 c 1
 652 492 l 1
 620 560 560 602 474 602 c 0
 334 602 215 492 191 350 c 0
 171 216 240 96 380 96 c 0
 502 96 577 173 620 266 c 1
 416 266 l 1
EndSplineSet
EndChar

StartChar: T
Encoding: 84 84 8
Width: 488
VWidth: 0
Flags: HMW
LayerCount: 2
Fore
SplineSet
80 591 m 1
 99 700 l 1
 575 700 l 1
 556 591 l 1
 377 591 l 1
 276 0 l 1
 158 0 l 1
 260 591 l 1
 80 591 l 1
EndSplineSet
EndChar

StartChar: L
Encoding: 76 76 9
Width: 466
VWidth: 0
Flags: HMW
LayerCount: 2
Fore
SplineSet
167 700 m 1
 284 700 l 1
 182 106 l 1
 452 106 l 1
 434 0 l 1
 47 0 l 1
 167 700 l 1
EndSplineSet
EndChar

StartChar: D
Encoding: 68 68 10
Width: 680
VWidth: 0
Flags: HMW
LayerCount: 2
Fore
SplineSet
166 700 m 1
 287 700 l 1
 166 0 l 1
 48 0 l 1
 166 700 l 1
272 0 m 2
 118 0 l 1
 138 111 l 1
 280 111 l 2
 421 111 534 204 558 350 c 0
 580 490 507 589 369 589 c 2
 218 589 l 1
 238 700 l 1
 384 700 l 2
 590 700 708 546 678 350 c 0
 646 146 483 0 272 0 c 2
EndSplineSet
EndChar

StartChar: Q
Encoding: 81 81 11
Width: 794
VWidth: 0
Flags: HMW
LayerCount: 2
Fore
SplineSet
192 350 m 0
 172 218 241 97 381 96 c 0
 521 95 635 207 658 342 c 0
 678 471 614 597 470 598 c 0
 329 599 215 486 192 350 c 0
68 350 m 0
 99 550 274 712 482 712 c 0
 688 712 804 542 776 350 c 0
 745 150 575 -15 365 -15 c 0
 159 -15 40 157 68 350 c 0
385 300 m 1
 513 300 l 1
 767 -5 l 1
 636 -5 l 1
 385 300 l 1
EndSplineSet
EndChar

StartChar: A
Encoding: 65 65 12
Width: 669
VWidth: 0
Flags: HMW
LayerCount: 2
Fore
SplineSet
160 180 m 1
 199 280 l 1
 516 280 l 1
 521 180 l 1
 160 180 l 1
395 502 m 1
 245 245 l 1
 239 219 l 1
 107 0 l 1
 -28 0 l 1
 434 740 l 1
 639 0 l 1
 511 0 l 1
 456 213 l 1
 458 242 l 1
 395 502 l 1
EndSplineSet
EndChar

StartChar: R
Encoding: 82 82 13
Width: 576
VWidth: 0
Flags: HMW
LayerCount: 2
Fore
SplineSet
246 334 m 1
 368 334 l 1
 542 0 l 1
 406 0 l 1
 246 334 l 1
166 700 m 1
 284 700 l 1
 164 0 l 1
 48 0 l 1
 166 700 l 1
218 597 m 1
 236 700 l 1
 374 700 l 2
 513 700 604 612 586 482 c 0
 567 350 451 265 307 265 c 2
 160 265 l 1
 178 363 l 1
 312 363 l 2
 390 363 453 406 466 480 c 0
 478 551 432 597 358 597 c 2
 218 597 l 1
EndSplineSet
EndChar

StartChar: V
Encoding: 86 86 14
Width: 669
VWidth: 0
Flags: HMW
LayerCount: 2
Fore
SplineSet
348 209 m 1
 624 700 l 1
 760 700 l 1
 312 -40 l 1
 94 700 l 1
 224 700 l 1
 348 209 l 1
EndSplineSet
EndChar

StartChar: M
Encoding: 77 77 15
Width: 817
VWidth: 0
Flags: HMW
LayerCount: 2
Fore
SplineSet
250 426 m 1
 130 0 l 1
 8 0 l 1
 228 736 l 1
 424 262 l 1
 788 740 l 1
 754 0 l 1
 634 0 l 1
 660 421 l 1
 394 64 l 1
 250 426 l 1
EndSplineSet
EndChar

StartChar: W
Encoding: 87 87 16
Width: 989
VWidth: 0
Flags: HMW
LayerCount: 2
Fore
SplineSet
706 228 m 1
 938 700 l 1
 1076 700 l 1
 682 -39 l 1
 550 455 l 1
 262 -40 l 1
 98 700 l 1
 232 700 l 1
 316 228 l 1
 591 737 l 1
 706 228 l 1
EndSplineSet
EndChar

StartChar: N
Encoding: 78 78 17
Width: 758
VWidth: 0
Flags: HMW
LayerCount: 2
Fore
SplineSet
664 700 m 1
 778 700 l 1
 652 -34 l 1
 243 471 l 1
 162 0 l 1
 47 0 l 1
 172 734 l 1
 582 229 l 1
 664 700 l 1
EndSplineSet
EndChar

StartChar: a
Encoding: 97 97 18
Width: 570
VWidth: 0
Flags: HMW
LayerCount: 2
Fore
SplineSet
456 460 m 1
 562 460 l 1
 482 0 l 1
 379 0 l 1
 456 460 l 1
44 230 m 0
 63 366 173 471 300 470 c 0
 424 469 469 354 453 230 c 0
 435 99 348 -10 226 -10 c 0
 99 -10 26 100 44 230 c 0
154 230 m 0
 142 152 182 84 260 84 c 0
 331 84 401 148 414 230 c 0
 424 307 386 374 316 376 c 0
 238 378 167 312 154 230 c 0
EndSplineSet
Substitution2: "alt a" a.alt
EndChar

StartChar: X
Encoding: 88 88 19
Width: 589
VWidth: 0
Flags: HMW
LayerCount: 2
Fore
SplineSet
517 700 m 1
 662 700 l 1
 400 362 l 1
 564 0 l 1
 426 0 l 1
 323 267 l 1
 132 0 l 1
 -12 0 l 1
 272 366 l 1
 124 700 l 1
 261 700 l 1
 350 465 l 1
 517 700 l 1
EndSplineSet
EndChar

StartChar: K
Encoding: 75 75 20
Width: 600
VWidth: 0
Flags: HMW
LayerCount: 2
Fore
SplineSet
166 700 m 1
 287 700 l 1
 166 0 l 1
 48 0 l 1
 166 700 l 1
534 700 m 1
 679 700 l 1
 332 370 l 1
 570 0 l 1
 432 0 l 1
 194 372 l 1
 534 700 l 1
EndSplineSet
EndChar

StartChar: Y
Encoding: 89 89 21
Width: 582
VWidth: 0
Flags: HMW
LayerCount: 2
Fore
SplineSet
540 700 m 1
 676 700 l 1
 374 292 l 1
 324 0 l 1
 204 0 l 1
 257 298 l 1
 96 700 l 1
 226 700 l 1
 331 402 l 1
 540 700 l 1
EndSplineSet
EndChar

StartChar: B
Encoding: 66 66 22
Width: 582
VWidth: 0
Flags: HMW
LayerCount: 2
Fore
SplineSet
197 362 m 1
 206 418 l 1
 314 419 l 2
 375 419 430 453 440 511 c 0
 450 567 410 602 352 602 c 2
 268 603 l 1
 180 97 l 1
 271 98 l 2
 348 98 415 138 428 214 c 0
 440 286 389 327 316 327 c 2
 191 328 l 1
 202 392 l 1
 328 392 l 2
 452 391 564 332 545 202 c 0
 525 66 407 0 269 0 c 2
 47 0 l 1
 167 700 l 1
 369 700 l 2
 487 700 579 642 561 524 c 0
 543 416 438 363 318 362 c 2
 197 362 l 1
EndSplineSet
EndChar

StartChar: Z
Encoding: 90 90 23
Width: 557
VWidth: 0
Flags: HMW
LayerCount: 2
Fore
SplineSet
115 591 m 1
 134 700 l 1
 636 700 l 1
 192 106 l 1
 508 106 l 1
 489 0 l 1
 -18 0 l 1
 424 590 l 1
 115 591 l 1
EndSplineSet
EndChar

StartChar: o
Encoding: 111 111 24
Width: 546
VWidth: 0
Flags: HMW
LayerCount: 2
Fore
SplineSet
50 230 m 0
 68 366 187 470 326 470 c 0
 464 470 552 362 534 230 c 0
 516 94 397 -10 258 -10 c 0
 121 -10 32 98 50 230 c 0
159 230 m 0
 148 155 188 86 266 86 c 0
 345 86 412 151 424 230 c 0
 435 305 395 374 317 374 c 0
 238 374 171 309 159 230 c 0
EndSplineSet
EndChar

StartChar: J
Encoding: 74 74 25
Width: 267
VWidth: 0
Flags: HMW
LayerCount: 2
Fore
SplineSet
-112 -88 m 1
 -96 -108 -72 -123 -41 -122 c 0
 -3 -120 34 -88 41 -36 c 2
 167 700 l 1
 287 700 l 1
 158 -58 l 2
 140 -166 58 -229 -48 -228 c 0
 -105 -228 -154 -202 -186 -174 c 1
 -112 -88 l 1
EndSplineSet
EndChar

StartChar: t
Encoding: 116 116 26
Width: 262
VWidth: 0
Flags: HMW
LayerCount: 2
Fore
SplineSet
57 460 m 1
 312 460 l 1
 295 365 l 1
 40 365 l 1
 57 460 l 1
157 620 m 1
 264 620 l 1
 156 0 l 1
 52 0 l 1
 157 620 l 1
EndSplineSet
EndChar

StartChar: d
Encoding: 100 100 27
Width: 570
VWidth: 0
Flags: HMW
LayerCount: 2
Fore
SplineSet
508 780 m 1
 616 780 l 1
 482 0 l 1
 375 0 l 1
 508 780 l 1
44 230 m 0
 63 366 173 471 300 470 c 0
 424 469 469 354 453 230 c 0
 435 99 348 -10 226 -10 c 0
 99 -10 26 100 44 230 c 0
154 230 m 0
 142 152 182 84 260 84 c 0
 331 84 401 148 414 230 c 0
 424 307 386 374 316 376 c 0
 238 378 167 312 154 230 c 0
EndSplineSet
EndChar

StartChar: l
Encoding: 108 108 28
Width: 238
VWidth: 0
Flags: HMW
LayerCount: 2
Fore
SplineSet
172 780 m 1
 280 780 l 1
 145 0 l 1
 40 0 l 1
 172 780 l 1
EndSplineSet
EndChar

StartChar: i
Encoding: 105 105 29
Width: 258
VWidth: 0
Flags: HMW
LayerCount: 2
Fore
SplineSet
144 643 m 0
 144 680 174 708 212 708 c 0
 250 708 280 680 280 643 c 0
 280 606 250 578 212 578 c 0
 174 578 144 606 144 643 c 0
127 460 m 1
 234 460 l 1
 156 0 l 1
 50 0 l 1
 127 460 l 1
EndSplineSet
EndChar

StartChar: r
Encoding: 114 114 30
Width: 360
VWidth: 0
Flags: HMW
LayerCount: 2
Fore
SplineSet
224 460 m 1
 144 0 l 1
 38 0 l 1
 118 460 l 1
 224 460 l 1
340 344 m 1
 323 358 308 369 285 369 c 0
 228 370 198 316 188 260 c 1
 158 281 l 1
 174 375 244 469 324 470 c 0
 356 470 382 456 404 434 c 1
 340 344 l 1
EndSplineSet
EndChar

StartChar: c
Encoding: 99 99 31
Width: 467
VWidth: 0
Flags: HMW
LayerCount: 2
Fore
SplineSet
154 230 m 0
 142 152 186 86 266 84 c 0
 332 83 392 118 427 160 c 1
 410 42 l 1
 370 10 316 -10 254 -10 c 0
 116 -10 26 98 44 230 c 0
 62 366 180 470 321 470 c 0
 380 470 431 450 467 418 c 1
 450 299 l 1
 428 346 378 376 318 376 c 0
 235 376 167 311 154 230 c 0
EndSplineSet
EndChar

StartChar: b
Encoding: 98 98 32
Width: 570
VWidth: 0
Flags: HMW
LayerCount: 2
Fore
SplineSet
276 780 m 1
 142 0 l 1
 34 0 l 1
 168 780 l 1
 276 780 l 1
552 230 m 0
 533 94 423 -11 296 -10 c 0
 172 -9 126 106 142 230 c 0
 160 361 248 470 370 470 c 0
 497 470 570 360 552 230 c 0
442 230 m 0
 454 308 414 376 336 376 c 0
 265 376 195 312 182 230 c 0
 172 153 210 86 280 84 c 0
 358 82 429 148 442 230 c 0
EndSplineSet
EndChar

StartChar: p
Encoding: 112 112 33
Width: 570
VWidth: 0
Flags: HMW
LayerCount: 2
Fore
SplineSet
106 -220 m 1
 -4 -220 l 1
 114 460 l 1
 220 460 l 1
 106 -220 l 1
552 230 m 0
 533 92 424 -13 296 -12 c 0
 170 -11 130 106 146 230 c 0
 164 361 247 472 371 472 c 0
 499 472 570 362 552 230 c 0
442 230 m 0
 454 308 414 374 336 374 c 0
 266 374 194 312 182 230 c 0
 172 153 211 88 280 86 c 0
 358 84 429 148 442 230 c 0
EndSplineSet
EndChar

StartChar: q
Encoding: 113 113 34
Width: 570
VWidth: 0
Flags: HMW
LayerCount: 2
Fore
SplineSet
336 -220 m 1
 454 460 l 1
 562 460 l 1
 444 -220 l 1
 336 -220 l 1
44 230 m 0
 63 368 172 473 300 472 c 0
 426 471 466 354 450 230 c 0
 432 99 349 -12 225 -12 c 0
 97 -12 26 98 44 230 c 0
154 230 m 0
 142 152 182 86 260 86 c 0
 330 86 402 148 414 230 c 0
 424 307 385 372 316 374 c 0
 238 376 167 312 154 230 c 0
EndSplineSet
EndChar

StartChar: h
Encoding: 104 104 35
Width: 525
VWidth: 0
Flags: HMW
LayerCount: 2
Fore
SplineSet
280 780 m 1
 146 0 l 1
 38 0 l 1
 172 780 l 1
 280 780 l 1
376 280 m 2
 382 334 371 380 313 382 c 0
 251 384 208 335 194 281 c 1
 166 281 l 1
 185 381 250 472 356 472 c 0
 460 472 497 395 484 295 c 1
 433 0 l 1
 326 0 l 1
 376 280 l 2
EndSplineSet
EndChar

StartChar: n
Encoding: 110 110 36
Width: 528
VWidth: 0
Flags: HMW
LayerCount: 2
Fore
SplineSet
376 280 m 2
 383 334 372 382 312 382 c 0
 252 382 204 340 195 283 c 2
 146 0 l 1
 38 0 l 1
 118 460 l 1
 225 460 l 1
 214 392 l 1
 247 440 294 470 356 470 c 0
 461 470 500 390 486 292 c 2
 436 0 l 1
 326 0 l 1
 376 280 l 2
EndSplineSet
EndChar

StartChar: m
Encoding: 109 109 37
Width: 772
VWidth: 0
Flags: HMW
LayerCount: 2
Fore
SplineSet
729 292 m 2
 680 0 l 1
 572 0 l 1
 622 280 l 2
 628 334 622 382 568 382 c 0
 510 382 468 340 460 282 c 2
 411 0 l 1
 304 0 l 1
 353 280 l 2
 359 334 354 382 300 382 c 0
 244 382 201 342 193 284 c 2
 144 0 l 1
 38 0 l 1
 118 460 l 1
 222 460 l 1
 212 396 l 1
 243 442 287 470 345 470 c 0
 413 470 448 435 460 384 c 1
 496 436 549 470 614 470 c 0
 716 470 741 388 729 292 c 2
EndSplineSet
EndChar

StartChar: k
Encoding: 107 107 38
Width: 479
VWidth: 0
Flags: HMW
LayerCount: 2
Fore
SplineSet
168 780 m 1
 274 780 l 1
 140 0 l 1
 36 0 l 1
 168 780 l 1
378 460 m 1
 514 460 l 1
 282 264 l 1
 449 0 l 1
 325 0 l 1
 156 273 l 1
 378 460 l 1
EndSplineSet
EndChar

StartChar: u
Encoding: 117 117 39
Width: 528
VWidth: 0
Flags: HMW
LayerCount: 2
Fore
SplineSet
178 180 m 2
 171 126 182 78 240 78 c 0
 300 78 348 118 358 176 c 2
 408 460 l 1
 515 460 l 1
 436 0 l 1
 328 0 l 1
 339 68 l 1
 305 20 259 -10 197 -10 c 0
 93 -10 54 71 68 168 c 1
 118 460 l 1
 226 460 l 1
 178 180 l 2
EndSplineSet
EndChar

StartChar: e
Encoding: 101 101 40
Width: 522
VWidth: 0
Flags: HMW
LayerCount: 2
Fore
SplineSet
253 -10 m 0
 129 -10 46 68 46 200 c 0
 46 346 160 470 316 470 c 0
 441 470 514 398 514 268 c 0
 514 247 508 219 503 205 c 1
 106 205 l 1
 106 280 l 1
 422 280 l 1
 390 234 l 1
 396 249 403 266 403 282 c 0
 403 348 371 388 307 388 c 0
 217 388 160 312 154 212 c 0
 150 134 186 79 262 79 c 0
 319 79 365 108 396 152 c 1
 486 115 l 1
 438 39 359 -10 253 -10 c 0
EndSplineSet
EndChar

StartChar: g
Encoding: 103 103 41
Width: 568
VWidth: 0
Flags: HMW
LayerCount: 2
Fore
SplineSet
8 -31 m 1
 112 -32 l 1
 110 -94 145 -140 218 -140 c 0
 295 -141 363 -79 376 10 c 2
 454 460 l 1
 558 460 l 1
 482 10 l 2
 460 -138 354 -234 216 -234 c 0
 78 -234 0 -151 8 -31 c 1
44 232 m 0
 63 368 174 471 300 470 c 0
 424 469 470 356 454 232 c 0
 436 101 348 -4 226 -4 c 0
 100 -4 26 102 44 232 c 0
154 232 m 0
 142 154 182 90 260 90 c 0
 330 90 403 150 415 232 c 0
 425 309 385 374 316 376 c 0
 236 378 167 314 154 232 c 0
EndSplineSet
EndChar

StartChar: f
Encoding: 102 102 42
Width: 299
VWidth: 0
Flags: HMW
LayerCount: 2
Fore
SplineSet
81 460 m 1
 339 460 l 1
 322 365 l 1
 64 365 l 1
 81 460 l 1
364 664 m 1
 352 680 340 690 322 690 c 0
 287 690 266 652 260 608 c 2
 156 0 l 1
 50 0 l 1
 158 630 l 2
 173 724 232 794 328 792 c 0
 374 792 404 770 426 746 c 1
 364 664 l 1
EndSplineSet
EndChar

StartChar: s
Encoding: 115 115 43
Width: 411
VWidth: 0
Flags: HMW
LayerCount: 2
Fore
SplineSet
92 150 m 1
 130 106 172 73 224 74 c 0
 262 74 288 98 288 128 c 0
 289 168 244 189 200 206 c 0
 144 228 85 261 87 339 c 0
 90 427 167 470 249 470 c 0
 323 470 381 435 418 389 c 1
 358 326 l 1
 330 360 290 388 248 388 c 0
 212 388 188 370 188 344 c 0
 186 308 226 293 272 274 c 0
 340 245 396 214 394 134 c 0
 391 48 323 -14 225 -14 c 0
 132 -14 62 36 24 88 c 1
 92 150 l 1
EndSplineSet
EndChar

StartChar: y
Encoding: 121 121 44
Width: 457
VWidth: 0
Flags: HMW
LayerCount: 2
Fore
SplineSet
516 460 m 1
 108 -220 l 1
 -8 -220 l 1
 160 57 l 1
 48 460 l 1
 164 460 l 1
 248 96 l 1
 198 100 l 1
 399 460 l 1
 516 460 l 1
EndSplineSet
EndChar

StartChar: w
Encoding: 119 119 45
Width: 690
VWidth: 0
Flags: HMW
LayerCount: 2
Fore
SplineSet
52 460 m 1
 165 460 l 1
 222 190 l 1
 400 497 l 1
 476 188 l 1
 627 460 l 1
 746 460 l 1
 450 -35 l 1
 365 276 l 1
 176 -35 l 1
 52 460 l 1
EndSplineSet
EndChar

StartChar: v
Encoding: 118 118 46
Width: 459
VWidth: 0
Flags: HMW
LayerCount: 2
Fore
SplineSet
53 460 m 1
 168 460 l 1
 238 166 l 1
 400 460 l 1
 518 460 l 1
 208 -44 l 1
 53 460 l 1
EndSplineSet
EndChar

StartChar: x
Encoding: 120 120 47
Width: 450
VWidth: 0
Flags: HMW
LayerCount: 2
Fore
SplineSet
376 460 m 1
 498 460 l 1
 302 233 l 1
 433 0 l 1
 318 0 l 1
 234 160 l 1
 106 0 l 1
 -20 0 l 1
 190 243 l 1
 64 460 l 1
 182 460 l 1
 258 316 l 1
 376 460 l 1
EndSplineSet
EndChar

StartChar: z
Encoding: 122 122 48
Width: 469
VWidth: 0
Flags: HMW
LayerCount: 2
Fore
SplineSet
306 360 m 1
 82 360 l 1
 99 460 l 1
 510 460 l 1
 194 100 l 1
 424 100 l 1
 406 0 l 1
 -16 0 l 1
 306 360 l 1
EndSplineSet
EndChar

StartChar: j
Encoding: 106 106 49
Width: 250
VWidth: 0
Flags: HMW
LayerCount: 2
Fore
SplineSet
136 643 m 0
 136 680 165 708 203 708 c 0
 241 708 270 680 270 643 c 0
 270 606 241 578 203 578 c 0
 165 578 136 606 136 643 c 0
-69 -100 m 1
 -59 -114 -45 -126 -27 -126 c 0
 9 -128 29 -86 34 -44 c 2
 120 460 l 1
 226 460 l 1
 137 -66 l 2
 122 -158 66 -230 -30 -228 c 0
 -75 -228 -107 -208 -131 -182 c 1
 -69 -100 l 1
EndSplineSet
EndChar

StartChar: P
Encoding: 80 80 50
Width: 560
VWidth: 0
Flags: HMW
LayerCount: 2
Fore
SplineSet
166 700 m 1
 284 700 l 1
 164 0 l 1
 48 0 l 1
 166 700 l 1
217 596 m 1
 236 700 l 1
 369 700 l 1
 509 700 598 614 580 482 c 0
 562 348 446 265 302 265 c 1
 160 265 l 1
 179 369 l 1
 312 369 l 1
 389 371 453 408 466 482 c 0
 478 553 432 596 358 596 c 2
 217 596 l 1
EndSplineSet
EndChar

StartChar: U
Encoding: 85 85 51
Width: 636
VWidth: 0
Flags: HMW
LayerCount: 2
Fore
SplineSet
162 700 m 1
 280 700 l 1
 198 235 l 2
 188 159 217 92 304 92 c 0
 400 92 449 155 463 235 c 1
 543 700 l 1
 660 700 l 1
 580 230 l 2
 556 85 453 -18 292 -18 c 0
 146 -18 61 89 82 230 c 1
 162 700 l 1
EndSplineSet
EndChar

StartChar: S
Encoding: 83 83 52
Width: 561
VWidth: 0
Flags: HMW
LayerCount: 2
Fore
SplineSet
126 226 m 1
 161 147 205 92 285 92 c 0
 361 92 410 144 412 200 c 0
 414 268 356 290 286 322 c 0
 220 352 127 405 131 516 c 0
 136 628 234 712 366 712 c 0
 484 712 553 641 585 561 c 1
 488 510 l 1
 465 560 430 607 354 607 c 0
 290 607 254 571 252 524 c 0
 249 468 305 434 384 403 c 0
 461 371 538 318 534 208 c 0
 528 79 410 -15 279 -15 c 0
 159 -15 72 66 36 164 c 1
 126 226 l 1
EndSplineSet
EndChar

StartChar: at
Encoding: 64 64 53
Width: 747
VWidth: 0
Flags: HMW
LayerCount: 2
Fore
SplineSet
305 320 m 0
 299 278 311 242 354 240 c 0
 407 236 468 296 476 368 c 0
 482 410 465 446 423 448 c 0
 368 451 313 383 305 320 c 0
212 316 m 0
 226 433 324 532 420 530 c 0
 502 528 526 442 516 370 c 0
 502 253 421 157 321 158 c 0
 239 159 202 232 212 316 c 0
54 320 m 0
 87 533 268 716 494 715 c 0
 692 714 786 550 760 390 c 0
 744 250 646 144 542 148 c 0
 474 150 453 208 464 268 c 1
 456 280 l 1
 526 520 l 1
 618 520 l 1
 544 297 l 2
 542 289 539 278 538 270 c 0
 536 250 536 229 560 226 c 0
 605 216 666 306 674 390 c 0
 696 514 639 635 488 636 c 0
 306 637 168 490 140 320 c 0
 118 178 184 66 339 64 c 0
 409 63 474 79 538 111 c 1
 563 40 l 1
 496 6 424 -16 328 -16 c 0
 121 -14 26 134 54 320 c 0
EndSplineSet
EndChar

StartChar: period
Encoding: 46 46 54
Width: 299
VWidth: 0
Flags: HMW
LayerCount: 2
Fore
SplineSet
62 51 m 0
 62 89 92 120 132 120 c 0
 172 120 203 89 203 51 c 0
 203 13 172 -18 132 -18 c 0
 92 -18 62 13 62 51 c 0
EndSplineSet
EndChar

StartChar: comma
Encoding: 44 44 55
Width: 304
VWidth: 0
Flags: HMW
LayerCount: 2
Fore
SplineSet
122 109 m 1
 227 77 l 1
 72 -170 l 1
 -7 -148 l 1
 122 109 l 1
EndSplineSet
EndChar

StartChar: colon
Encoding: 58 58 56
Width: 299
VWidth: 0
Flags: HMW
LayerCount: 2
Fore
SplineSet
61 51 m 0
 61 89 91 120 131 120 c 0
 171 120 202 89 202 51 c 0
 202 13 171 -18 131 -18 c 0
 91 -18 61 13 61 51 c 0
126 428 m 0
 126 466 156 498 196 498 c 0
 236 498 266 466 266 428 c 0
 266 390 236 359 196 359 c 0
 156 359 126 390 126 428 c 0
EndSplineSet
EndChar

StartChar: semicolon
Encoding: 59 59 57
Width: 344
VWidth: 0
Flags: HMW
LayerCount: 2
Fore
SplineSet
163 426 m 0
 163 464 193 496 233 496 c 0
 273 496 304 464 304 426 c 0
 304 388 273 356 233 356 c 0
 193 356 163 388 163 426 c 0
131 109 m 1
 235 77 l 1
 80 -170 l 1
 2 -148 l 1
 131 109 l 1
EndSplineSet
EndChar

StartChar: quotedbl
Encoding: 34 34 58
Width: 471
VWidth: 0
Flags: HMW
LayerCount: 2
Fore
SplineSet
206 700 m 1
 328 700 l 1
 186 393 l 1
 112 392 l 1
 206 700 l 1
392 700 m 1
 514 700 l 1
 372 393 l 1
 300 392 l 1
 392 700 l 1
EndSplineSet
EndChar

StartChar: exclam
Encoding: 33 33 59
Width: 307
VWidth: 0
Flags: HMW
LayerCount: 2
Fore
SplineSet
180 700 m 1
 314 700 l 1
 206 212 l 1
 122 212 l 1
 180 700 l 1
65 49 m 0
 65 87 96 116 136 116 c 0
 176 116 206 87 206 49 c 0
 206 11 176 -19 136 -19 c 0
 96 -19 65 11 65 49 c 0
EndSplineSet
EndChar

StartChar: quotesingle
Encoding: 39 39 60
Width: 284
VWidth: 0
Flags: HMW
LayerCount: 2
Fore
SplineSet
206 700 m 1
 328 700 l 1
 186 393 l 1
 112 392 l 1
 206 700 l 1
EndSplineSet
EndChar

StartChar: numbersign
Encoding: 35 35 61
Width: 610
VWidth: 0
Flags: HMW
LayerCount: 2
Fore
SplineSet
119 430 m 1
 133 516 l 1
 639 516 l 1
 624 429 l 1
 486 429 l 1
 466 431 l 1
 275 431 l 1
 256 429 l 1
 119 430 l 1
38 189 m 1
 53 276 l 1
 182 276 l 1
 202 274 l 1
 408 274 l 1
 432 276 l 1
 559 276 l 1
 545 189 l 1
 38 189 l 1
539 700 m 1
 638 700 l 1
 352 0 l 1
 254 0 l 1
 346 226 l 1
 358 248 l 1
 444 460 l 1
 450 482 l 1
 539 700 l 1
323 700 m 1
 422 700 l 1
 334 484 l 1
 322 462 l 1
 235 247 l 1
 230 226 l 1
 137 0 l 1
 40 0 l 1
 323 700 l 1
EndSplineSet
EndChar

StartChar: hyphen
Encoding: 45 45 62
Width: 207
VWidth: 0
Flags: HMW
LayerCount: 2
Fore
SplineSet
10 189 m 1
 26 286 l 1
 228 286 l 1
 210 189 l 1
 10 189 l 1
EndSplineSet
EndChar

StartChar: dollar
Encoding: 36 36 63
Width: 578
VWidth: 0
Flags: HMW
LayerCount: 2
Fore
SplineSet
360 818 m 1
 454 818 l 1
 426 656 l 1
 338 656 l 1
 360 818 l 1
246 54 m 1
 333 54 l 1
 310 -112 l 1
 217 -112 l 1
 246 54 l 1
494 504 m 1
 472 558 442 609 378 610 c 0
 317 611 273 579 265 528 c 0
 253 458 331 431 399 403 c 0
 483 367 555 302 542 192 c 0
 526 69 422 -10 286 -10 c 0
 169 -10 87 74 54 178 c 1
 150 236 l 1
 179 156 218 92 300 92 c 0
 365 92 410 130 420 188 c 0
 432 262 360 296 292 324 c 0
 215 357 131 418 145 532 c 0
 161 634 268 710 384 710 c 0
 495 710 560 641 590 560 c 1
 494 504 l 1
EndSplineSet
EndChar

StartChar: bar
Encoding: 124 124 64
Width: 295
VWidth: 0
Flags: HMW
LayerCount: 2
Fore
SplineSet
200 784 m 1
 304 784 l 1
 150 -214 l 1
 46 -214 l 1
 200 784 l 1
EndSplineSet
EndChar

StartChar: zero
Encoding: 48 48 65
Width: 605
VWidth: 0
Flags: HMW
LayerCount: 2
Fore
SplineSet
185 350 m 0
 173 239 178 98 288 96 c 0
 398 94 469 226 487 350 c 0
 499 461 492 602 382 604 c 0
 272 606 203 474 185 350 c 0
70 350 m 0
 96 538 218 711 394 711 c 0
 573 711 624 526 602 350 c 0
 576 161 456 -11 278 -11 c 0
 100 -11 48 174 70 350 c 0
EndSplineSet
Substitution2: "Tabular Numbers lookup" uniFF10
EndChar

StartChar: one
Encoding: 49 49 66
Width: 459
VWidth: 0
Flags: HMW
LayerCount: 2
Fore
SplineSet
135 536 m 1
 156 649 l 1
 440 712 l 1
 316 0 l 1
 202 0 l 1
 301 580 l 1
 135 536 l 1
EndSplineSet
Substitution2: "Tabular Numbers lookup" uniFF11
EndChar

StartChar: two
Encoding: 50 50 67
Width: 585
VWidth: 0
Flags: HMW
LayerCount: 2
Fore
SplineSet
1 0 m 1
 366 341 l 2
 416 388 460 436 470 496 c 0
 478 551 443 605 374 606 c 0
 290 608 240 534 224 452 c 1
 108 452 l 1
 132 594 229 712 386 712 c 0
 525 712 606 606 590 502 c 0
 579 425 528 357 468 305 c 2
 246 110 l 1
 539 110 l 1
 522 0 l 1
 1 0 l 1
EndSplineSet
Substitution2: "Tabular Numbers lookup" uniFF12
EndChar

StartChar: four
Encoding: 52 52 68
Width: 610
VWidth: 0
Flags: HMW
LayerCount: 2
Fore
SplineSet
12 135 m 1
 490 699 l 1
 563 700 l 1
 444 0 l 1
 324 0 l 1
 354 176 l 1
 363 187 l 1
 414 482 l 1
 200 228 l 1
 430 228 l 1
 448 236 l 1
 591 236 l 1
 574 134 l 1
 12 135 l 1
EndSplineSet
Substitution2: "Tabular Numbers lookup" uniFF14
EndChar

StartChar: slash
Encoding: 47 47 69
Width: 535
VWidth: 0
Flags: HMW
LayerCount: 2
Fore
SplineSet
508 700 m 1
 617 700 l 1
 69 -150 l 1
 -40 -149 l 1
 508 700 l 1
EndSplineSet
EndChar

StartChar: backslash
Encoding: 92 92 70
Width: 511
VWidth: 0
Flags: HMW
LayerCount: 2
Fore
SplineSet
106 700 m 1
 213 700 l 1
 469 0 l 1
 366 0 l 1
 106 700 l 1
EndSplineSet
EndChar

StartChar: eight
Encoding: 56 56 71
Width: 560
VWidth: 0
Flags: HMW
LayerCount: 2
Fore
SplineSet
139 532 m 0
 155 638 258 712 371 712 c 0
 481 712 565 634 550 530 c 0
 534 418 429 350 317 350 c 0
 207 350 123 421 139 532 c 0
247 518 m 0
 239 467 269 421 322 420 c 0
 378 419 429 465 438 519 c 0
 446 570 418 617 362 618 c 0
 304 619 256 572 247 518 c 0
56 190 m 0
 74 318 198 392 316 392 c 0
 431 392 534 316 516 190 c 0
 498 73 380 -12 255 -12 c 0
 134 -12 39 75 56 190 c 0
173 206 m 0
 163 140 202 89 265 88 c 0
 331 87 394 138 405 206 c 0
 414 266 374 323 312 324 c 0
 247 325 184 268 173 206 c 0
EndSplineSet
Substitution2: "Tabular Numbers lookup" uniFF18
EndChar

StartChar: nine
Encoding: 57 57 72
Width: 594
VWidth: 0
Flags: HMW
LayerCount: 2
Fore
SplineSet
489 464 m 0
 501 540 458 608 378 608 c 0
 296 608 227 544 215 464 c 0
 203 388 246 318 326 318 c 0
 408 318 477 384 489 464 c 0
260 2 m 1
 108 2 l 1
 367 275 l 1
 387 277 l 1
 355 249 320 238 276 238 c 0
 160 239 88 346 102 464 c 0
 121 610 243 712 387 712 c 0
 529 712 620 606 602 464 c 0
 594 400 560 345 520 299 c 2
 260 2 l 1
EndSplineSet
Substitution2: "Tabular Numbers lookup" uniFF19
EndChar

StartChar: three
Encoding: 51 51 73
Width: 558
VWidth: 0
Flags: HMW
LayerCount: 2
Fore
SplineSet
290 344 m 1
 298 406 l 1
 374 412 437 450 448 516 c 0
 455 567 432 609 374 610 c 0
 313 611 268 566 254 514 c 1
 144 515 l 1
 166 627 256 711 382 711 c 0
 502 711 581 626 566 522 c 0
 548 404 423 348 290 344 c 1
272 -12 m 0
 134 -12 56 82 66 200 c 1
 182 200 l 1
 178 136 214 91 284 90 c 0
 352 90 409 134 419 200 c 0
 433 279 367 313 286 317 c 1
 296 384 l 1
 432 380 554 326 534 186 c 0
 517 66 405 -12 272 -12 c 0
EndSplineSet
Substitution2: "Tabular Numbers lookup" uniFF13
EndChar

StartChar: five
Encoding: 53 53 74
Width: 578
VWidth: 0
Flags: HMW
LayerCount: 2
Fore
SplineSet
558 228 m 0
 538 79 412 -11 273 -11 c 0
 159 -11 84 42 34 114 c 1
 112 198 l 1
 146 144 201 99 268 99 c 0
 356 99 424 153 436 235 c 0
 448 313 394 368 316 370 c 0
 250 372 190 352 124 316 c 1
 274 700 l 1
 626 700 l 1
 609 596 l 1
 348 596 l 1
 276 436 l 1
 311 451 348 460 386 460 c 0
 508 459 573 352 558 228 c 0
EndSplineSet
Substitution2: "Tabular Numbers lookup" uniFF15
EndChar

StartChar: six
Encoding: 54 54 75
Width: 594
VWidth: 0
Flags: HMW
LayerCount: 2
Fore
SplineSet
180 236 m 0
 168 160 212 92 292 92 c 0
 374 92 442 156 454 236 c 0
 466 312 422 382 342 382 c 0
 260 382 192 316 180 236 c 0
410 698 m 1
 560 698 l 1
 302 425 l 1
 282 423 l 1
 314 451 350 462 394 462 c 0
 510 461 582 354 568 236 c 0
 549 90 426 -12 282 -12 c 0
 140 -12 49 94 67 236 c 0
 75 300 108 355 148 401 c 2
 410 698 l 1
EndSplineSet
Substitution2: "Tabular Numbers lookup" uniFF16
EndChar

StartChar: seven
Encoding: 55 55 76
Width: 539
VWidth: 0
Flags: HMW
LayerCount: 2
Fore
SplineSet
101 589 m 1
 119 700 l 1
 630 700 l 1
 194 0 l 1
 67 0 l 1
 437 588 l 1
 101 589 l 1
EndSplineSet
Substitution2: "Tabular Numbers lookup" uniFF17
EndChar

StartChar: plus
Encoding: 43 43 77
Width: 619
VWidth: 0
Flags: HMW
LayerCount: 2
Fore
SplineSet
71 208 m 1
 89 314 l 1
 585 314 l 1
 567 207 l 1
 71 208 l 1
314 516 m 1
 428 516 l 1
 339 5 l 1
 228 6 l 1
 314 516 l 1
EndSplineSet
EndChar

StartChar: equal
Encoding: 61 61 78
Width: 600
VWidth: 0
Flags: HMW
LayerCount: 2
Fore
SplineSet
52 118 m 1
 68 215 l 1
 553 215 l 1
 536 118 l 1
 52 118 l 1
82 290 m 1
 98 387 l 1
 582 387 l 1
 566 290 l 1
 82 290 l 1
EndSplineSet
EndChar

StartChar: percent
Encoding: 37 37 79
Width: 793
VWidth: 0
Flags: HMW
LayerCount: 2
Fore
SplineSet
94 544 m 0
 108 636 188 714 286 714 c 0
 383 714 439 633 427 544 c 0
 413 452 333 374 235 374 c 0
 138 374 82 455 94 544 c 0
184 544 m 0
 178 504 199 461 245 460 c 0
 291 459 329 502 336 544 c 0
 342 584 322 625 276 626 c 0
 230 627 191 586 184 544 c 0
433 156 m 0
 447 248 526 326 624 326 c 0
 721 326 778 245 766 156 c 0
 752 64 672 -14 574 -14 c 0
 477 -14 421 67 433 156 c 0
524 156 m 0
 518 116 538 75 584 74 c 0
 630 73 667 112 675 156 c 0
 681 196 662 239 616 240 c 0
 570 241 532 200 524 156 c 0
670 700 m 1
 780 700 l 1
 189 0 l 1
 81 0 l 1
 670 700 l 1
EndSplineSet
EndChar

StartChar: ampersand
Encoding: 38 38 80
Width: 684
VWidth: 0
Flags: HMW
LayerCount: 2
Fore
SplineSet
259 379 m 2
 225 428 176 482 184 552 c 0
 196 646 285 712 390 712 c 0
 492 712 557 639 545 552 c 0
 533 467 456 412 366 360 c 0
 292 318 178 286 164 193 c 0
 154 129 200 86 268 84 c 0
 404 80 525 214 617 325 c 1
 688 270 l 1
 578 141 438 -13 250 -11 c 0
 134 -10 33 67 49 185 c 0
 67 327 215 374 305 418 c 0
 369 452 433 493 442 546 c 0
 448 586 426 621 380 622 c 0
 333 623 296 589 290 547 c 0
 282 501 319 460 353 415 c 2
 648 0 l 1
 529 0 l 1
 259 379 l 2
EndSplineSet
EndChar

StartChar: question
Encoding: 63 63 81
Width: 567
VWidth: 0
Flags: HMW
LayerCount: 2
Fore
SplineSet
464 500 m 0
 476 570 434 616 358 616 c 0
 292 617 238 580 198 534 c 1
 126 593 l 1
 190 663 267 715 377 714 c 0
 500 713 589 620 571 500 c 0
 552 382 442 306 330 288 c 1
 305 182 l 1
 220 182 l 1
 230 359 l 1
 256 359 l 1
 360 361 448 422 464 500 c 0
170 48 m 0
 170 84 201 114 240 114 c 0
 280 114 309 83 309 48 c 0
 309 12 279 -18 240 -18 c 0
 200 -18 170 12 170 48 c 0
EndSplineSet
EndChar

StartChar: parenleft
Encoding: 40 40 82
Width: 312
VWidth: 0
Flags: HMW
LayerCount: 2
Fore
SplineSet
294 779 m 1
 394 779 l 1
 306 629 246 462 218 290 c 0
 194 126 197 -42 243 -200 c 1
 146 -200 l 1
 92 -42 82 126 106 290 c 0
 133 464 196 632 294 779 c 1
EndSplineSet
EndChar

StartChar: parenright
Encoding: 41 41 83
Width: 312
VWidth: 0
Flags: HMW
LayerCount: 2
Fore
SplineSet
74 -199 m 1
 -25 -199 l 1
 63 -49 122 118 150 290 c 0
 174 454 171 622 125 780 c 1
 222 780 l 1
 276 622 286 454 262 290 c 0
 235 116 172 -52 74 -199 c 1
EndSplineSet
EndChar

StartChar: asterisk
Encoding: 42 42 84
Width: 574
VWidth: 0
Flags: HMW
LayerCount: 2
Fore
SplineSet
542 600 m 1
 556 508 l 1
 348 460 l 1
 338 518 l 1
 542 600 l 1
479 345 m 1
 392 288 l 1
 317 473 l 1
 368 506 l 1
 479 345 l 1
230 290 m 1
 160 350 l 1
 321 506 l 1
 364 469 l 1
 230 290 l 1
137 509 m 1
 180 600 l 1
 359 516 l 1
 332 461 l 1
 137 509 l 1
332 700 m 1
 428 700 l 1
 374 490 l 1
 314 490 l 1
 332 700 l 1
EndSplineSet
EndChar

StartChar: less
Encoding: 60 60 85
Width: 621
VWidth: 0
Flags: HMW
LayerCount: 2
Fore
SplineSet
242 260 m 1
 552 112 l 1
 534 10 l 1
 74 227 l 1
 86 294 l 1
 620 512 l 1
 601 401 l 1
 242 260 l 1
EndSplineSet
EndChar

StartChar: greater
Encoding: 62 62 86
Width: 621
VWidth: 0
Flags: HMW
LayerCount: 2
Fore
SplineSet
414 260 m 1
 104 408 l 1
 122 510 l 1
 582 292 l 1
 570 226 l 1
 35 8 l 1
 54 119 l 1
 414 260 l 1
EndSplineSet
EndChar

StartChar: bracketleft
Encoding: 91 91 87
Width: 314
VWidth: 0
Flags: HMW
LayerCount: 2
Fore
SplineSet
288 683 m 1
 163 -123 l 1
 262 -123 l 1
 246 -220 l 1
 41 -220 l 1
 196 780 l 1
 400 780 l 1
 385 683 l 1
 288 683 l 1
EndSplineSet
EndChar

StartChar: bracketright
Encoding: 93 93 88
Width: 314
VWidth: 0
Flags: HMW
LayerCount: 2
Fore
SplineSet
80 -123 m 1
 204 683 l 1
 106 683 l 1
 122 780 l 1
 326 780 l 1
 172 -220 l 1
 -33 -220 l 1
 -18 -123 l 1
 80 -123 l 1
EndSplineSet
EndChar

StartChar: asciicircum
Encoding: 94 94 89
Width: 494
VWidth: 0
Flags: HMW
LayerCount: 2
Fore
SplineSet
326 604 m 1
 206 456 l 1
 100 456 l 1
 310 710 l 1
 369 710 l 1
 492 454 l 1
 394 454 l 1
 326 604 l 1
EndSplineSet
EndChar

StartChar: underscore
Encoding: 95 95 90
Width: 496
VWidth: 0
Flags: HMW
LayerCount: 2
Fore
SplineSet
-52 -140 m 1
 -40 -70 l 1
 459 -70 l 1
 447 -140 l 1
 -52 -140 l 1
EndSplineSet
EndChar

StartChar: grave
Encoding: 96 96 91
Width: 363
VWidth: 0
Flags: HMW
LayerCount: 2
Fore
SplineSet
148 659 m 1
 242 702 l 1
 366 541 l 1
 302 508 l 1
 148 659 l 1
EndSplineSet
EndChar

StartChar: braceleft
Encoding: 123 123 92
Width: 334
VWidth: 0
Flags: HMW
LayerCount: 2
Fore
SplineSet
290 640 m 2
 266 490 l 2
 250 394 227 291 110 280 c 1
 113 300 l 1
 227 286 217 177 204 90 c 2
 180 -60 l 2
 176 -87 188 -110 218 -110 c 2
 254 -110 l 1
 240 -200 l 1
 172 -200 l 2
 105 -200 58 -142 68 -60 c 2
 100 140 l 2
 106 201 100 228 64 250 c 1
 76 330 l 1
 116 348 136 377 144 440 c 2
 175 640 l 2
 187 725 249 780 317 780 c 1
 391 780 l 1
 378 690 l 1
 344 690 l 2
 313 690 295 669 290 640 c 2
EndSplineSet
EndChar

StartChar: braceright
Encoding: 125 125 93
Width: 334
VWidth: 0
Flags: HMW
LayerCount: 2
Fore
SplineSet
108 -60 m 2
 131 90 l 2
 147 186 170 289 287 300 c 1
 284 280 l 1
 170 294 181 403 194 490 c 2
 218 640 l 2
 222 667 209 690 179 690 c 2
 144 690 l 1
 157 780 l 1
 226 780 l 2
 293 780 339 722 329 640 c 2
 298 440 l 2
 292 379 297 352 333 330 c 1
 322 250 l 1
 282 232 261 203 253 140 c 2
 223 -60 l 2
 211 -145 148 -200 80 -200 c 1
 6 -200 l 1
 20 -110 l 1
 53 -110 l 2
 84 -110 103 -89 108 -60 c 2
EndSplineSet
EndChar

StartChar: asciitilde
Encoding: 126 126 94
Width: 558
VWidth: 0
Flags: HMW
LayerCount: 2
Fore
SplineSet
154 170 m 1
 64 176 l 1
 64 184 63 192 64 200 c 0
 68 228 81 256 101 280 c 0
 129 313 171 334 220 334 c 0
 261 334 296 314 333 286 c 0
 355 268 377 254 397 254 c 0
 422 254 438 274 442 298 c 0
 444 307 444 318 442 328 c 1
 536 323 l 1
 536 315 538 304 536 294 c 0
 532 267 521 238 501 214 c 0
 475 183 438 164 396 164 c 0
 358 164 325 186 288 214 c 0
 264 233 238 246 212 246 c 0
 180 246 160 224 154 196 c 0
 152 188 153 178 154 170 c 1
EndSplineSet
EndChar

StartChar: exclamdown
Encoding: 161 161 95
Width: 307
VWidth: 0
Flags: HMW
LayerCount: 2
Fore
SplineSet
152 -239 m 1
 19 -239 l 1
 127 248 l 1
 211 248 l 1
 152 -239 l 1
266 412 m 0
 262 376 225 345 188 346 c 0
 150 347 124 378 128 414 c 0
 132 450 170 481 207 480 c 0
 245 479 270 448 266 412 c 0
EndSplineSet
EndChar

StartChar: cent
Encoding: 162 162 96
Width: 562
VWidth: 0
Flags: HMW
LayerCount: 2
Fore
SplineSet
233 38 m 1
 316 38 l 1
 293 -112 l 1
 204 -112 l 1
 233 38 l 1
186 230 m 0
 174 152 218 86 298 84 c 0
 365 83 423 118 459 160 c 1
 440 41 l 1
 400 9 343 -10 283 -10 c 0
 145 -10 59 98 78 230 c 0
 98 366 216 470 358 470 c 0
 416 470 467 452 503 418 c 1
 484 299 l 1
 462 345 416 376 354 376 c 0
 272 376 200 311 186 230 c 0
322 578 m 1
 412 578 l 1
 382 428 l 1
 300 428 l 1
 322 578 l 1
EndSplineSet
EndChar

StartChar: sterling
Encoding: 163 163 97
Width: 574
VWidth: 0
Flags: HMW
LayerCount: 2
Fore
SplineSet
100 370 m 1
 460 370 l 1
 444 285 l 1
 85 285 l 1
 100 370 l 1
486 474 m 1
 489 534 474 604 396 606 c 0
 338 608 284 570 273 510 c 0
 257 418 336 363 324 266 c 0
 308 160 211 78 124 51 c 1
 153 104 l 1
 502 104 l 1
 484 0 l 1
 30 0 l 1
 120 90 199 160 217 264 c 0
 231 354 148 412 161 520 c 0
 177 635 285 711 404 710 c 0
 532 709 590 604 586 512 c 1
 486 474 l 1
EndSplineSet
EndChar

StartChar: currency
Encoding: 164 164 98
Width: 560
VWidth: 0
Flags: HMW
LayerCount: 2
Fore
SplineSet
88 504 m 1
 150 558 l 1
 228 458 l 1
 169 408 l 1
 88 504 l 1
66 42 m 1
 20 100 l 1
 128 192 l 1
 174 136 l 1
 66 42 l 1
482 408 m 1
 435 464 l 1
 544 558 l 1
 590 501 l 1
 482 408 l 1
380 140 m 1
 442 192 l 1
 520 94 l 1
 461 42 l 1
 380 140 l 1
73 300 m 0
 93 432 206 540 342 540 c 0
 476 540 556 428 538 300 c 0
 518 168 404 60 268 60 c 0
 134 60 55 172 73 300 c 0
174 300 m 0
 162 228 200 160 278 160 c 0
 356 160 422 224 435 300 c 0
 447 372 410 440 332 440 c 0
 254 440 187 376 174 300 c 0
EndSplineSet
EndChar

StartChar: yen
Encoding: 165 165 99
Width: 596
VWidth: 0
Flags: HMW
LayerCount: 2
Fore
SplineSet
64 280 m 1
 78 365 l 1
 586 365 l 1
 572 280 l 1
 64 280 l 1
38 130 m 1
 53 215 l 1
 560 215 l 1
 546 130 l 1
 38 130 l 1
548 700 m 1
 682 700 l 1
 382 295 l 1
 332 0 l 1
 212 0 l 1
 265 299 l 1
 104 700 l 1
 232 700 l 1
 338 402 l 1
 548 700 l 1
EndSplineSet
EndChar

StartChar: brokenbar
Encoding: 166 166 100
Width: 295
VWidth: 0
Flags: HMW
LayerCount: 2
Fore
SplineSet
188 694 m 1
 292 694 l 1
 249 446 l 1
 145 446 l 1
 188 694 l 1
217 254 m 1
 174 6 l 1
 70 6 l 1
 112 254 l 1
 217 254 l 1
EndSplineSet
EndChar

StartChar: section
Encoding: 167 167 101
Width: 460
VWidth: 0
Flags: HMW
LayerCount: 2
Fore
SplineSet
408 568 m 1
 387 600 354 620 318 620 c 0
 286 620 252 606 248 580 c 0
 242 546 300 528 338 512 c 0
 400 486 453 440 444 372 c 0
 430 272 336 240 239 237 c 1
 246 273 l 1
 289 281 332 313 339 356 c 0
 347 408 293 426 248 446 c 0
 190 472 134 513 144 586 c 0
 156 668 243 716 323 716 c 0
 394 716 458 682 482 630 c 1
 408 568 l 1
104 166 m 1
 124 116 164 80 216 80 c 0
 254 80 290 98 296 130 c 0
 304 172 255 189 213 207 c 0
 150 232 88 276 98 350 c 0
 112 441 204 476 306 479 c 1
 300 448 l 1
 254 431 212 412 204 369 c 0
 194 309 257 292 302 271 c 0
 362 243 413 198 404 130 c 0
 392 34 300 -14 206 -14 c 0
 117 -14 52 35 29 105 c 1
 104 166 l 1
EndSplineSet
EndChar

StartChar: dieresis
Encoding: 168 168 102
Width: 471
VWidth: 0
Flags: HMW
LayerCount: 2
Fore
SplineSet
358 650 m 0
 362 684 397 715 432 714 c 0
 468 713 495 683 491 648 c 0
 487 614 451 583 416 584 c 0
 380 585 354 615 358 650 c 0
146 650 m 0
 150 684 187 715 222 714 c 0
 258 713 284 683 280 648 c 0
 276 614 240 583 205 584 c 0
 169 585 142 615 146 650 c 0
EndSplineSet
EndChar

StartChar: copyright
Encoding: 169 169 103
Width: 776
VWidth: 0
Flags: HMW
LayerCount: 2
Fore
SplineSet
288 350 m 0
 276 270 321 203 402 202 c 0
 458 201 505 228 541 260 c 1
 530 176 l 1
 492 149 452 132 396 132 c 0
 274 132 196 232 212 350 c 0
 228 472 332 567 456 568 c 0
 510 568 547 551 582 522 c 1
 570 439 l 1
 543 474 506 498 454 498 c 0
 372 498 301 434 288 350 c 0
130 350 m 0
 106 188 202 40 374 40 c 0
 548 40 694 180 720 350 c 0
 744 512 648 660 476 660 c 0
 302 660 156 520 130 350 c 0
74 350 m 0
 102 550 272 710 476 710 c 0
 677 710 801 542 775 350 c 0
 747 150 577 -10 373 -10 c 0
 172 -10 48 158 74 350 c 0
EndSplineSet
EndChar

StartChar: registered
Encoding: 174 174 104
Width: 776
VWidth: 0
Flags: HMW
LayerCount: 2
Fore
SplineSet
385 346 m 1
 454 346 l 1
 558 150 l 1
 476 150 l 1
 385 346 l 1
328 570 m 1
 398 570 l 1
 334 150 l 1
 264 150 l 1
 328 570 l 1
360 509 m 1
 369 570 l 1
 452 570 l 1
 534 568 592 519 582 442 c 0
 572 363 502 314 418 312 c 1
 329 312 l 1
 338 370 l 1
 418 370 l 1
 463 372 504 396 510 440 c 0
 516 482 487 506 444 508 c 1
 360 509 l 1
130 350 m 0
 106 188 202 40 374 40 c 0
 548 40 694 180 720 350 c 0
 744 512 648 660 476 660 c 0
 302 660 156 520 130 350 c 0
74 350 m 0
 102 550 272 710 476 710 c 0
 677 710 801 542 775 350 c 0
 747 150 577 -10 373 -10 c 0
 172 -10 48 158 74 350 c 0
EndSplineSet
EndChar

StartChar: ordfeminine
Encoding: 170 170 105
Width: 242
VWidth: 0
Flags: HMW
LayerCount: 2
Fore
SplineSet
135 530 m 0
 133 512 146 498 170 497 c 0
 204 495 230 517 240 550 c 1
 244 524 l 1
 232 484 198 455 150 456 c 0
 107 457 75 487 81 531 c 0
 89 577 140 608 188 608 c 0
 222 608 248 593 262 580 c 1
 256 553 l 1
 238 566 220 575 195 575 c 0
 168 575 138 554 135 530 c 0
143 638 m 1
 128 679 l 1
 154 691 184 705 222 705 c 0
 272 705 310 679 306 632 c 1
 276 460 l 1
 223 460 l 1
 253 625 l 1
 251 645 240 657 216 659 c 0
 187 661 159 647 143 638 c 1
EndSplineSet
EndChar

StartChar: ordmasculine
Encoding: 186 186 106
Width: 269
VWidth: 0
Flags: HMW
LayerCount: 2
Fore
SplineSet
90 580 m 0
 100 647 159 700 228 700 c 0
 297 700 341 646 332 580 c 0
 322 513 263 460 194 460 c 0
 125 460 81 514 90 580 c 0
144 580 m 0
 138 544 158 508 196 508 c 0
 235 508 272 542 278 580 c 0
 284 616 264 652 226 652 c 0
 187 652 150 618 144 580 c 0
EndSplineSet
EndChar

StartChar: guillemotleft
Encoding: 171 171 107
Width: 506
VWidth: 0
Flags: HMW
LayerCount: 2
Fore
SplineSet
322 258 m 1
 436 63 l 1
 363 12 l 1
 222 258 l 1
 442 498 l 1
 501 442 l 1
 322 258 l 1
150 258 m 1
 264 63 l 1
 190 12 l 1
 50 258 l 1
 269 498 l 1
 329 442 l 1
 150 258 l 1
EndSplineSet
EndChar

StartChar: guillemotright
Encoding: 187 187 108
Width: 506
VWidth: 0
Flags: HMW
LayerCount: 2
Fore
SplineSet
218 252 m 1
 104 447 l 1
 177 498 l 1
 318 252 l 1
 99 12 l 1
 39 68 l 1
 218 252 l 1
390 252 m 1
 276 447 l 1
 350 498 l 1
 490 252 l 1
 270 12 l 1
 211 68 l 1
 390 252 l 1
EndSplineSet
EndChar

StartChar: uni00AD
Encoding: 173 173 109
Width: 203
VWidth: 0
Flags: HMW
LayerCount: 2
Fore
SplineSet
12 200 m 1
 24 275 l 1
 220 275 l 1
 208 200 l 1
 12 200 l 1
EndSplineSet
EndChar

StartChar: logicalnot
Encoding: 172 172 110
Width: 613
VWidth: 0
Flags: HMW
LayerCount: 2
Fore
SplineSet
84 289 m 1
 102 386 l 1
 591 386 l 1
 554 176 l 1
 468 176 l 1
 488 289 l 1
 84 289 l 1
EndSplineSet
EndChar

StartChar: macron
Encoding: 175 175 111
Width: 502
VWidth: 0
Flags: HMW
LayerCount: 2
Fore
SplineSet
151 589 m 1
 166 686 l 1
 516 686 l 1
 501 589 l 1
 151 589 l 1
EndSplineSet
EndChar

StartChar: degree
Encoding: 176 176 112
Width: 276
VWidth: 0
Flags: HMW
LayerCount: 2
Fore
SplineSet
92 600 m 0
 102 667 163 720 232 720 c 0
 301 720 344 664 335 598 c 0
 325 531 266 478 196 478 c 0
 127 478 83 534 92 600 c 0
145 598 m 0
 139 562 161 526 199 526 c 0
 239 526 276 560 282 599 c 0
 288 635 266 672 228 672 c 0
 188 672 151 637 145 598 c 0
EndSplineSet
EndChar

StartChar: plusminus
Encoding: 177 177 113
Width: 603
VWidth: 0
Flags: HMW
LayerCount: 2
Fore
SplineSet
46 2 m 1
 61 102 l 1
 542 102 l 1
 526 2 l 1
 46 2 l 1
98 340 m 1
 114 443 l 1
 594 443 l 1
 578 340 l 1
 98 340 l 1
324 620 m 1
 437 620 l 1
 365 162 l 1
 255 162 l 1
 324 620 l 1
EndSplineSet
EndChar

StartChar: uni00B2
Encoding: 178 178 114
Width: 359
VWidth: 0
Flags: HMW
LayerCount: 2
Fore
SplineSet
44 283 m 1
 266 487 l 2
 296 515 325 544 331 580 c 0
 335 612 319 644 279 646 c 0
 229 649 195 602 184 554 c 1
 113 555 l 1
 131 639 190 711 285 710 c 0
 370 710 412 643 402 578 c 0
 394 532 365 496 329 464 c 2
 194 348 l 1
 368 348 l 1
 356 282 l 1
 44 283 l 1
EndSplineSet
EndChar

StartChar: uni00B3
Encoding: 179 179 115
Width: 323
VWidth: 0
Flags: HMW
LayerCount: 2
Fore
SplineSet
198 486 m 1
 204 524 l 1
 250 528 288 550 296 590 c 0
 300 620 286 645 252 646 c 0
 216 648 189 619 179 589 c 1
 112 590 l 1
 128 655 180 706 256 706 c 0
 328 706 376 654 366 592 c 0
 354 521 278 490 198 486 c 1
185 272 m 0
 101 272 58 330 62 400 c 1
 130 400 l 1
 130 362 148 335 190 334 c 0
 230 333 268 363 274 401 c 0
 282 449 242 467 194 471 c 1
 200 510 l 1
 282 506 356 476 344 392 c 0
 334 320 264 272 185 272 c 0
EndSplineSet
EndChar

StartChar: acute
Encoding: 180 180 116
Width: 363
VWidth: 0
Flags: HMW
LayerCount: 2
Fore
SplineSet
384 656 m 1
 188 508 l 1
 130 544 l 1
 298 702 l 1
 384 656 l 1
EndSplineSet
EndChar

StartChar: mu
Encoding: 181 181 117
Width: 533
VWidth: 0
Flags: HMW
LayerCount: 2
Fore
SplineSet
228 460 m 1
 177 182 l 2
 170 128 188 88 244 88 c 0
 304 88 350 129 360 187 c 2
 409 460 l 1
 514 460 l 1
 436 0 l 1
 328 0 l 1
 338 56 l 1
 307 17 263 -8 214 -8 c 0
 186 -8 166 -1 146 13 c 1
 89 -320 l 1
 -15 -320 l 1
 118 460 l 1
 228 460 l 1
EndSplineSet
EndChar

StartChar: paragraph
Encoding: 182 182 118
Width: 596
VWidth: 0
Flags: HMW
LayerCount: 2
Fore
SplineSet
298 271 m 1
 177 279 94 358 113 486 c 0
 134 620 243 700 371 700 c 2
 632 700 l 1
 476 -220 l 1
 382 -220 l 1
 526 624 l 1
 452 624 l 1
 308 -220 l 1
 214 -220 l 1
 298 271 l 1
EndSplineSet
EndChar

StartChar: periodcentered
Encoding: 183 183 119
Width: 299
VWidth: 0
Flags: HMW
LayerCount: 2
Fore
SplineSet
96 252 m 0
 100 288 138 321 176 320 c 0
 214 319 239 286 235 250 c 0
 231 214 194 181 156 182 c 0
 118 183 92 216 96 252 c 0
EndSplineSet
EndChar

StartChar: uni00B9
Encoding: 185 185 120
Width: 460
VWidth: 0
Flags: HMW
LayerCount: 2
Fore
SplineSet
214 596 m 1
 225 663 l 1
 398 702 l 1
 323 274 l 1
 254 274 l 1
 312 622 l 1
 214 596 l 1
EndSplineSet
EndChar

StartChar: cedilla
Encoding: 184 184 121
Width: 356
VWidth: 0
Flags: HMW
LayerCount: 2
Fore
SplineSet
167 64 m 1
 249 62 l 1
 156 -53 l 1
 162 -52 168 -52 174 -52 c 0
 214 -55 247 -86 241 -136 c 0
 233 -198 169 -234 112 -234 c 0
 70 -234 41 -220 8 -194 c 1
 52 -146 l 1
 70 -160 88 -170 110 -170 c 0
 137 -170 168 -154 170 -131 c 0
 172 -108 149 -97 125 -97 c 0
 108 -96 80 -103 55 -113 c 1
 167 64 l 1
EndSplineSet
EndChar

StartChar: questiondown
Encoding: 191 191 122
Width: 567
VWidth: 0
Flags: HMW
LayerCount: 2
Fore
SplineSet
170 200 m 0
 158 130 199 84 275 84 c 0
 341 83 396 120 436 166 c 1
 507 107 l 1
 443 37 366 -15 256 -14 c 0
 133 -13 44 80 62 200 c 0
 81 318 190 394 302 412 c 1
 328 518 l 1
 412 518 l 1
 403 341 l 1
 376 341 l 1
 272 339 186 278 170 200 c 0
462 651 m 0
 458 617 418 585 382 586 c 0
 345 587 319 618 323 653 c 0
 327 687 366 719 402 718 c 0
 439 717 466 686 462 651 c 0
EndSplineSet
EndChar

StartChar: multiply
Encoding: 215 215 123
Width: 578
VWidth: 0
Flags: HMW
LayerCount: 2
Fore
SplineSet
102 14 m 1
 43 89 l 1
 242 258 l 1
 100 428 l 1
 180 496 l 1
 314 322 l 1
 508 496 l 1
 568 421 l 1
 369 252 l 1
 510 82 l 1
 431 14 l 1
 297 188 l 1
 102 14 l 1
EndSplineSet
EndChar

StartChar: Oslash
Encoding: 216 216 124
Width: 766
VWidth: 0
Flags: HMW
LayerCount: 2
Fore
SplineSet
192 350 m 0
 172 221 237 103 376 102 c 0
 517 101 629 214 652 350 c 0
 672 479 607 597 468 598 c 0
 327 599 215 486 192 350 c 0
68 350 m 0
 99 550 271 712 480 712 c 0
 685 712 804 543 776 350 c 0
 745 150 573 -15 364 -15 c 0
 158 -15 40 158 68 350 c 0
770 752 m 1
 828 706 l 1
 70 -52 l 1
 13 -6 l 1
 770 752 l 1
EndSplineSet
EndChar

StartChar: Thorn
Encoding: 222 222 125
Width: 557
VWidth: 0
Flags: HMW
LayerCount: 2
Fore
SplineSet
168 700 m 1
 278 700 l 1
 158 0 l 1
 50 0 l 1
 168 700 l 1
192 466 m 1
 210 568 l 1
 344 568 l 1
 483 566 576 482 556 350 c 0
 536 216 421 137 277 135 c 1
 136 135 l 1
 154 236 l 1
 288 236 l 1
 368 238 433 276 447 352 c 0
 460 426 410 464 334 466 c 1
 192 466 l 1
EndSplineSet
EndChar

StartChar: divide
Encoding: 247 247 126
Width: 610
VWidth: 0
Flags: HMW
LayerCount: 2
Fore
SplineSet
292 492 m 0
 296 528 333 561 371 560 c 0
 409 559 435 526 431 490 c 0
 427 454 390 421 352 422 c 0
 314 423 288 456 292 492 c 0
222 82 m 0
 226 118 264 151 302 150 c 0
 340 149 364 116 360 80 c 0
 356 44 320 11 282 12 c 0
 244 13 218 46 222 82 c 0
58 240 m 1
 76 341 l 1
 597 341 l 1
 579 239 l 1
 58 240 l 1
EndSplineSet
EndChar

StartChar: oslash
Encoding: 248 248 127
Width: 529
VWidth: 0
Flags: HMW
LayerCount: 2
Fore
SplineSet
44 230 m 0
 64 367 183 470 323 470 c 0
 461 470 547 363 528 230 c 0
 508 93 388 -10 248 -10 c 0
 110 -10 25 97 44 230 c 0
148 230 m 0
 136 153 177 84 257 84 c 0
 339 84 409 148 423 230 c 0
 435 306 394 376 314 376 c 0
 232 376 162 310 148 230 c 0
489 502 m 1
 537 476 l 1
 70 -46 l 1
 23 -20 l 1
 489 502 l 1
EndSplineSet
EndChar

StartChar: circumflex
Encoding: 710 710 128
Width: 465
VWidth: 0
Flags: HMW
LayerCount: 2
Fore
SplineSet
318 638 m 1
 202 548 l 1
 138 602 l 1
 330 740 l 1
 478 598 l 1
 402 548 l 1
 318 638 l 1
EndSplineSet
EndChar

StartChar: ogonek
Encoding: 731 731 129
Width: 252
VWidth: 0
Flags: HMW
LayerCount: 2
Fore
SplineSet
152 -122 m 1
 176 -181 l 1
 154 -201 124 -220 82 -220 c 0
 14 -220 -31 -181 -23 -120 c 0
 -13 -52 62 -9 128 24 c 1
 167 0 l 1
 122 -24 72 -56 66 -98 c 0
 64 -124 74 -140 99 -142 c 0
 120 -144 138 -132 152 -122 c 1
EndSplineSet
EndChar

StartChar: tilde
Encoding: 732 732 130
Width: 514
VWidth: 0
Flags: HMW
LayerCount: 2
Fore
SplineSet
166 632 m 1
 186 676 230 718 284 716 c 0
 337 715 354 666 402 668 c 0
 427 669 448 693 468 718 c 1
 518 662 l 1
 494 626 448 582 394 584 c 0
 346 586 320 636 276 634 c 0
 241 632 229 602 221 584 c 1
 166 632 l 1
EndSplineSet
EndChar

StartChar: ring
Encoding: 730 730 131
Width: 288
VWidth: 0
Flags: HMW
LayerCount: 2
Fore
SplineSet
142 780 m 0
 150 840 208 884 266 884 c 0
 324 884 367 838 359 778 c 0
 351 718 292 674 234 674 c 0
 176 674 134 721 142 780 c 0
202 778 m 0
 199 752 216 730 240 728 c 0
 264 726 295 754 298 780 c 0
 301 806 285 828 261 830 c 0
 237 832 205 804 202 778 c 0
EndSplineSet
EndChar

StartChar: dotaccent
Encoding: 729 729 132
Width: 291
VWidth: 0
Flags: HMW
LayerCount: 2
Fore
SplineSet
188 800 m 0
 190 836 222 866 259 866 c 0
 296 866 326 836 324 800 c 0
 322 764 289 734 252 734 c 0
 215 734 186 764 188 800 c 0
EndSplineSet
EndChar

StartChar: uni2010
Encoding: 8208 8208 133
Width: 207
VWidth: 0
Flags: HMW
LayerCount: 2
Fore
SplineSet
10 189 m 1
 26 286 l 1
 228 286 l 1
 210 189 l 1
 10 189 l 1
EndSplineSet
EndChar

StartChar: endash
Encoding: 8211 8211 134
Width: 734
VWidth: 0
Flags: HMW
LayerCount: 2
Fore
SplineSet
73 189 m 1
 89 286 l 1
 688 286 l 1
 672 189 l 1
 73 189 l 1
EndSplineSet
EndChar

StartChar: figuredash
Encoding: 8210 8210 135
Width: 586
VWidth: 0
Flags: HMW
LayerCount: 2
Fore
SplineSet
73 189 m 1
 89 286 l 1
 539 286 l 1
 522 189 l 1
 73 189 l 1
EndSplineSet
EndChar

StartChar: emdash
Encoding: 8212 8212 136
Width: 882
VWidth: 0
Flags: HMW
LayerCount: 2
Fore
SplineSet
73 189 m 1
 89 286 l 1
 838 286 l 1
 821 189 l 1
 73 189 l 1
EndSplineSet
EndChar

StartChar: minus
Encoding: 8722 8722 137
Width: 573
VWidth: 0
Flags: HMW
LayerCount: 2
Fore
SplineSet
68 189 m 1
 84 286 l 1
 534 286 l 1
 518 189 l 1
 68 189 l 1
EndSplineSet
EndChar

StartChar: quoteright
Encoding: 8217 8217 138
Width: 288
VWidth: 0
Flags: HMW
LayerCount: 2
Fore
SplineSet
195 700 m 1
 316 700 l 1
 176 461 l 1
 98 461 l 1
 195 700 l 1
EndSplineSet
EndChar

StartChar: quoteleft
Encoding: 8216 8216 139
Width: 288
VWidth: 0
Flags: HMW
LayerCount: 2
Fore
SplineSet
238 460 m 1
 116 460 l 1
 256 699 l 1
 334 699 l 1
 238 460 l 1
EndSplineSet
EndChar

StartChar: quotesinglbase
Encoding: 8218 8218 140
Width: 288
VWidth: 0
Flags: HMW
LayerCount: 2
Fore
SplineSet
99 80 m 1
 220 80 l 1
 80 -159 l 1
 2 -159 l 1
 99 80 l 1
EndSplineSet
EndChar

StartChar: quotedblleft
Encoding: 8220 8220 141
Width: 493
VWidth: 0
Flags: HMW
LayerCount: 2
Fore
SplineSet
238 460 m 1
 116 460 l 1
 256 699 l 1
 334 699 l 1
 238 460 l 1
444 460 m 1
 322 460 l 1
 463 699 l 1
 540 699 l 1
 444 460 l 1
EndSplineSet
EndChar

StartChar: quotedblright
Encoding: 8221 8221 142
Width: 493
VWidth: 0
Flags: HMW
LayerCount: 2
Fore
SplineSet
195 700 m 1
 316 700 l 1
 176 461 l 1
 98 461 l 1
 195 700 l 1
401 700 m 1
 523 700 l 1
 382 461 l 1
 304 461 l 1
 401 700 l 1
EndSplineSet
EndChar

StartChar: perthousand
Encoding: 8240 8240 143
Width: 1191
VWidth: 0
Flags: HMW
LayerCount: 2
Fore
SplineSet
831 156 m 0
 845 248 925 326 1023 326 c 0
 1120 326 1176 245 1164 156 c 0
 1150 64 1070 -14 972 -14 c 0
 875 -14 819 67 831 156 c 0
922 156 m 0
 916 116 934 76 980 74 c 0
 1026 72 1065 114 1072 156 c 0
 1078 196 1060 238 1014 240 c 0
 968 242 929 198 922 156 c 0
94 544 m 0
 108 636 188 714 286 714 c 0
 383 714 439 633 427 544 c 0
 413 452 333 374 235 374 c 0
 138 374 82 455 94 544 c 0
184 544 m 0
 178 504 198 462 244 460 c 0
 290 458 329 502 336 544 c 0
 342 584 324 624 278 626 c 0
 232 628 191 586 184 544 c 0
433 156 m 0
 447 248 526 326 624 326 c 0
 721 326 778 245 766 156 c 0
 752 64 672 -14 574 -14 c 0
 477 -14 421 67 433 156 c 0
524 156 m 0
 518 116 536 76 582 74 c 0
 628 72 668 114 675 156 c 0
 681 196 662 238 616 240 c 0
 570 242 531 198 524 156 c 0
670 700 m 1
 780 700 l 1
 189 0 l 1
 81 0 l 1
 670 700 l 1
EndSplineSet
EndChar

StartChar: guilsinglleft
Encoding: 8249 8249 144
Width: 339
VWidth: 0
Flags: HMW
LayerCount: 2
Fore
SplineSet
150 258 m 1
 264 63 l 1
 190 12 l 1
 50 258 l 1
 269 498 l 1
 329 442 l 1
 150 258 l 1
EndSplineSet
EndChar

StartChar: guilsinglright
Encoding: 8250 8250 145
Width: 339
VWidth: 0
Flags: HMW
LayerCount: 2
Fore
SplineSet
222 252 m 1
 109 447 l 1
 182 498 l 1
 322 252 l 1
 104 12 l 1
 44 68 l 1
 222 252 l 1
EndSplineSet
EndChar

StartChar: uni2031
Encoding: 8241 8241 146
Width: 1589
VWidth: 0
Flags: HMW
LayerCount: 2
Fore
SplineSet
1229 156 m 0
 1243 248 1322 326 1420 326 c 0
 1517 326 1574 245 1562 156 c 0
 1548 64 1468 -14 1370 -14 c 0
 1273 -14 1217 67 1229 156 c 0
1320 156 m 0
 1314 116 1332 76 1378 74 c 0
 1424 72 1464 114 1471 156 c 0
 1477 196 1458 238 1412 240 c 0
 1366 242 1327 198 1320 156 c 0
831 156 m 0
 845 248 925 326 1023 326 c 0
 1120 326 1176 245 1164 156 c 0
 1150 64 1070 -14 972 -14 c 0
 875 -14 819 67 831 156 c 0
922 156 m 0
 916 116 934 76 980 74 c 0
 1026 72 1065 114 1072 156 c 0
 1078 196 1060 238 1014 240 c 0
 968 242 929 198 922 156 c 0
94 544 m 0
 108 636 188 714 286 714 c 0
 383 714 439 633 427 544 c 0
 413 452 333 374 235 374 c 0
 138 374 82 455 94 544 c 0
184 544 m 0
 178 504 198 462 244 460 c 0
 290 458 329 502 336 544 c 0
 342 584 324 624 278 626 c 0
 232 628 191 586 184 544 c 0
433 156 m 0
 447 248 526 326 624 326 c 0
 721 326 778 245 766 156 c 0
 752 64 672 -14 574 -14 c 0
 477 -14 421 67 433 156 c 0
524 156 m 0
 518 116 536 76 582 74 c 0
 628 72 668 114 675 156 c 0
 681 196 662 238 616 240 c 0
 570 242 531 198 524 156 c 0
670 700 m 1
 780 700 l 1
 189 0 l 1
 81 0 l 1
 670 700 l 1
EndSplineSet
EndChar

StartChar: uni203D
Encoding: 8253 8253 147
Width: 567
VWidth: 0
Flags: HMW
LayerCount: 2
Fore
SplineSet
467 492 m 0
 480 566 434 616 354 616 c 0
 288 616 236 583 198 534 c 1
 126 593 l 1
 184 661 264 714 376 713 c 0
 498 712 589 620 571 500 c 0
 551 369 418 291 296 285 c 1
 268 346 l 1
 366 352 450 408 467 492 c 0
258 508 m 1
 376 508 l 1
 298 182 l 1
 226 182 l 1
 258 508 l 1
171 50 m 0
 175 86 214 117 250 116 c 0
 288 115 314 84 310 48 c 0
 306 12 268 -19 232 -18 c 0
 194 -17 167 14 171 50 c 0
EndSplineSet
EndChar

StartChar: Euro
Encoding: 8364 8364 148
Width: 591
VWidth: 0
Flags: HMW
LayerCount: 2
Fore
SplineSet
70 398 m 1
 80 458 l 1
 564 458 l 1
 554 398 l 1
 70 398 l 1
43 272 m 1
 54 334 l 1
 520 334 l 1
 510 272 l 1
 43 272 l 1
220 350 m 0
 204 226 234 92 361 90 c 0
 420 89 474 116 520 151 c 1
 501 27 l 1
 455 3 404 -14 350 -14 c 0
 160 -14 88 171 112 350 c 0
 140 540 278 714 468 714 c 0
 520 714 566 698 610 673 c 1
 590 548 l 1
 554 586 511 610 457 610 c 0
 330 610 240 486 220 350 c 0
EndSplineSet
EndChar

StartChar: fraction
Encoding: 8260 8260 149
Width: 693
VWidth: 0
Flags: HMW
LayerCount: 2
Fore
SplineSet
652 699 m 1
 742 698 l 1
 118 0 l 1
 30 0 l 1
 652 699 l 1
EndSplineSet
EndChar

StartChar: onequarter
Encoding: 188 188 150
Width: 757
VWidth: 0
Flags: HMW
LayerCount: 2
Fore
SplineSet
694 699 m 1
 774 698 l 1
 151 0 l 1
 71 0 l 1
 694 699 l 1
101 596 m 1
 112 663 l 1
 284 702 l 1
 210 274 l 1
 140 274 l 1
 198 622 l 1
 101 596 l 1
375 81 m 1
 440 136 l 1
 618 137 l 1
 628 142 l 1
 724 142 l 1
 713 80 l 1
 375 81 l 1
452 93 m 1
 374 80 l 1
 662 419 l 1
 707 420 l 1
 636 0 l 1
 562 0 l 1
 580 102 l 1
 586 108 l 1
 616 286 l 1
 452 93 l 1
EndSplineSet
EndChar

StartChar: onehalf
Encoding: 189 189 151
Width: 823
VWidth: 0
Flags: HMW
LayerCount: 2
Fore
SplineSet
694 699 m 1
 774 698 l 1
 151 0 l 1
 71 0 l 1
 694 699 l 1
101 596 m 1
 112 663 l 1
 284 702 l 1
 210 274 l 1
 140 274 l 1
 198 622 l 1
 101 596 l 1
455 3 m 1
 677 207 l 2
 707 235 736 264 742 300 c 0
 746 332 730 363 690 365 c 0
 640 368 606 322 595 274 c 1
 524 275 l 1
 542 359 601 431 696 430 c 0
 781 430 824 363 814 298 c 0
 806 252 776 216 740 184 c 2
 606 68 l 1
 779 68 l 1
 768 2 l 1
 455 3 l 1
EndSplineSet
EndChar

StartChar: threequarters
Encoding: 190 190 152
Width: 818
VWidth: 0
Flags: HMW
LayerCount: 2
Fore
SplineSet
758 699 m 1
 838 698 l 1
 214 0 l 1
 135 0 l 1
 758 699 l 1
204 486 m 1
 210 524 l 1
 256 528 294 550 302 590 c 0
 306 620 292 645 258 646 c 0
 222 648 194 619 184 589 c 1
 118 590 l 1
 134 655 186 706 262 706 c 0
 334 706 382 654 372 592 c 0
 360 521 284 490 204 486 c 1
192 272 m 0
 108 272 64 330 68 400 c 1
 137 400 l 1
 137 362 154 335 196 334 c 0
 236 333 274 363 280 401 c 0
 288 449 248 467 200 471 c 1
 206 510 l 1
 288 506 362 476 350 392 c 0
 340 320 271 272 192 272 c 0
436 81 m 1
 500 136 l 1
 679 137 l 1
 690 142 l 1
 785 142 l 1
 774 80 l 1
 436 81 l 1
513 93 m 1
 434 80 l 1
 724 419 l 1
 768 420 l 1
 696 0 l 1
 624 0 l 1
 642 102 l 1
 647 108 l 1
 678 286 l 1
 513 93 l 1
EndSplineSet
EndChar

StartChar: uni2150
Encoding: 8528 8528 153
Width: 855
VWidth: 0
Flags: HMW
LayerCount: 2
Fore
SplineSet
656 699 m 1
 745 698 l 1
 122 0 l 1
 32 0 l 1
 656 699 l 1
101 596 m 1
 112 663 l 1
 284 702 l 1
 210 274 l 1
 140 274 l 1
 198 622 l 1
 101 596 l 1
558 354 m 1
 570 420 l 1
 878 420 l 1
 609 0 l 1
 532 0 l 1
 758 352 l 1
 558 354 l 1
EndSplineSet
EndChar

StartChar: uni2151
Encoding: 8529 8529 154
Width: 799
VWidth: 0
Flags: HMW
LayerCount: 2
Fore
SplineSet
652 699 m 1
 742 698 l 1
 119 0 l 1
 30 0 l 1
 652 699 l 1
101 596 m 1
 112 663 l 1
 284 702 l 1
 210 274 l 1
 140 274 l 1
 198 622 l 1
 101 596 l 1
734 280 m 0
 740 325 716 365 669 366 c 0
 621 368 577 327 569 280 c 0
 563 235 587 194 634 192 c 0
 682 190 726 233 734 280 c 0
593 4 m 1
 500 4 l 1
 658 166 l 1
 670 166 l 1
 650 150 630 144 604 144 c 0
 534 145 492 210 501 280 c 0
 513 367 589 430 674 430 c 0
 759 430 814 365 802 280 c 0
 796 242 776 209 752 181 c 1
 593 4 l 1
EndSplineSet
EndChar

StartChar: uni2152
Encoding: 8530 8530 155
Width: 1098
VWidth: 0
Flags: HMW
LayerCount: 2
Fore
SplineSet
652 699 m 1
 742 698 l 1
 119 0 l 1
 30 0 l 1
 652 699 l 1
101 596 m 1
 112 663 l 1
 284 702 l 1
 210 274 l 1
 140 274 l 1
 198 622 l 1
 101 596 l 1
526 322 m 1
 536 390 l 1
 708 428 l 1
 634 2 l 1
 565 2 l 1
 624 348 l 1
 526 322 l 1
828 210 m 0
 820 144 825 60 890 58 c 0
 956 56 998 136 1009 210 c 0
 1017 276 1013 360 948 362 c 0
 882 364 839 284 828 210 c 0
759 210 m 0
 774 322 848 426 952 426 c 0
 1059 426 1091 316 1078 210 c 0
 1063 98 991 -6 885 -6 c 0
 779 -6 746 104 759 210 c 0
EndSplineSet
EndChar

StartChar: onethird
Encoding: 8531 8531 156
Width: 778
VWidth: 0
Flags: HMW
LayerCount: 2
Fore
SplineSet
652 699 m 1
 742 698 l 1
 119 0 l 1
 30 0 l 1
 652 699 l 1
101 596 m 1
 112 663 l 1
 284 702 l 1
 210 274 l 1
 140 274 l 1
 198 622 l 1
 101 596 l 1
600 206 m 1
 606 244 l 1
 652 248 691 270 699 310 c 0
 703 340 690 365 656 366 c 0
 620 368 592 339 582 309 c 1
 515 310 l 1
 531 375 584 426 660 426 c 0
 732 426 779 374 769 312 c 0
 757 241 680 210 600 206 c 1
588 -8 m 0
 504 -8 461 50 465 120 c 1
 534 120 l 1
 534 82 552 55 594 54 c 0
 634 53 671 83 677 121 c 0
 685 169 645 187 597 191 c 1
 604 230 l 1
 686 226 758 196 746 112 c 0
 736 40 667 -8 588 -8 c 0
EndSplineSet
EndChar

StartChar: twothirds
Encoding: 8532 8532 157
Width: 904
VWidth: 0
Flags: HMW
LayerCount: 2
Fore
SplineSet
784 699 m 1
 872 698 l 1
 249 0 l 1
 160 0 l 1
 784 699 l 1
48 283 m 1
 270 487 l 2
 300 515 330 544 336 580 c 0
 340 612 324 643 284 645 c 0
 234 648 199 602 188 554 c 1
 118 555 l 1
 136 639 195 711 290 710 c 0
 375 710 418 643 408 578 c 0
 400 532 370 496 334 464 c 2
 199 348 l 1
 373 348 l 1
 362 282 l 1
 48 283 l 1
726 206 m 1
 732 244 l 1
 778 248 817 270 825 310 c 0
 829 340 814 365 780 366 c 0
 744 368 718 339 708 309 c 1
 640 310 l 1
 656 375 709 426 785 426 c 0
 857 426 904 374 894 312 c 0
 882 241 806 210 726 206 c 1
714 -8 m 0
 630 -8 586 50 590 120 c 1
 660 120 l 1
 660 82 678 55 720 54 c 0
 760 53 796 83 802 121 c 0
 810 169 770 187 722 191 c 1
 729 230 l 1
 811 226 884 196 872 112 c 0
 862 40 793 -8 714 -8 c 0
EndSplineSet
EndChar

StartChar: uni2155
Encoding: 8533 8533 158
Width: 767
VWidth: 0
Flags: HMW
LayerCount: 2
Fore
SplineSet
652 699 m 1
 742 698 l 1
 119 0 l 1
 30 0 l 1
 652 699 l 1
101 596 m 1
 112 663 l 1
 284 702 l 1
 210 274 l 1
 140 274 l 1
 198 622 l 1
 101 596 l 1
738 134 m 0
 726 45 647 -8 565 -8 c 0
 496 -8 452 24 422 67 c 1
 469 118 l 1
 490 86 521 58 561 58 c 0
 613 58 657 92 664 140 c 0
 670 186 640 218 594 220 c 0
 554 222 518 208 478 188 c 1
 528 230 l 1
 558 258 597 274 636 274 c 0
 709 273 748 208 738 134 c 0
617 356 m 1
 563 238 l 1
 473 182 l 1
 571 418 l 1
 783 418 l 1
 772 356 l 1
 617 356 l 1
EndSplineSet
EndChar

StartChar: uni2156
Encoding: 8534 8534 159
Width: 896
VWidth: 0
Flags: HMW
LayerCount: 2
Fore
SplineSet
784 699 m 1
 872 698 l 1
 249 0 l 1
 160 0 l 1
 784 699 l 1
48 283 m 1
 270 487 l 2
 300 515 330 544 336 580 c 0
 340 612 324 643 284 645 c 0
 234 648 199 602 188 554 c 1
 118 555 l 1
 136 639 195 711 290 710 c 0
 375 710 418 643 408 578 c 0
 400 532 370 496 334 464 c 2
 199 348 l 1
 373 348 l 1
 362 282 l 1
 48 283 l 1
864 134 m 0
 852 45 772 -8 690 -8 c 0
 621 -8 578 24 548 67 c 1
 595 118 l 1
 616 86 647 58 687 58 c 0
 739 58 783 92 790 140 c 0
 796 186 767 218 721 220 c 0
 681 222 644 208 604 188 c 1
 654 230 l 1
 684 258 723 274 762 274 c 0
 835 273 874 208 864 134 c 0
742 356 m 1
 688 238 l 1
 598 182 l 1
 697 418 l 1
 909 418 l 1
 898 356 l 1
 742 356 l 1
EndSplineSet
EndChar

StartChar: uni2157
Encoding: 8535 8535 160
Width: 844
VWidth: 0
Flags: HMW
LayerCount: 2
Fore
SplineSet
733 699 m 1
 822 698 l 1
 199 0 l 1
 110 0 l 1
 733 699 l 1
202 486 m 1
 208 524 l 1
 254 528 292 550 300 590 c 0
 304 620 291 645 257 646 c 0
 221 648 194 619 184 589 c 1
 116 590 l 1
 132 655 185 706 261 706 c 0
 333 706 380 654 370 592 c 0
 358 521 282 490 202 486 c 1
190 272 m 0
 106 272 62 330 66 400 c 1
 136 400 l 1
 136 362 154 335 196 334 c 0
 236 333 272 363 278 401 c 0
 286 449 247 467 199 471 c 1
 206 510 l 1
 288 506 360 476 348 392 c 0
 338 320 269 272 190 272 c 0
811 134 m 0
 799 45 720 -8 638 -8 c 0
 569 -8 524 24 494 67 c 1
 542 118 l 1
 563 86 594 58 634 58 c 0
 686 58 730 92 737 140 c 0
 743 186 714 218 668 220 c 0
 628 222 591 208 551 188 c 1
 600 230 l 1
 630 258 669 274 708 274 c 0
 781 273 821 208 811 134 c 0
688 356 m 1
 636 238 l 1
 546 182 l 1
 644 418 l 1
 856 418 l 1
 844 356 l 1
 688 356 l 1
EndSplineSet
EndChar

StartChar: uni2158
Encoding: 8536 8536 161
Width: 898
VWidth: 0
Flags: HMW
LayerCount: 2
Fore
SplineSet
776 699 m 1
 866 698 l 1
 242 0 l 1
 154 0 l 1
 776 699 l 1
59 361 m 1
 124 416 l 1
 302 417 l 1
 312 422 l 1
 408 422 l 1
 397 360 l 1
 59 361 l 1
136 373 m 1
 57 360 l 1
 346 699 l 1
 391 700 l 1
 320 280 l 1
 247 280 l 1
 264 382 l 1
 270 388 l 1
 300 566 l 1
 136 373 l 1
866 134 m 0
 854 45 775 -8 693 -8 c 0
 624 -8 580 24 550 67 c 1
 597 117 l 1
 618 85 649 58 689 58 c 0
 741 58 785 92 792 140 c 0
 798 186 768 218 722 220 c 0
 682 222 646 208 606 188 c 1
 656 230 l 1
 686 258 725 274 764 274 c 0
 837 273 876 208 866 134 c 0
744 355 m 1
 691 238 l 1
 601 182 l 1
 699 418 l 1
 911 418 l 1
 900 356 l 1
 744 355 l 1
EndSplineSet
EndChar

StartChar: uni2159
Encoding: 8537 8537 162
Width: 764
VWidth: 0
Flags: HMW
LayerCount: 2
Fore
SplineSet
660 699 m 1
 749 698 l 1
 126 0 l 1
 37 0 l 1
 660 699 l 1
101 596 m 1
 112 663 l 1
 284 702 l 1
 210 274 l 1
 140 274 l 1
 198 622 l 1
 101 596 l 1
506 140 m 0
 500 95 523 55 570 54 c 0
 618 52 662 93 670 140 c 0
 676 185 653 226 606 228 c 0
 558 230 514 187 506 140 c 0
647 416 m 1
 739 416 l 1
 582 254 l 1
 570 254 l 1
 590 269 610 276 636 276 c 0
 706 276 748 210 739 140 c 0
 727 53 651 -10 566 -10 c 0
 481 -10 425 55 437 140 c 0
 443 178 464 211 488 239 c 1
 647 416 l 1
EndSplineSet
EndChar

StartChar: uni215A
Encoding: 8538 8538 163
Width: 859
VWidth: 0
Flags: HMW
LayerCount: 2
Fore
SplineSet
762 699 m 1
 851 698 l 1
 228 0 l 1
 138 0 l 1
 762 699 l 1
376 414 m 0
 364 325 286 272 204 272 c 0
 135 272 90 304 60 347 c 1
 108 398 l 1
 129 366 160 338 200 338 c 0
 252 338 296 372 303 420 c 0
 309 466 280 498 234 500 c 0
 194 502 157 488 117 468 c 1
 166 510 l 1
 196 538 235 554 274 554 c 0
 347 553 386 488 376 414 c 0
255 636 m 1
 202 518 l 1
 111 462 l 1
 210 698 l 1
 422 698 l 1
 411 636 l 1
 255 636 l 1
600 140 m 0
 594 95 617 55 664 54 c 0
 712 52 756 93 764 140 c 0
 770 185 747 226 700 228 c 0
 652 230 608 187 600 140 c 0
741 416 m 1
 833 416 l 1
 676 254 l 1
 664 254 l 1
 684 269 704 276 730 276 c 0
 800 276 841 210 832 140 c 0
 820 53 745 -10 660 -10 c 0
 575 -10 520 55 532 140 c 0
 538 178 558 211 582 239 c 1
 741 416 l 1
EndSplineSet
EndChar

StartChar: oneeighth
Encoding: 8539 8539 164
Width: 788
VWidth: 0
Flags: HMW
LayerCount: 2
Fore
SplineSet
660 699 m 1
 749 698 l 1
 126 0 l 1
 37 0 l 1
 660 699 l 1
101 596 m 1
 112 663 l 1
 284 702 l 1
 210 274 l 1
 140 274 l 1
 198 622 l 1
 101 596 l 1
526 320 m 0
 535 382 598 428 664 428 c 0
 730 428 782 380 773 318 c 0
 764 252 700 210 634 210 c 0
 568 210 517 254 526 320 c 0
591 310 m 0
 587 280 605 254 636 252 c 0
 668 250 701 280 705 312 c 0
 709 343 692 368 660 370 c 0
 626 372 596 342 591 310 c 0
476 114 m 0
 486 190 562 236 632 236 c 0
 701 236 762 190 752 114 c 0
 742 45 670 -8 596 -8 c 0
 523 -8 466 46 476 114 c 0
546 124 m 0
 540 86 564 54 602 53 c 0
 640 52 679 84 685 124 c 0
 690 159 667 193 630 194 c 0
 592 195 552 160 546 124 c 0
EndSplineSet
EndChar

StartChar: threeeighths
Encoding: 8540 8540 165
Width: 862
VWidth: 0
Flags: HMW
LayerCount: 2
Fore
SplineSet
735 699 m 1
 824 698 l 1
 201 0 l 1
 112 0 l 1
 735 699 l 1
202 486 m 1
 208 524 l 1
 254 528 292 550 300 590 c 0
 304 620 291 645 257 646 c 0
 221 648 194 619 184 589 c 1
 116 590 l 1
 132 655 185 706 261 706 c 0
 333 706 380 654 370 592 c 0
 358 521 282 490 202 486 c 1
190 272 m 0
 106 272 62 330 66 400 c 1
 136 400 l 1
 136 362 154 335 196 334 c 0
 236 333 272 363 278 401 c 0
 286 449 247 467 199 471 c 1
 206 510 l 1
 288 506 360 476 348 392 c 0
 338 320 269 272 190 272 c 0
600 320 m 0
 609 382 674 428 740 428 c 0
 806 428 857 380 848 318 c 0
 839 252 774 210 708 210 c 0
 642 210 591 254 600 320 c 0
666 310 m 0
 662 280 679 254 710 252 c 0
 742 250 776 280 780 312 c 0
 784 343 767 368 735 370 c 0
 701 372 671 342 666 310 c 0
550 114 m 0
 560 190 636 236 706 236 c 0
 775 236 837 190 827 114 c 0
 817 45 746 -8 672 -8 c 0
 599 -8 540 46 550 114 c 0
621 124 m 0
 615 86 638 54 676 53 c 0
 714 52 754 84 760 124 c 0
 765 159 743 193 706 194 c 0
 668 195 627 160 621 124 c 0
EndSplineSet
EndChar

StartChar: fiveeighths
Encoding: 8541 8541 166
Width: 888
VWidth: 0
Flags: HMW
LayerCount: 2
Fore
SplineSet
762 699 m 1
 851 698 l 1
 228 0 l 1
 138 0 l 1
 762 699 l 1
374 414 m 0
 362 325 283 272 201 272 c 0
 132 272 88 304 58 347 c 1
 106 398 l 1
 127 366 157 338 197 338 c 0
 249 338 293 372 300 420 c 0
 306 466 277 498 231 500 c 0
 191 502 155 488 115 468 c 1
 164 510 l 1
 194 538 233 554 272 554 c 0
 345 553 384 488 374 414 c 0
252 636 m 1
 199 518 l 1
 109 462 l 1
 207 698 l 1
 419 698 l 1
 408 636 l 1
 252 636 l 1
627 320 m 0
 636 382 700 428 766 428 c 0
 832 428 883 380 874 318 c 0
 865 252 801 210 735 210 c 0
 669 210 618 254 627 320 c 0
692 310 m 0
 688 280 705 254 736 252 c 0
 768 250 802 280 806 312 c 0
 810 343 794 368 762 370 c 0
 728 372 697 342 692 310 c 0
578 114 m 0
 588 190 663 236 733 236 c 0
 802 236 864 190 854 114 c 0
 844 45 772 -8 698 -8 c 0
 625 -8 568 46 578 114 c 0
648 124 m 0
 642 86 664 54 702 53 c 0
 740 52 780 84 786 124 c 0
 791 159 769 193 732 194 c 0
 694 195 654 160 648 124 c 0
EndSplineSet
EndChar

StartChar: seveneighths
Encoding: 8542 8542 167
Width: 782
VWidth: 0
Flags: HMW
LayerCount: 2
Fore
SplineSet
652 699 m 1
 742 698 l 1
 118 0 l 1
 30 0 l 1
 652 699 l 1
106 634 m 1
 118 700 l 1
 426 700 l 1
 158 281 l 1
 81 281 l 1
 308 632 l 1
 106 634 l 1
520 320 m 0
 529 382 594 428 660 428 c 0
 726 428 777 380 768 318 c 0
 759 252 694 210 628 210 c 0
 562 210 511 254 520 320 c 0
585 310 m 0
 581 280 599 254 630 252 c 0
 662 250 696 280 700 312 c 0
 704 343 687 368 655 370 c 0
 621 372 590 342 585 310 c 0
470 114 m 0
 480 190 556 236 626 236 c 0
 695 236 757 190 747 114 c 0
 737 45 665 -8 591 -8 c 0
 518 -8 460 46 470 114 c 0
541 124 m 0
 535 86 558 54 596 53 c 0
 634 52 674 84 680 124 c 0
 685 159 662 193 625 194 c 0
 587 195 547 160 541 124 c 0
EndSplineSet
EndChar

StartChar: uni2074
Encoding: 8308 8308 168
Width: 390
VWidth: 0
Flags: HMW
LayerCount: 2
Fore
SplineSet
56 361 m 1
 121 416 l 1
 298 417 l 1
 310 422 l 1
 405 422 l 1
 394 360 l 1
 56 361 l 1
134 373 m 1
 54 360 l 1
 344 699 l 1
 388 700 l 1
 317 280 l 1
 245 280 l 1
 262 382 l 1
 267 388 l 1
 298 566 l 1
 134 373 l 1
EndSplineSet
EndChar

StartChar: uni2075
Encoding: 8309 8309 169
Width: 357
VWidth: 0
Flags: HMW
LayerCount: 2
Fore
SplineSet
374 414 m 0
 362 325 283 272 201 272 c 0
 132 272 88 304 58 347 c 1
 106 398 l 1
 127 366 157 338 197 338 c 0
 249 338 293 372 300 420 c 0
 306 466 277 498 231 500 c 0
 191 502 155 488 115 468 c 1
 164 510 l 1
 194 538 233 554 272 554 c 0
 345 553 384 488 374 414 c 0
252 636 m 1
 199 518 l 1
 109 462 l 1
 207 698 l 1
 419 698 l 1
 408 636 l 1
 252 636 l 1
EndSplineSet
EndChar

StartChar: uni2076
Encoding: 8310 8310 170
Width: 349
VWidth: 0
Flags: HMW
LayerCount: 2
Fore
SplineSet
142 420 m 0
 136 375 159 335 206 334 c 0
 254 332 298 373 306 420 c 0
 312 465 289 506 242 508 c 0
 194 510 150 467 142 420 c 0
282 696 m 1
 375 696 l 1
 218 534 l 1
 205 534 l 1
 225 549 245 556 271 556 c 0
 341 556 383 490 374 420 c 0
 362 333 287 270 202 270 c 0
 117 270 61 335 73 420 c 0
 79 458 99 491 123 519 c 1
 282 696 l 1
EndSplineSet
EndChar

StartChar: uni2077
Encoding: 8311 8311 171
Width: 353
VWidth: 0
Flags: HMW
LayerCount: 2
Fore
SplineSet
106 634 m 1
 118 700 l 1
 426 700 l 1
 158 281 l 1
 81 281 l 1
 308 632 l 1
 106 634 l 1
EndSplineSet
EndChar

StartChar: uni2078
Encoding: 8312 8312 172
Width: 327
VWidth: 0
Flags: HMW
LayerCount: 2
Fore
SplineSet
115 600 m 0
 124 662 188 708 254 708 c 0
 320 708 371 660 362 598 c 0
 353 532 290 490 224 490 c 0
 158 490 106 534 115 600 c 0
180 590 m 0
 176 560 194 534 225 532 c 0
 257 530 290 560 294 592 c 0
 298 623 282 648 250 650 c 0
 216 652 185 622 180 590 c 0
66 394 m 0
 76 470 152 516 222 516 c 0
 291 516 352 470 342 394 c 0
 332 325 260 272 186 272 c 0
 113 272 56 326 66 394 c 0
136 404 m 0
 130 366 153 334 191 333 c 0
 229 332 268 364 274 404 c 0
 279 439 257 473 220 474 c 0
 182 475 142 440 136 404 c 0
EndSplineSet
EndChar

StartChar: uni2079
Encoding: 8313 8313 173
Width: 348
VWidth: 0
Flags: HMW
LayerCount: 2
Fore
SplineSet
334 560 m 0
 340 605 317 645 270 646 c 0
 222 648 178 607 170 560 c 0
 164 515 187 474 234 472 c 0
 282 470 326 513 334 560 c 0
192 284 m 1
 100 284 l 1
 258 446 l 1
 270 446 l 1
 250 430 230 424 204 424 c 0
 134 425 92 490 101 560 c 0
 113 647 189 710 274 710 c 0
 359 710 414 645 402 560 c 0
 396 522 376 489 352 461 c 1
 192 284 l 1
EndSplineSet
EndChar

StartChar: uni2070
Encoding: 8304 8304 174
Width: 367
VWidth: 0
Flags: HMW
LayerCount: 2
Fore
SplineSet
150 490 m 0
 142 424 147 340 212 338 c 0
 278 336 320 416 331 490 c 0
 339 556 335 640 270 642 c 0
 204 644 161 564 150 490 c 0
80 490 m 0
 95 602 170 706 274 706 c 0
 381 706 413 596 400 490 c 0
 385 378 314 274 208 274 c 0
 102 274 67 384 80 490 c 0
EndSplineSet
EndChar

StartChar: uni2080
Encoding: 8320 8320 175
Width: 367
VWidth: 0
Flags: HMW
LayerCount: 2
Fore
SplineSet
102 210 m 0
 94 144 99 60 164 58 c 0
 230 56 272 136 283 210 c 0
 291 276 287 360 222 362 c 0
 156 364 113 284 102 210 c 0
33 210 m 0
 48 322 122 426 226 426 c 0
 333 426 365 316 352 210 c 0
 337 98 266 -6 160 -6 c 0
 54 -6 20 104 33 210 c 0
EndSplineSet
EndChar

StartChar: uni2084
Encoding: 8324 8324 176
Width: 391
VWidth: 0
Flags: HMW
LayerCount: 2
Fore
SplineSet
8 81 m 1
 73 136 l 1
 251 137 l 1
 262 142 l 1
 357 142 l 1
 346 80 l 1
 8 81 l 1
85 93 m 1
 7 80 l 1
 296 419 l 1
 340 420 l 1
 268 0 l 1
 196 0 l 1
 214 102 l 1
 219 108 l 1
 250 286 l 1
 85 93 l 1
EndSplineSet
EndChar

StartChar: uni2085
Encoding: 8325 8325 177
Width: 360
VWidth: 0
Flags: HMW
LayerCount: 2
Fore
SplineSet
328 134 m 0
 316 45 236 -8 154 -8 c 0
 85 -8 42 24 12 67 c 1
 58 118 l 1
 79 86 110 58 150 58 c 0
 202 58 247 92 254 140 c 0
 260 186 230 218 184 220 c 0
 144 222 108 208 68 188 c 1
 118 230 l 1
 148 258 187 274 226 274 c 0
 299 273 338 208 328 134 c 0
206 356 m 1
 152 238 l 1
 62 182 l 1
 160 418 l 1
 372 418 l 1
 362 356 l 1
 206 356 l 1
EndSplineSet
EndChar

StartChar: uni2086
Encoding: 8326 8326 178
Width: 354
VWidth: 0
Flags: HMW
LayerCount: 2
Fore
SplineSet
94 140 m 0
 88 95 113 55 160 54 c 0
 208 52 251 93 259 140 c 0
 265 185 241 226 194 228 c 0
 146 230 102 187 94 140 c 0
236 416 m 1
 328 416 l 1
 171 254 l 1
 158 254 l 1
 178 269 198 276 224 276 c 0
 294 276 337 210 328 140 c 0
 316 53 240 -10 155 -10 c 0
 70 -10 14 55 26 140 c 0
 32 178 52 211 76 239 c 1
 236 416 l 1
EndSplineSet
EndChar

StartChar: uni2087
Encoding: 8327 8327 179
Width: 355
VWidth: 0
Flags: HMW
LayerCount: 2
Fore
SplineSet
60 354 m 1
 72 420 l 1
 380 420 l 1
 112 0 l 1
 34 0 l 1
 260 352 l 1
 60 354 l 1
EndSplineSet
EndChar

StartChar: uni2088
Encoding: 8328 8328 180
Width: 329
VWidth: 0
Flags: HMW
LayerCount: 2
Fore
SplineSet
69 320 m 0
 78 382 142 428 208 428 c 0
 274 428 325 380 316 318 c 0
 307 252 242 210 176 210 c 0
 110 210 60 254 69 320 c 0
134 310 m 0
 130 280 147 254 178 252 c 0
 210 250 244 280 248 312 c 0
 252 343 236 368 204 370 c 0
 170 372 139 342 134 310 c 0
20 114 m 0
 30 190 105 236 175 236 c 0
 244 236 306 190 296 114 c 0
 286 45 214 -8 140 -8 c 0
 67 -8 10 46 20 114 c 0
90 124 m 0
 84 86 106 54 144 53 c 0
 182 52 223 84 229 124 c 0
 234 159 211 193 174 194 c 0
 136 195 96 160 90 124 c 0
EndSplineSet
EndChar

StartChar: uni2089
Encoding: 8329 8329 181
Width: 355
VWidth: 0
Flags: HMW
LayerCount: 2
Fore
SplineSet
276 280 m 0
 282 325 259 365 212 366 c 0
 164 368 120 327 112 280 c 0
 106 235 129 194 176 192 c 0
 224 190 268 233 276 280 c 0
136 4 m 1
 44 4 l 1
 201 166 l 1
 214 166 l 1
 194 150 172 144 146 144 c 0
 76 145 35 210 44 280 c 0
 56 367 132 430 217 430 c 0
 302 430 357 365 345 280 c 0
 339 242 320 209 296 181 c 1
 136 4 l 1
EndSplineSet
EndChar

StartChar: uni2081
Encoding: 8321 8321 182
Width: 322
VWidth: 0
Flags: HMW
LayerCount: 2
Fore
SplineSet
114 322 m 1
 126 390 l 1
 298 428 l 1
 224 2 l 1
 154 2 l 1
 212 348 l 1
 114 322 l 1
EndSplineSet
EndChar

StartChar: uni2082
Encoding: 8322 8322 183
Width: 360
VWidth: 0
Flags: HMW
LayerCount: 2
Fore
SplineSet
-3 3 m 1
 219 207 l 2
 249 235 278 264 284 300 c 0
 288 332 272 364 232 366 c 0
 182 369 147 322 136 274 c 1
 66 275 l 1
 84 359 143 431 238 430 c 0
 323 430 366 363 356 298 c 0
 348 252 318 216 282 184 c 2
 148 68 l 1
 321 68 l 1
 310 2 l 1
 -3 3 l 1
EndSplineSet
EndChar

StartChar: uni2083
Encoding: 8323 8323 184
Width: 325
VWidth: 0
Flags: HMW
LayerCount: 2
Fore
SplineSet
151 206 m 1
 158 244 l 1
 204 248 242 270 250 310 c 0
 254 340 240 365 206 366 c 0
 170 368 143 339 133 309 c 1
 66 310 l 1
 82 375 134 426 210 426 c 0
 282 426 330 374 320 312 c 0
 308 241 231 210 151 206 c 1
138 -8 m 0
 54 -8 12 50 16 120 c 1
 84 120 l 1
 84 82 102 55 144 54 c 0
 184 53 222 83 228 121 c 0
 236 169 196 187 148 191 c 1
 154 230 l 1
 236 226 310 196 298 112 c 0
 288 40 217 -8 138 -8 c 0
EndSplineSet
EndChar

StartChar: Agrave
Encoding: 192 192 185
Width: 669
VWidth: 0
Flags: HMW
LayerCount: 2
Fore
SplineSet
160 181 m 1
 199 280 l 1
 516 280 l 1
 521 180 l 1
 160 181 l 1
396 502 m 1
 245 245 l 1
 239 219 l 1
 107 0 l 1
 -28 0 l 1
 434 740 l 1
 639 0 l 1
 511 0 l 1
 454 213 l 1
 458 242 l 1
 396 502 l 1
330 950 m 1
 426 994 l 1
 546 832 l 1
 483 799 l 1
 330 950 l 1
EndSplineSet
EndChar

StartChar: Aacute
Encoding: 193 193 186
Width: 669
VWidth: 0
Flags: HMW
LayerCount: 2
Fore
SplineSet
160 181 m 1
 199 280 l 1
 516 280 l 1
 521 180 l 1
 160 181 l 1
396 502 m 1
 245 245 l 1
 239 219 l 1
 107 0 l 1
 -28 0 l 1
 434 740 l 1
 639 0 l 1
 511 0 l 1
 454 213 l 1
 458 242 l 1
 396 502 l 1
608 946 m 1
 410 800 l 1
 352 836 l 1
 523 993 l 1
 608 946 l 1
EndSplineSet
EndChar

StartChar: Acircumflex
Encoding: 194 194 187
Width: 669
VWidth: 0
Flags: HMW
LayerCount: 2
Fore
SplineSet
160 181 m 1
 199 280 l 1
 516 280 l 1
 521 180 l 1
 160 181 l 1
396 502 m 1
 245 245 l 1
 239 219 l 1
 107 0 l 1
 -28 0 l 1
 434 740 l 1
 639 0 l 1
 511 0 l 1
 454 213 l 1
 458 242 l 1
 396 502 l 1
458 860 m 1
 342 770 l 1
 278 823 l 1
 470 961 l 1
 618 820 l 1
 541 769 l 1
 458 860 l 1
EndSplineSet
EndChar

StartChar: Atilde
Encoding: 195 195 188
Width: 669
VWidth: 0
Flags: HMW
LayerCount: 2
Fore
SplineSet
160 181 m 1
 199 280 l 1
 516 280 l 1
 521 180 l 1
 160 181 l 1
396 502 m 1
 245 245 l 1
 239 219 l 1
 107 0 l 1
 -28 0 l 1
 434 740 l 1
 639 0 l 1
 511 0 l 1
 454 213 l 1
 458 242 l 1
 396 502 l 1
276 834 m 1
 296 878 342 920 396 918 c 0
 449 917 465 869 513 871 c 0
 539 872 561 895 581 920 c 1
 628 863 l 1
 604 827 558 786 504 788 c 0
 456 790 432 838 388 836 c 0
 353 834 338 804 330 786 c 1
 276 834 l 1
EndSplineSet
EndChar

StartChar: Adieresis
Encoding: 196 196 189
Width: 669
VWidth: 0
Flags: HMW
LayerCount: 2
Fore
SplineSet
160 181 m 1
 199 280 l 1
 516 280 l 1
 521 180 l 1
 160 181 l 1
396 502 m 1
 245 245 l 1
 239 219 l 1
 107 0 l 1
 -28 0 l 1
 434 740 l 1
 639 0 l 1
 511 0 l 1
 454 213 l 1
 458 242 l 1
 396 502 l 1
498 843 m 0
 502 877 539 909 574 908 c 0
 610 907 635 876 631 841 c 0
 627 807 589 775 554 776 c 0
 518 777 494 808 498 843 c 0
270 846 m 0
 274 880 311 911 346 910 c 0
 382 909 408 878 404 843 c 0
 400 809 362 779 327 780 c 0
 291 781 266 811 270 846 c 0
EndSplineSet
EndChar

StartChar: Aring
Encoding: 197 197 190
Width: 669
VWidth: 0
Flags: HMW
LayerCount: 2
Fore
SplineSet
160 181 m 1
 199 280 l 1
 516 280 l 1
 521 180 l 1
 160 181 l 1
396 502 m 1
 245 245 l 1
 239 219 l 1
 107 0 l 1
 -28 0 l 1
 434 740 l 1
 639 0 l 1
 511 0 l 1
 454 213 l 1
 458 242 l 1
 396 502 l 1
336 800 m 0
 344 860 402 904 460 904 c 0
 518 904 561 858 553 798 c 0
 545 738 486 694 428 694 c 0
 370 694 328 741 336 800 c 0
396 798 m 0
 393 772 409 750 433 748 c 0
 457 746 489 774 492 800 c 0
 495 826 478 848 454 850 c 0
 430 852 399 824 396 798 c 0
EndSplineSet
EndChar

StartChar: AE
Encoding: 198 198 191
Width: 979
VWidth: 0
Flags: HMW
LayerCount: 2
Fore
SplineSet
235 186 m 1
 257 296 l 1
 550 296 l 1
 531 186 l 1
 235 186 l 1
518 700 m 1
 614 658 l 1
 122 0 l 1
 -20 0 l 1
 518 700 l 1
530 0 m 1
 548 104 l 1
 904 104 l 1
 886 0 l 1
 530 0 l 1
644 596 m 1
 518 700 l 1
 1006 700 l 1
 988 596 l 1
 644 596 l 1
586 324 m 1
 603 426 l 1
 940 426 l 1
 922 324 l 1
 586 324 l 1
590 700 m 1
 712 700 l 1
 592 0 l 1
 471 0 l 1
 590 700 l 1
EndSplineSet
EndChar

StartChar: Ccedilla
Encoding: 199 199 192
Width: 670
VWidth: 0
Flags: HMW
LayerCount: 2
Fore
SplineSet
194 350 m 0
 174 220 248 106 380 104 c 0
 475 103 552 148 612 202 c 1
 591 62 l 1
 527 16 457 -12 364 -12 c 0
 160 -11 40 156 68 350 c 0
 99 553 272 712 480 712 c 0
 568 712 632 688 688 638 c 1
 666 497 l 1
 624 557 560 596 472 596 c 0
 338 596 217 488 194 350 c 0
340 54 m 1
 422 52 l 1
 329 -63 l 1
 335 -62 341 -62 347 -62 c 0
 387 -65 420 -97 414 -146 c 0
 406 -207 343 -244 286 -244 c 0
 244 -244 214 -230 181 -204 c 1
 225 -156 l 1
 243 -170 262 -179 284 -179 c 0
 311 -179 341 -163 343 -140 c 0
 345 -117 322 -107 298 -107 c 0
 281 -106 253 -113 228 -123 c 1
 340 54 l 1
EndSplineSet
EndChar

StartChar: Egrave
Encoding: 200 200 193
Width: 554
VWidth: 0
Flags: HMW
LayerCount: 2
Fore
SplineSet
119 0 m 1
 136 104 l 1
 482 104 l 1
 464 0 l 1
 119 0 l 1
221 596 m 1
 238 700 l 1
 583 700 l 1
 565 596 l 1
 221 596 l 1
174 324 m 1
 192 426 l 1
 517 426 l 1
 499 324 l 1
 174 324 l 1
166 700 m 1
 282 700 l 1
 162 0 l 1
 48 0 l 1
 166 700 l 1
274 926 m 1
 368 970 l 1
 489 808 l 1
 426 775 l 1
 274 926 l 1
EndSplineSet
EndChar

StartChar: Eacute
Encoding: 201 201 194
Width: 554
VWidth: 0
Flags: HMW
LayerCount: 2
Fore
SplineSet
119 0 m 1
 136 104 l 1
 482 104 l 1
 464 0 l 1
 119 0 l 1
221 596 m 1
 238 700 l 1
 583 700 l 1
 565 596 l 1
 221 596 l 1
174 324 m 1
 192 426 l 1
 517 426 l 1
 499 324 l 1
 174 324 l 1
166 700 m 1
 282 700 l 1
 162 0 l 1
 48 0 l 1
 166 700 l 1
551 922 m 1
 352 776 l 1
 295 812 l 1
 466 970 l 1
 551 922 l 1
EndSplineSet
EndChar

StartChar: Ecircumflex
Encoding: 202 202 195
Width: 554
VWidth: 0
Flags: HMW
LayerCount: 2
Fore
SplineSet
119 0 m 1
 136 104 l 1
 482 104 l 1
 464 0 l 1
 119 0 l 1
221 596 m 1
 238 700 l 1
 583 700 l 1
 565 596 l 1
 221 596 l 1
174 324 m 1
 192 426 l 1
 517 426 l 1
 499 324 l 1
 174 324 l 1
166 700 m 1
 282 700 l 1
 162 0 l 1
 48 0 l 1
 166 700 l 1
414 872 m 1
 290 778 l 1
 246 820 l 1
 423 958 l 1
 558 816 l 1
 504 778 l 1
 414 872 l 1
EndSplineSet
EndChar

StartChar: Edieresis
Encoding: 203 203 196
Width: 554
VWidth: 0
Flags: HMW
LayerCount: 2
Fore
SplineSet
119 0 m 1
 136 104 l 1
 482 104 l 1
 464 0 l 1
 119 0 l 1
221 596 m 1
 238 700 l 1
 583 700 l 1
 565 596 l 1
 221 596 l 1
174 324 m 1
 192 426 l 1
 517 426 l 1
 499 324 l 1
 174 324 l 1
166 700 m 1
 282 700 l 1
 162 0 l 1
 48 0 l 1
 166 700 l 1
446 854 m 0
 450 888 488 919 523 918 c 0
 559 917 584 887 580 852 c 0
 576 818 539 787 504 788 c 0
 468 789 442 819 446 854 c 0
236 854 m 0
 240 888 277 919 312 918 c 0
 348 917 374 887 370 852 c 0
 366 818 329 787 294 788 c 0
 258 789 232 819 236 854 c 0
EndSplineSet
EndChar

StartChar: Igrave
Encoding: 204 204 197
Width: 266
VWidth: 0
Flags: HMW
LayerCount: 2
Fore
SplineSet
166 700 m 1
 286 700 l 1
 164 0 l 1
 48 0 l 1
 166 700 l 1
122 926 m 1
 218 970 l 1
 338 808 l 1
 275 775 l 1
 122 926 l 1
EndSplineSet
EndChar

StartChar: Iacute
Encoding: 205 205 198
Width: 266
VWidth: 0
Flags: HMW
LayerCount: 2
Fore
SplineSet
166 700 m 1
 286 700 l 1
 164 0 l 1
 48 0 l 1
 166 700 l 1
400 922 m 1
 201 776 l 1
 144 812 l 1
 316 970 l 1
 400 922 l 1
EndSplineSet
EndChar

StartChar: Icircumflex
Encoding: 206 206 199
Width: 266
VWidth: 0
Flags: HMW
LayerCount: 2
Fore
SplineSet
166 700 m 1
 286 700 l 1
 164 0 l 1
 48 0 l 1
 166 700 l 1
257 868 m 1
 137 775 l 1
 80 823 l 1
 266 962 l 1
 408 820 l 1
 344 775 l 1
 257 868 l 1
EndSplineSet
EndChar

StartChar: Idieresis
Encoding: 207 207 200
Width: 266
VWidth: 0
Flags: HMW
LayerCount: 2
Fore
SplineSet
166 700 m 1
 286 700 l 1
 164 0 l 1
 48 0 l 1
 166 700 l 1
288 840 m 0
 292 874 329 905 364 904 c 0
 400 903 426 872 422 837 c 0
 418 803 381 771 346 772 c 0
 310 773 284 805 288 840 c 0
78 840 m 0
 82 874 117 905 152 904 c 0
 188 903 216 872 212 837 c 0
 208 803 169 771 134 772 c 0
 98 773 74 805 78 840 c 0
EndSplineSet
EndChar

StartChar: Ntilde
Encoding: 209 209 201
Width: 758
VWidth: 0
Flags: HMW
LayerCount: 2
Fore
SplineSet
664 700 m 1
 778 700 l 1
 652 -34 l 1
 243 471 l 1
 162 0 l 1
 47 0 l 1
 172 734 l 1
 582 229 l 1
 664 700 l 1
302 810 m 1
 322 854 367 898 421 896 c 0
 474 895 490 846 538 848 c 0
 564 849 586 871 606 896 c 1
 654 840 l 1
 630 804 583 762 529 764 c 0
 481 766 457 814 413 812 c 0
 378 810 364 780 356 762 c 1
 302 810 l 1
EndSplineSet
EndChar

StartChar: Eth
Encoding: 208 208 202
Width: 680
VWidth: 0
Flags: HMW
LayerCount: 2
Fore
SplineSet
30 308 m 1
 44 392 l 1
 357 392 l 1
 342 307 l 1
 30 308 l 1
166 700 m 1
 287 700 l 1
 166 0 l 1
 48 0 l 1
 166 700 l 1
272 0 m 1
 118 0 l 1
 138 111 l 1
 280 111 l 1
 421 114 534 204 558 350 c 0
 580 490 507 585 369 589 c 1
 218 589 l 1
 238 700 l 1
 384 700 l 1
 590 696 708 546 678 350 c 0
 646 146 483 3 272 0 c 1
EndSplineSet
EndChar

StartChar: Ograve
Encoding: 210 210 203
Width: 778
VWidth: 0
Flags: HMW
LayerCount: 2
Fore
SplineSet
192 350 m 0
 172 222 237 103 376 102 c 0
 517 101 629 215 652 350 c 0
 672 478 608 597 468 598 c 0
 327 599 215 485 192 350 c 0
68 350 m 0
 99 550 272 712 480 712 c 0
 686 712 804 543 776 350 c 0
 745 149 574 -15 364 -15 c 0
 158 -15 40 157 68 350 c 0
392 926 m 1
 487 970 l 1
 608 808 l 1
 544 775 l 1
 392 926 l 1
EndSplineSet
EndChar

StartChar: Oacute
Encoding: 211 211 204
Width: 778
VWidth: 0
Flags: HMW
LayerCount: 2
Fore
SplineSet
192 350 m 0
 172 222 237 103 376 102 c 0
 517 101 629 215 652 350 c 0
 672 478 608 597 468 598 c 0
 327 599 215 485 192 350 c 0
68 350 m 0
 99 550 272 712 480 712 c 0
 686 712 804 543 776 350 c 0
 745 149 574 -15 364 -15 c 0
 158 -15 40 157 68 350 c 0
654 922 m 1
 456 776 l 1
 399 812 l 1
 570 970 l 1
 654 922 l 1
EndSplineSet
EndChar

StartChar: Ocircumflex
Encoding: 212 212 205
Width: 778
VWidth: 0
Flags: HMW
LayerCount: 2
Fore
SplineSet
192 350 m 0
 172 222 237 103 376 102 c 0
 517 101 629 215 652 350 c 0
 672 478 608 597 468 598 c 0
 327 599 215 485 192 350 c 0
68 350 m 0
 99 550 272 712 480 712 c 0
 686 712 804 543 776 350 c 0
 745 149 574 -15 364 -15 c 0
 158 -15 40 157 68 350 c 0
518 872 m 1
 394 778 l 1
 350 820 l 1
 527 958 l 1
 662 816 l 1
 608 778 l 1
 518 872 l 1
EndSplineSet
EndChar

StartChar: Otilde
Encoding: 213 213 206
Width: 778
VWidth: 0
Flags: HMW
LayerCount: 2
Fore
SplineSet
192 350 m 0
 172 222 237 103 376 102 c 0
 517 101 629 215 652 350 c 0
 672 478 608 597 468 598 c 0
 327 599 215 485 192 350 c 0
68 350 m 0
 99 550 272 712 480 712 c 0
 686 712 804 543 776 350 c 0
 745 149 574 -15 364 -15 c 0
 158 -15 40 157 68 350 c 0
343 822 m 1
 343 866 419 902 455 902 c 0
 507 901 521 854 568 856 c 0
 592 857 612 880 632 904 c 1
 672 860 l 1
 649 826 608 786 559 788 c 0
 513 790 492 835 450 834 c 0
 414 833 399 802 391 784 c 1
 343 822 l 1
EndSplineSet
EndChar

StartChar: Odieresis
Encoding: 214 214 207
Width: 778
VWidth: 0
Flags: HMW
LayerCount: 2
Fore
SplineSet
192 350 m 0
 172 222 237 103 376 102 c 0
 517 101 629 215 652 350 c 0
 672 478 608 597 468 598 c 0
 327 599 215 485 192 350 c 0
68 350 m 0
 99 550 272 712 480 712 c 0
 686 712 804 543 776 350 c 0
 745 149 574 -15 364 -15 c 0
 158 -15 40 157 68 350 c 0
544 840 m 0
 548 874 585 905 620 904 c 0
 656 903 682 872 678 837 c 0
 674 803 637 771 602 772 c 0
 566 773 540 805 544 840 c 0
333 840 m 0
 337 874 374 905 409 904 c 0
 445 903 471 872 467 837 c 0
 463 803 426 771 391 772 c 0
 355 773 329 805 333 840 c 0
EndSplineSet
EndChar

StartChar: Ugrave
Encoding: 217 217 208
Width: 636
VWidth: 0
Flags: HMW
LayerCount: 2
Fore
SplineSet
162 700 m 1
 280 700 l 1
 198 235 l 2
 188 159 217 93 304 92 c 0
 392 91 448 155 463 235 c 1
 543 700 l 1
 660 700 l 1
 580 230 l 2
 556 86 442 -18 292 -18 c 0
 146 -18 63 88 82 230 c 1
 162 700 l 1
310 924 m 1
 404 968 l 1
 525 806 l 1
 462 772 l 1
 310 924 l 1
EndSplineSet
EndChar

StartChar: Uacute
Encoding: 218 218 209
Width: 636
VWidth: 0
Flags: HMW
LayerCount: 2
Fore
SplineSet
162 700 m 1
 280 700 l 1
 198 235 l 2
 188 159 217 93 304 92 c 0
 392 91 448 155 463 235 c 1
 543 700 l 1
 660 700 l 1
 580 230 l 2
 556 86 442 -18 292 -18 c 0
 146 -18 63 88 82 230 c 1
 162 700 l 1
588 920 m 1
 390 773 l 1
 332 810 l 1
 504 967 l 1
 588 920 l 1
EndSplineSet
EndChar

StartChar: Ucircumflex
Encoding: 219 219 210
Width: 636
VWidth: 0
Flags: HMW
LayerCount: 2
Fore
SplineSet
162 700 m 1
 280 700 l 1
 198 235 l 2
 188 159 217 93 304 92 c 0
 392 91 448 155 463 235 c 1
 543 700 l 1
 660 700 l 1
 580 230 l 2
 556 86 442 -18 292 -18 c 0
 146 -18 63 88 82 230 c 1
 162 700 l 1
442 863 m 1
 326 772 l 1
 262 827 l 1
 454 965 l 1
 602 824 l 1
 526 772 l 1
 442 863 l 1
EndSplineSet
EndChar

StartChar: Udieresis
Encoding: 220 220 211
Width: 636
VWidth: 0
Flags: HMW
LayerCount: 2
Fore
SplineSet
162 700 m 1
 280 700 l 1
 198 235 l 2
 188 159 217 93 304 92 c 0
 392 91 448 155 463 235 c 1
 543 700 l 1
 660 700 l 1
 580 230 l 2
 556 86 442 -18 292 -18 c 0
 146 -18 63 88 82 230 c 1
 162 700 l 1
480 840 m 0
 484 874 521 905 556 904 c 0
 592 903 618 872 614 837 c 0
 610 803 573 771 538 772 c 0
 502 773 476 805 480 840 c 0
254 840 m 0
 258 874 296 905 331 904 c 0
 367 903 392 872 388 837 c 0
 384 803 347 771 312 772 c 0
 276 773 250 805 254 840 c 0
EndSplineSet
EndChar

StartChar: Yacute
Encoding: 221 221 212
Width: 582
VWidth: 0
Flags: HMW
LayerCount: 2
Fore
SplineSet
560 920 m 1
 362 772 l 1
 306 810 l 1
 476 967 l 1
 560 920 l 1
540 700 m 1
 676 700 l 1
 374 292 l 1
 324 0 l 1
 204 0 l 1
 257 298 l 1
 96 700 l 1
 226 700 l 1
 331 402 l 1
 540 700 l 1
EndSplineSet
EndChar

StartChar: agrave
Encoding: 224 224 213
Width: 570
VWidth: 0
Flags: HMW
LayerCount: 2
Fore
SplineSet
456 460 m 1
 562 460 l 1
 482 0 l 1
 379 0 l 1
 456 460 l 1
44 230 m 0
 63 366 173 471 300 470 c 0
 424 469 469 354 453 230 c 0
 435 99 348 -10 226 -10 c 0
 99 -10 26 100 44 230 c 0
154 230 m 0
 142 152 182 84 260 84 c 0
 331 84 401 148 414 230 c 0
 424 307 386 374 316 376 c 0
 238 378 167 312 154 230 c 0
206 682 m 1
 300 726 l 1
 420 564 l 1
 358 530 l 1
 206 682 l 1
EndSplineSet
Substitution2: "alt a" agrave.alt
EndChar

StartChar: aacute
Encoding: 225 225 214
Width: 570
VWidth: 0
Flags: HMW
LayerCount: 2
Fore
SplineSet
456 460 m 1
 562 460 l 1
 482 0 l 1
 379 0 l 1
 456 460 l 1
44 230 m 0
 63 366 173 471 300 470 c 0
 424 469 469 354 453 230 c 0
 435 99 348 -10 226 -10 c 0
 99 -10 26 100 44 230 c 0
154 230 m 0
 142 152 182 84 260 84 c 0
 331 84 401 148 414 230 c 0
 424 307 386 374 316 376 c 0
 238 378 167 312 154 230 c 0
493 678 m 1
 294 531 l 1
 238 567 l 1
 408 724 l 1
 493 678 l 1
EndSplineSet
Substitution2: "alt a" aacute.alt
EndChar

StartChar: acircumflex
Encoding: 226 226 215
Width: 570
VWidth: 0
Flags: HMW
LayerCount: 2
Fore
SplineSet
456 460 m 1
 562 460 l 1
 482 0 l 1
 379 0 l 1
 456 460 l 1
44 230 m 0
 63 366 173 471 300 470 c 0
 424 469 469 354 453 230 c 0
 435 99 348 -10 226 -10 c 0
 99 -10 26 100 44 230 c 0
154 230 m 0
 142 152 182 84 260 84 c 0
 331 84 401 148 414 230 c 0
 424 307 386 374 316 376 c 0
 238 378 167 312 154 230 c 0
368 620 m 1
 253 530 l 1
 188 585 l 1
 380 723 l 1
 530 582 l 1
 452 530 l 1
 368 620 l 1
EndSplineSet
Substitution2: "alt a" acircumflex.alt
EndChar

StartChar: atilde
Encoding: 227 227 216
Width: 570
VWidth: 0
Flags: HMW
LayerCount: 2
Fore
SplineSet
456 460 m 1
 562 460 l 1
 482 0 l 1
 379 0 l 1
 456 460 l 1
44 230 m 0
 63 366 173 471 300 470 c 0
 424 469 469 354 453 230 c 0
 435 99 348 -10 226 -10 c 0
 99 -10 26 100 44 230 c 0
154 230 m 0
 142 152 182 84 260 84 c 0
 331 84 401 148 414 230 c 0
 424 307 386 374 316 376 c 0
 238 378 167 312 154 230 c 0
188 580 m 1
 208 626 254 666 307 666 c 0
 360 666 376 616 424 618 c 0
 450 619 472 641 492 666 c 1
 540 610 l 1
 516 574 469 532 415 534 c 0
 367 536 343 584 299 582 c 0
 264 580 250 550 242 532 c 1
 188 580 l 1
EndSplineSet
Substitution2: "alt a" atilde.alt
EndChar

StartChar: adieresis
Encoding: 228 228 217
Width: 570
VWidth: 0
Flags: HMW
LayerCount: 2
Fore
SplineSet
456 460 m 1
 562 460 l 1
 482 0 l 1
 379 0 l 1
 456 460 l 1
44 230 m 0
 63 366 173 471 300 470 c 0
 424 469 469 354 453 230 c 0
 435 99 348 -10 226 -10 c 0
 99 -10 26 100 44 230 c 0
154 230 m 0
 142 152 182 84 260 84 c 0
 331 84 401 148 414 230 c 0
 424 307 386 374 316 376 c 0
 238 378 167 312 154 230 c 0
398 597 m 0
 402 631 439 663 474 662 c 0
 510 661 536 630 532 595 c 0
 528 561 491 529 456 530 c 0
 420 531 394 562 398 597 c 0
186 597 m 0
 190 631 227 663 262 662 c 0
 298 661 324 630 320 595 c 0
 316 561 279 529 244 530 c 0
 208 531 182 562 186 597 c 0
EndSplineSet
Substitution2: "alt a" adieresis.alt
EndChar

StartChar: aring
Encoding: 229 229 218
Width: 570
VWidth: 0
Flags: HMW
LayerCount: 2
Fore
SplineSet
456 460 m 1
 562 460 l 1
 482 0 l 1
 379 0 l 1
 456 460 l 1
44 230 m 0
 63 366 173 471 300 470 c 0
 424 469 469 354 453 230 c 0
 435 99 348 -10 226 -10 c 0
 99 -10 26 100 44 230 c 0
154 230 m 0
 142 152 182 84 260 84 c 0
 331 84 401 148 414 230 c 0
 424 307 386 374 316 376 c 0
 238 378 167 312 154 230 c 0
238 636 m 0
 246 696 303 742 361 742 c 0
 419 742 463 695 455 635 c 0
 447 575 388 530 330 530 c 0
 272 530 230 577 238 636 c 0
298 635 m 0
 295 609 311 586 335 586 c 0
 359 586 391 610 394 636 c 0
 397 662 380 686 356 686 c 0
 332 686 301 661 298 635 c 0
EndSplineSet
Substitution2: "alt a" aring.alt
EndChar

StartChar: germandbls
Encoding: 223 223 219
Width: 580
VWidth: 0
Flags: HMW
LayerCount: 2
Fore
SplineSet
359 -12 m 0
 301 -12 243 12 208 45 c 1
 250 127 l 1
 279 100 316 82 352 82 c 0
 408 82 448 125 448 179 c 0
 448 285 307 290 307 394 c 0
 307 491 460 520 460 624 c 0
 460 676 422 697 372 697 c 0
 302 697 255 655 242 573 c 2
 146 -2 l 1
 37 -2 l 1
 134 586 l 2
 153 707 234 795 386 795 c 0
 493 795 573 737 573 640 c 0
 573 494 424 473 424 399 c 0
 424 331 562 330 562 186 c 0
 562 76 472 -12 359 -12 c 0
EndSplineSet
EndChar

StartChar: ae
Encoding: 230 230 220
Width: 834
VWidth: 0
Flags: HMW
LayerCount: 2
Fore
SplineSet
185 -10 m 0
 71 -10 14 46 18 122 c 0
 22 212 108 283 229 283 c 0
 285 283 326 270 400 228 c 1
 350 228 l 1
 362 300 l 2
 370 355 338 383 287 383 c 0
 242 383 184 365 144 338 c 1
 106 416 l 1
 168 453 233 471 298 471 c 0
 392 471 446 433 440 358 c 1
 422 346 l 1
 463 417 540 470 638 470 c 0
 753 470 825 392 819 262 c 0
 818 238 813 217 808 205 c 1
 438 205 l 1
 460 224 l 1
 448 142 478 79 560 79 c 0
 617 79 668 103 698 152 c 1
 790 115 l 1
 736 32 650 -10 554 -10 c 0
 458 -10 400 26 374 107 c 1
 389 107 l 1
 359 34 289 -10 185 -10 c 0
211 72 m 0
 284 72 330 110 352 190 c 1
 345 123 l 1
 346 211 l 1
 358 184 l 1
 324 204 284 214 241 214 c 0
 177 214 129 183 128 132 c 0
 127 88 153 72 211 72 c 0
460 238 m 1
 442 280 l 1
 728 280 l 1
 704 250 l 1
 706 256 706 258 706 266 c 0
 708 342 684 388 612 388 c 0
 533 388 482 331 460 238 c 1
EndSplineSet
EndChar

StartChar: ccedilla
Encoding: 231 231 221
Width: 469
VWidth: 0
Flags: HMW
LayerCount: 2
Fore
SplineSet
149 230 m 0
 137 153 180 86 260 84 c 0
 326 83 385 118 421 160 c 1
 403 42 l 1
 363 10 308 -10 246 -10 c 0
 108 -10 21 98 40 230 c 0
 60 366 178 470 320 470 c 0
 379 470 430 450 466 418 c 1
 447 299 l 1
 425 347 376 376 316 376 c 0
 234 376 163 310 149 230 c 0
224 59 m 1
 304 58 l 1
 212 -58 l 1
 218 -57 224 -56 230 -56 c 0
 270 -59 302 -92 296 -141 c 0
 288 -202 226 -240 169 -240 c 0
 127 -240 97 -226 64 -200 c 1
 108 -150 l 1
 126 -164 145 -174 167 -174 c 0
 194 -174 224 -158 226 -135 c 0
 228 -112 206 -102 182 -102 c 0
 165 -101 135 -108 110 -118 c 1
 224 59 l 1
EndSplineSet
EndChar

StartChar: egrave
Encoding: 232 232 222
Width: 522
VWidth: 0
Flags: HMW
LayerCount: 2
Fore
SplineSet
104 206 m 1
 115 280 l 1
 394 280 l 1
 394 339 374 387 307 388 c 0
 232 390 175 330 159 258 c 1
 152 230 l 1
 140 148 169 82 249 80 c 0
 309 78 356 112 390 152 c 1
 478 113 l 1
 420 41 348 -11 236 -10 c 0
 97 -9 26 102 44 230 c 0
 46 247 50 263 56 279 c 0
 92 389 190 470 316 470 c 0
 456 470 519 367 503 235 c 0
 502 226 500 216 498 206 c 1
 104 206 l 1
210 690 m 1
 305 733 l 1
 426 572 l 1
 363 538 l 1
 210 690 l 1
EndSplineSet
EndChar

StartChar: eacute
Encoding: 233 233 223
Width: 522
VWidth: 0
Flags: HMW
LayerCount: 2
Fore
SplineSet
104 206 m 1
 115 280 l 1
 394 280 l 1
 394 339 374 387 307 388 c 0
 232 390 175 330 159 258 c 1
 152 230 l 1
 140 148 169 82 249 80 c 0
 309 78 356 112 390 152 c 1
 478 113 l 1
 420 41 348 -11 236 -10 c 0
 97 -9 26 102 44 230 c 0
 46 247 50 263 56 279 c 0
 92 389 190 470 316 470 c 0
 456 470 519 367 503 235 c 0
 502 226 500 216 498 206 c 1
 104 206 l 1
518 685 m 1
 319 539 l 1
 262 575 l 1
 433 732 l 1
 518 685 l 1
EndSplineSet
EndChar

StartChar: ecircumflex
Encoding: 234 234 224
Width: 522
VWidth: 0
Flags: HMW
LayerCount: 2
Fore
SplineSet
104 206 m 1
 115 280 l 1
 394 280 l 1
 394 339 374 387 307 388 c 0
 232 390 175 330 159 258 c 1
 152 230 l 1
 140 148 169 82 249 80 c 0
 309 78 356 112 390 152 c 1
 478 113 l 1
 420 41 348 -11 236 -10 c 0
 97 -9 26 102 44 230 c 0
 46 247 50 263 56 279 c 0
 92 389 190 470 316 470 c 0
 456 470 519 367 503 235 c 0
 502 226 500 216 498 206 c 1
 104 206 l 1
348 620 m 1
 232 530 l 1
 168 585 l 1
 360 723 l 1
 508 582 l 1
 432 530 l 1
 348 620 l 1
EndSplineSet
EndChar

StartChar: edieresis
Encoding: 235 235 225
Width: 522
VWidth: 0
Flags: HMW
LayerCount: 2
Fore
SplineSet
104 206 m 1
 115 280 l 1
 394 280 l 1
 394 339 374 387 307 388 c 0
 232 390 175 330 159 258 c 1
 152 230 l 1
 140 148 169 82 249 80 c 0
 309 78 356 112 390 152 c 1
 478 113 l 1
 420 41 348 -11 236 -10 c 0
 97 -9 26 102 44 230 c 0
 46 247 50 263 56 279 c 0
 92 389 190 470 316 470 c 0
 456 470 519 367 503 235 c 0
 502 226 500 216 498 206 c 1
 104 206 l 1
380 597 m 0
 384 631 421 663 456 662 c 0
 492 661 517 630 513 595 c 0
 509 561 472 529 437 530 c 0
 401 531 376 562 380 597 c 0
168 597 m 0
 172 631 209 663 244 662 c 0
 280 661 306 630 302 595 c 0
 298 561 261 529 226 530 c 0
 190 531 164 562 168 597 c 0
EndSplineSet
EndChar

StartChar: igrave
Encoding: 236 236 226
Width: 258
VWidth: 0
Flags: HMW
LayerCount: 2
Fore
SplineSet
127 460 m 1
 234 460 l 1
 154 0 l 1
 50 0 l 1
 127 460 l 1
57 696 m 1
 152 740 l 1
 272 578 l 1
 210 545 l 1
 57 696 l 1
EndSplineSet
EndChar

StartChar: dotlessi
Encoding: 305 305 227
Width: 258
VWidth: 0
Flags: HMW
LayerCount: 2
Fore
SplineSet
127 460 m 1
 234 460 l 1
 154 0 l 1
 50 0 l 1
 127 460 l 1
EndSplineSet
EndChar

StartChar: kgreenlandic
Encoding: 312 312 228
Width: 479
VWidth: 0
Flags: HMW
LayerCount: 2
Fore
SplineSet
113 460 m 1
 219 460 l 1
 140 0 l 1
 36 0 l 1
 113 460 l 1
378 460 m 1
 514 460 l 1
 284 268 l 1
 449 0 l 1
 325 0 l 1
 156 273 l 1
 378 460 l 1
EndSplineSet
EndChar

StartChar: iacute
Encoding: 237 237 229
Width: 258
VWidth: 0
Flags: HMW
LayerCount: 2
Fore
SplineSet
127 460 m 1
 234 460 l 1
 154 0 l 1
 50 0 l 1
 127 460 l 1
382 692 m 1
 184 546 l 1
 126 582 l 1
 298 740 l 1
 382 692 l 1
EndSplineSet
EndChar

StartChar: icircumflex
Encoding: 238 238 230
Width: 258
VWidth: 0
Flags: HMW
LayerCount: 2
Fore
SplineSet
127 460 m 1
 234 460 l 1
 154 0 l 1
 50 0 l 1
 127 460 l 1
212 628 m 1
 96 538 l 1
 32 592 l 1
 224 730 l 1
 373 588 l 1
 296 538 l 1
 212 628 l 1
EndSplineSet
EndChar

StartChar: idieresis
Encoding: 239 239 231
Width: 258
VWidth: 0
Flags: HMW
LayerCount: 2
Fore
SplineSet
127 460 m 1
 234 460 l 1
 154 0 l 1
 50 0 l 1
 127 460 l 1
246 620 m 0
 250 654 287 685 322 684 c 0
 358 683 384 653 380 618 c 0
 376 584 339 553 304 554 c 0
 268 555 242 585 246 620 c 0
35 620 m 0
 39 654 76 685 111 684 c 0
 147 683 174 653 170 618 c 0
 166 584 128 553 93 554 c 0
 57 555 31 585 35 620 c 0
EndSplineSet
EndChar

StartChar: ntilde
Encoding: 241 241 232
Width: 528
VWidth: 0
Flags: HMW
LayerCount: 2
Fore
SplineSet
225 460 m 1
 146 0 l 1
 38 0 l 1
 118 460 l 1
 225 460 l 1
376 280 m 1
 382 334 371 380 313 382 c 0
 251 384 208 335 194 281 c 1
 160 279 l 1
 180 379 250 470 356 470 c 0
 460 470 498 393 486 292 c 1
 436 0 l 1
 326 0 l 1
 376 280 l 1
164 580 m 1
 184 624 229 668 283 666 c 0
 336 665 352 616 400 618 c 0
 426 619 447 641 467 666 c 1
 515 610 l 1
 491 574 444 532 390 534 c 0
 342 536 319 584 275 582 c 0
 240 580 225 550 217 532 c 1
 164 580 l 1
EndSplineSet
EndChar

StartChar: ograve
Encoding: 242 242 233
Width: 546
VWidth: 0
Flags: HMW
LayerCount: 2
Fore
SplineSet
44 230 m 0
 64 365 183 470 323 470 c 0
 461 470 547 362 528 230 c 0
 508 95 388 -10 248 -10 c 0
 110 -10 25 98 44 230 c 0
153 230 m 0
 141 156 180 86 258 86 c 0
 338 86 405 151 418 230 c 0
 430 304 392 374 314 374 c 0
 234 374 166 309 153 230 c 0
210 696 m 1
 304 740 l 1
 424 578 l 1
 362 545 l 1
 210 696 l 1
EndSplineSet
EndChar

StartChar: oacute
Encoding: 243 243 234
Width: 546
VWidth: 0
Flags: HMW
LayerCount: 2
Fore
SplineSet
44 230 m 0
 64 365 183 470 323 470 c 0
 461 470 547 362 528 230 c 0
 508 95 388 -10 248 -10 c 0
 110 -10 25 98 44 230 c 0
153 230 m 0
 141 156 180 86 258 86 c 0
 338 86 405 151 418 230 c 0
 430 304 392 374 314 374 c 0
 234 374 166 309 153 230 c 0
521 692 m 1
 323 546 l 1
 265 582 l 1
 436 740 l 1
 521 692 l 1
EndSplineSet
EndChar

StartChar: ocircumflex
Encoding: 244 244 235
Width: 546
VWidth: 0
Flags: HMW
LayerCount: 2
Fore
SplineSet
44 230 m 0
 64 365 183 470 323 470 c 0
 461 470 547 362 528 230 c 0
 508 95 388 -10 248 -10 c 0
 110 -10 25 98 44 230 c 0
153 230 m 0
 141 156 180 86 258 86 c 0
 338 86 405 151 418 230 c 0
 430 304 392 374 314 374 c 0
 234 374 166 309 153 230 c 0
358 636 m 1
 242 546 l 1
 178 600 l 1
 370 738 l 1
 518 596 l 1
 442 545 l 1
 358 636 l 1
EndSplineSet
EndChar

StartChar: otilde
Encoding: 245 245 236
Width: 546
VWidth: 0
Flags: HMW
LayerCount: 2
Fore
SplineSet
44 230 m 0
 64 365 183 470 323 470 c 0
 461 470 547 362 528 230 c 0
 508 95 388 -10 248 -10 c 0
 110 -10 25 98 44 230 c 0
153 230 m 0
 141 156 180 86 258 86 c 0
 338 86 405 151 418 230 c 0
 430 304 392 374 314 374 c 0
 234 374 166 309 153 230 c 0
172 580 m 1
 172 626 249 666 291 666 c 0
 344 665 360 616 408 618 c 0
 434 619 456 641 476 666 c 1
 524 610 l 1
 500 574 454 532 400 534 c 0
 352 536 326 584 282 582 c 0
 247 580 234 550 226 532 c 1
 172 580 l 1
EndSplineSet
EndChar

StartChar: odieresis
Encoding: 246 246 237
Width: 546
VWidth: 0
Flags: HMW
LayerCount: 2
Fore
SplineSet
44 230 m 0
 64 365 183 470 323 470 c 0
 461 470 547 362 528 230 c 0
 508 95 388 -10 248 -10 c 0
 110 -10 25 98 44 230 c 0
153 230 m 0
 141 156 180 86 258 86 c 0
 338 86 405 151 418 230 c 0
 430 304 392 374 314 374 c 0
 234 374 166 309 153 230 c 0
390 620 m 0
 394 654 432 685 467 684 c 0
 503 683 528 653 524 618 c 0
 520 584 483 553 448 554 c 0
 412 555 386 585 390 620 c 0
180 620 m 0
 184 654 221 685 256 684 c 0
 292 683 317 653 313 618 c 0
 309 584 272 553 237 554 c 0
 201 555 176 585 180 620 c 0
EndSplineSet
EndChar

StartChar: ugrave
Encoding: 249 249 238
Width: 528
VWidth: 0
Flags: HMW
LayerCount: 2
Fore
SplineSet
328 0 m 1
 408 460 l 1
 515 460 l 1
 436 0 l 1
 328 0 l 1
178 180 m 1
 172 126 182 80 240 78 c 0
 302 76 346 125 360 179 c 1
 394 181 l 1
 374 81 303 -10 197 -10 c 0
 93 -10 56 67 68 168 c 1
 118 460 l 1
 226 460 l 1
 178 180 l 1
229 696 m 1
 324 740 l 1
 444 578 l 1
 382 545 l 1
 229 696 l 1
EndSplineSet
EndChar

StartChar: uacute
Encoding: 250 250 239
Width: 528
VWidth: 0
Flags: HMW
LayerCount: 2
Fore
SplineSet
328 0 m 1
 408 460 l 1
 515 460 l 1
 436 0 l 1
 328 0 l 1
178 180 m 1
 172 126 182 80 240 78 c 0
 302 76 346 125 360 179 c 1
 394 181 l 1
 374 81 303 -10 197 -10 c 0
 93 -10 56 67 68 168 c 1
 118 460 l 1
 226 460 l 1
 178 180 l 1
482 692 m 1
 284 546 l 1
 228 582 l 1
 399 740 l 1
 482 692 l 1
EndSplineSet
EndChar

StartChar: ucircumflex
Encoding: 251 251 240
Width: 528
VWidth: 0
Flags: HMW
LayerCount: 2
Fore
SplineSet
328 0 m 1
 408 460 l 1
 515 460 l 1
 436 0 l 1
 328 0 l 1
178 180 m 1
 172 126 182 80 240 78 c 0
 302 76 346 125 360 179 c 1
 394 181 l 1
 374 81 303 -10 197 -10 c 0
 93 -10 56 67 68 168 c 1
 118 460 l 1
 226 460 l 1
 178 180 l 1
348 636 m 1
 233 546 l 1
 168 600 l 1
 360 738 l 1
 510 596 l 1
 432 545 l 1
 348 636 l 1
EndSplineSet
EndChar

StartChar: udieresis
Encoding: 252 252 241
Width: 528
VWidth: 0
Flags: HMW
LayerCount: 2
Fore
SplineSet
328 0 m 1
 408 460 l 1
 515 460 l 1
 436 0 l 1
 328 0 l 1
178 180 m 1
 172 126 182 80 240 78 c 0
 302 76 346 125 360 179 c 1
 394 181 l 1
 374 81 303 -10 197 -10 c 0
 93 -10 56 67 68 168 c 1
 118 460 l 1
 226 460 l 1
 178 180 l 1
381 612 m 0
 385 646 421 677 456 676 c 0
 492 675 518 645 514 610 c 0
 510 576 473 545 438 546 c 0
 402 547 377 577 381 612 c 0
170 612 m 0
 174 646 211 677 246 676 c 0
 282 675 307 645 303 610 c 0
 299 576 262 545 227 546 c 0
 191 547 166 577 170 612 c 0
EndSplineSet
EndChar

StartChar: yacute
Encoding: 253 253 242
Width: 457
VWidth: 0
Flags: HMW
LayerCount: 2
Fore
SplineSet
516 460 m 1
 108 -220 l 1
 -8 -220 l 1
 160 57 l 1
 48 460 l 1
 168 460 l 1
 248 96 l 1
 198 100 l 1
 399 460 l 1
 516 460 l 1
460 692 m 1
 262 546 l 1
 204 582 l 1
 375 740 l 1
 460 692 l 1
EndSplineSet
EndChar

StartChar: thorn
Encoding: 254 254 243
Width: 570
VWidth: 0
Flags: HMW
LayerCount: 2
Fore
SplineSet
106 -220 m 1
 -4 -220 l 1
 168 780 l 1
 276 780 l 1
 106 -220 l 1
552 230 m 0
 533 94 423 -11 296 -10 c 0
 172 -9 126 106 142 230 c 0
 160 361 248 470 370 470 c 0
 497 470 570 360 552 230 c 0
442 230 m 0
 454 308 414 376 336 376 c 0
 265 376 194 312 181 230 c 0
 171 153 210 86 280 84 c 0
 358 82 429 148 442 230 c 0
EndSplineSet
EndChar

StartChar: ydieresis
Encoding: 255 255 244
Width: 457
VWidth: 0
Flags: HMW
LayerCount: 2
Fore
SplineSet
516 460 m 1
 108 -220 l 1
 -8 -220 l 1
 160 57 l 1
 48 460 l 1
 168 460 l 1
 248 96 l 1
 198 100 l 1
 399 460 l 1
 516 460 l 1
342 597 m 0
 346 631 384 663 419 662 c 0
 455 661 480 630 476 595 c 0
 472 561 435 529 400 530 c 0
 364 531 338 562 342 597 c 0
132 597 m 0
 136 631 173 663 208 662 c 0
 244 661 270 630 266 595 c 0
 262 561 225 529 190 530 c 0
 154 531 128 562 132 597 c 0
EndSplineSet
EndChar

StartChar: Amacron
Encoding: 256 256 245
Width: 669
VWidth: 0
Flags: HMW
LayerCount: 2
Fore
SplineSet
160 181 m 1
 199 280 l 1
 516 280 l 1
 521 180 l 1
 160 181 l 1
396 502 m 1
 245 245 l 1
 239 219 l 1
 107 0 l 1
 -28 0 l 1
 434 740 l 1
 639 0 l 1
 511 0 l 1
 454 213 l 1
 458 242 l 1
 396 502 l 1
270 800 m 1
 286 896 l 1
 636 896 l 1
 620 799 l 1
 270 800 l 1
EndSplineSet
EndChar

StartChar: amacron
Encoding: 257 257 246
Width: 570
VWidth: 0
Flags: HMW
LayerCount: 2
Fore
SplineSet
456 460 m 1
 562 460 l 1
 482 0 l 1
 379 0 l 1
 456 460 l 1
44 230 m 0
 63 366 173 471 300 470 c 0
 424 469 469 354 453 230 c 0
 435 99 348 -10 226 -10 c 0
 99 -10 26 100 44 230 c 0
154 230 m 0
 142 152 182 84 260 84 c 0
 331 84 401 148 414 230 c 0
 424 307 386 374 316 376 c 0
 238 378 167 312 154 230 c 0
169 538 m 1
 185 636 l 1
 535 636 l 1
 518 538 l 1
 169 538 l 1
EndSplineSet
Substitution2: "alt a" amacron.alt
EndChar

StartChar: breve
Encoding: 728 728 247
Width: 529
VWidth: 0
Flags: HMW
LayerCount: 2
Fore
SplineSet
222 850 m 1
 302 850 l 1
 302 818 314 783 364 782 c 0
 416 781 440 818 452 850 c 1
 534 849 l 1
 516 773 458 708 360 708 c 0
 264 708 218 772 222 850 c 1
EndSplineSet
EndChar

StartChar: Abreve
Encoding: 258 258 248
Width: 669
VWidth: 0
Flags: HMW
LayerCount: 2
Fore
SplineSet
160 181 m 1
 199 280 l 1
 516 280 l 1
 521 180 l 1
 160 181 l 1
396 502 m 1
 245 245 l 1
 239 219 l 1
 107 0 l 1
 -28 0 l 1
 434 740 l 1
 639 0 l 1
 511 0 l 1
 454 213 l 1
 458 242 l 1
 396 502 l 1
311 941 m 1
 391 940 l 1
 390 908 403 873 453 872 c 0
 505 871 530 908 542 940 c 1
 624 940 l 1
 606 864 546 800 448 800 c 0
 351 800 305 864 311 941 c 1
EndSplineSet
EndChar

StartChar: abreve
Encoding: 259 259 249
Width: 570
VWidth: 0
Flags: HMW
LayerCount: 2
Fore
SplineSet
456 460 m 1
 562 460 l 1
 482 0 l 1
 379 0 l 1
 456 460 l 1
44 230 m 0
 63 366 173 471 300 470 c 0
 424 469 469 354 453 230 c 0
 435 99 348 -10 226 -10 c 0
 99 -10 26 100 44 230 c 0
154 230 m 0
 142 152 182 84 260 84 c 0
 331 84 401 148 414 230 c 0
 424 307 386 374 316 376 c 0
 238 378 167 312 154 230 c 0
185 672 m 1
 265 672 l 1
 265 640 278 605 328 604 c 0
 380 603 404 640 416 672 c 1
 498 672 l 1
 480 596 421 530 323 530 c 0
 227 530 181 594 185 672 c 1
EndSplineSet
Substitution2: "alt a" abreve.alt
EndChar

StartChar: Aogonek
Encoding: 260 260 250
Width: 669
VWidth: 0
Flags: HMW
LayerCount: 2
Fore
SplineSet
160 181 m 1
 199 280 l 1
 516 280 l 1
 521 180 l 1
 160 181 l 1
396 502 m 1
 245 245 l 1
 239 219 l 1
 107 0 l 1
 -28 0 l 1
 434 740 l 1
 639 0 l 1
 511 0 l 1
 454 213 l 1
 458 242 l 1
 396 502 l 1
603 -122 m 1
 627 -182 l 1
 605 -202 574 -220 532 -220 c 0
 464 -220 421 -181 429 -120 c 0
 440 -52 516 -9 582 24 c 1
 622 0 l 1
 576 -24 526 -56 519 -98 c 0
 517 -124 525 -140 550 -142 c 0
 571 -144 589 -132 603 -122 c 1
EndSplineSet
EndChar

StartChar: aogonek
Encoding: 261 261 251
Width: 570
VWidth: 0
Flags: HMW
LayerCount: 2
Fore
SplineSet
456 460 m 1
 562 460 l 1
 482 0 l 1
 379 0 l 1
 456 460 l 1
44 230 m 0
 63 366 173 471 300 470 c 0
 424 469 469 354 453 230 c 0
 435 99 348 -10 226 -10 c 0
 99 -10 26 100 44 230 c 0
154 230 m 0
 142 152 182 84 260 84 c 0
 331 84 401 148 414 230 c 0
 424 307 386 374 316 376 c 0
 238 378 167 312 154 230 c 0
452 -122 m 1
 476 -182 l 1
 454 -202 422 -220 380 -220 c 0
 312 -220 270 -181 278 -120 c 0
 289 -52 365 -9 431 24 c 1
 470 0 l 1
 424 -24 374 -56 367 -98 c 0
 365 -124 374 -140 399 -142 c 0
 420 -144 438 -132 452 -122 c 1
EndSplineSet
Substitution2: "alt a" aogonek.alt
EndChar

StartChar: Cacute
Encoding: 262 262 252
Width: 670
VWidth: 0
Flags: HMW
LayerCount: 2
Fore
SplineSet
194 350 m 0
 174 220 248 106 380 104 c 0
 475 103 552 148 612 202 c 1
 591 62 l 1
 527 16 457 -12 364 -12 c 0
 160 -11 40 156 68 350 c 0
 99 553 272 712 480 712 c 0
 568 712 632 688 688 638 c 1
 666 497 l 1
 624 557 560 596 472 596 c 0
 338 596 217 488 194 350 c 0
646 920 m 1
 448 773 l 1
 392 810 l 1
 562 967 l 1
 646 920 l 1
EndSplineSet
EndChar

StartChar: cacute
Encoding: 263 263 253
Width: 469
VWidth: 0
Flags: HMW
LayerCount: 2
Fore
SplineSet
149 230 m 0
 137 153 180 86 260 84 c 0
 326 83 385 118 421 160 c 1
 403 42 l 1
 363 10 308 -10 246 -10 c 0
 108 -10 21 98 40 230 c 0
 60 366 178 470 320 470 c 0
 379 470 430 450 466 418 c 1
 447 299 l 1
 425 347 376 376 316 376 c 0
 234 376 163 310 149 230 c 0
487 678 m 1
 288 531 l 1
 232 567 l 1
 402 724 l 1
 487 678 l 1
EndSplineSet
EndChar

StartChar: Ccircumflex
Encoding: 264 264 254
Width: 670
VWidth: 0
Flags: HMW
LayerCount: 2
Fore
SplineSet
194 350 m 0
 174 220 248 106 380 104 c 0
 475 103 552 148 612 202 c 1
 591 62 l 1
 527 16 457 -12 364 -12 c 0
 160 -11 40 156 68 350 c 0
 99 553 272 712 480 712 c 0
 568 712 632 688 688 638 c 1
 666 497 l 1
 624 557 560 596 472 596 c 0
 338 596 217 488 194 350 c 0
512 863 m 1
 398 772 l 1
 332 827 l 1
 524 965 l 1
 674 824 l 1
 596 772 l 1
 512 863 l 1
EndSplineSet
EndChar

StartChar: ccircumflex
Encoding: 265 265 255
Width: 469
VWidth: 0
Flags: HMW
LayerCount: 2
Fore
SplineSet
149 230 m 0
 137 153 180 86 260 84 c 0
 326 83 385 118 421 160 c 1
 403 42 l 1
 363 10 308 -10 246 -10 c 0
 108 -10 21 98 40 230 c 0
 60 366 178 470 320 470 c 0
 379 470 430 450 466 418 c 1
 447 299 l 1
 425 347 376 376 316 376 c 0
 234 376 163 310 149 230 c 0
341 620 m 1
 225 530 l 1
 161 585 l 1
 352 723 l 1
 502 582 l 1
 424 530 l 1
 341 620 l 1
EndSplineSet
EndChar

StartChar: Cdotaccent
Encoding: 266 266 256
Width: 670
VWidth: 0
Flags: HMW
LayerCount: 2
Fore
SplineSet
194 350 m 0
 174 220 248 106 380 104 c 0
 475 103 552 148 612 202 c 1
 591 62 l 1
 527 16 457 -12 364 -12 c 0
 160 -11 40 156 68 350 c 0
 99 553 272 712 480 712 c 0
 568 712 632 688 688 638 c 1
 666 497 l 1
 624 557 560 596 472 596 c 0
 338 596 217 488 194 350 c 0
429 840 m 0
 433 874 470 905 505 904 c 0
 541 903 566 872 562 837 c 0
 558 803 521 771 486 772 c 0
 450 773 425 805 429 840 c 0
EndSplineSet
EndChar

StartChar: cdotaccent
Encoding: 267 267 257
Width: 469
VWidth: 0
Flags: HMW
LayerCount: 2
Fore
SplineSet
149 230 m 0
 137 153 180 86 260 84 c 0
 326 83 385 118 421 160 c 1
 403 42 l 1
 363 10 308 -10 246 -10 c 0
 108 -10 21 98 40 230 c 0
 60 366 178 470 320 470 c 0
 379 470 430 450 466 418 c 1
 447 299 l 1
 425 347 376 376 316 376 c 0
 234 376 163 310 149 230 c 0
270 600 m 0
 274 634 311 665 346 664 c 0
 382 663 407 633 403 598 c 0
 399 564 362 533 327 534 c 0
 291 535 266 565 270 600 c 0
EndSplineSet
EndChar

StartChar: Ccaron
Encoding: 268 268 258
Width: 670
VWidth: 0
Flags: HMW
LayerCount: 2
Fore
SplineSet
194 350 m 0
 174 220 248 106 380 104 c 0
 475 103 552 148 612 202 c 1
 591 62 l 1
 527 16 457 -12 364 -12 c 0
 160 -11 40 156 68 350 c 0
 99 553 272 712 480 712 c 0
 568 712 632 688 688 638 c 1
 666 497 l 1
 624 557 560 596 472 596 c 0
 338 596 217 488 194 350 c 0
508 874 m 1
 624 964 l 1
 688 910 l 1
 496 772 l 1
 348 914 l 1
 425 965 l 1
 508 874 l 1
EndSplineSet
EndChar

StartChar: ccaron
Encoding: 269 269 259
Width: 469
VWidth: 0
Flags: HMW
LayerCount: 2
Fore
SplineSet
149 230 m 0
 137 153 180 86 260 84 c 0
 326 83 385 118 421 160 c 1
 403 42 l 1
 363 10 308 -10 246 -10 c 0
 108 -10 21 98 40 230 c 0
 60 366 178 470 320 470 c 0
 379 470 430 450 466 418 c 1
 447 299 l 1
 425 347 376 376 316 376 c 0
 234 376 163 310 149 230 c 0
337 632 m 1
 452 722 l 1
 516 668 l 1
 325 530 l 1
 176 672 l 1
 253 723 l 1
 337 632 l 1
EndSplineSet
EndChar

StartChar: Dcaron
Encoding: 270 270 260
Width: 680
VWidth: 0
Flags: HMW
LayerCount: 2
Fore
SplineSet
166 700 m 1
 287 700 l 1
 166 0 l 1
 48 0 l 1
 166 700 l 1
272 0 m 1
 118 0 l 1
 138 111 l 1
 280 111 l 1
 421 114 534 204 558 350 c 0
 580 490 507 585 369 589 c 1
 218 589 l 1
 238 700 l 1
 384 700 l 1
 590 696 708 546 678 350 c 0
 646 146 483 3 272 0 c 1
457 874 m 1
 572 964 l 1
 637 910 l 1
 446 772 l 1
 296 914 l 1
 373 965 l 1
 457 874 l 1
EndSplineSet
EndChar

StartChar: dcaron
Encoding: 271 271 261
Width: 570
VWidth: 0
Flags: HMW
LayerCount: 2
Fore
SplineSet
508 780 m 1
 616 780 l 1
 482 0 l 1
 375 0 l 1
 508 780 l 1
44 230 m 0
 63 366 173 471 300 470 c 0
 424 469 470 354 454 230 c 0
 436 99 348 -10 226 -10 c 0
 99 -10 26 100 44 230 c 0
154 230 m 0
 142 152 182 84 260 84 c 0
 331 84 401 148 414 230 c 0
 424 307 386 374 316 376 c 0
 238 378 167 312 154 230 c 0
727 779 m 1
 831 747 l 1
 676 500 l 1
 598 522 l 1
 727 779 l 1
EndSplineSet
EndChar

StartChar: Dcroat
Encoding: 272 272 262
Width: 680
VWidth: 0
Flags: HMW
LayerCount: 2
Fore
SplineSet
30 306 m 1
 44 390 l 1
 354 390 l 1
 340 305 l 1
 30 306 l 1
166 700 m 1
 287 700 l 1
 166 0 l 1
 48 0 l 1
 166 700 l 1
272 0 m 1
 118 0 l 1
 138 111 l 1
 280 111 l 1
 421 114 534 204 558 350 c 0
 580 490 507 585 369 589 c 1
 218 589 l 1
 238 700 l 1
 384 700 l 1
 590 696 708 546 678 350 c 0
 646 146 483 3 272 0 c 1
EndSplineSet
EndChar

StartChar: dcroat
Encoding: 273 273 263
Width: 570
VWidth: 0
Flags: HMW
LayerCount: 2
Fore
SplineSet
358 580 m 1
 372 665 l 1
 688 665 l 1
 672 580 l 1
 358 580 l 1
508 780 m 1
 616 780 l 1
 482 0 l 1
 375 0 l 1
 508 780 l 1
44 230 m 0
 63 366 173 471 300 470 c 0
 424 469 470 354 454 230 c 0
 436 99 348 -10 226 -10 c 0
 99 -10 26 100 44 230 c 0
154 230 m 0
 142 152 182 84 260 84 c 0
 331 84 401 148 414 230 c 0
 424 307 386 374 316 376 c 0
 238 378 167 312 154 230 c 0
EndSplineSet
EndChar

StartChar: Emacron
Encoding: 274 274 264
Width: 554
VWidth: 0
Flags: HMW
LayerCount: 2
Fore
SplineSet
119 0 m 1
 136 104 l 1
 482 104 l 1
 464 0 l 1
 119 0 l 1
221 596 m 1
 238 700 l 1
 583 700 l 1
 565 596 l 1
 221 596 l 1
174 324 m 1
 192 426 l 1
 517 426 l 1
 499 324 l 1
 174 324 l 1
166 700 m 1
 282 700 l 1
 162 0 l 1
 48 0 l 1
 166 700 l 1
212 772 m 1
 229 870 l 1
 579 870 l 1
 562 772 l 1
 212 772 l 1
EndSplineSet
EndChar

StartChar: emacron
Encoding: 275 275 265
Width: 522
VWidth: 0
Flags: HMW
LayerCount: 2
Fore
SplineSet
104 206 m 1
 115 280 l 1
 394 280 l 1
 394 339 374 387 307 388 c 0
 232 390 175 330 159 258 c 1
 152 230 l 1
 140 148 169 82 249 80 c 0
 309 78 356 112 390 152 c 1
 478 113 l 1
 420 41 348 -11 236 -10 c 0
 97 -9 26 102 44 230 c 0
 46 247 50 263 56 279 c 0
 92 389 190 470 316 470 c 0
 456 470 519 367 503 235 c 0
 502 226 500 216 498 206 c 1
 104 206 l 1
155 530 m 1
 172 628 l 1
 522 628 l 1
 505 530 l 1
 155 530 l 1
EndSplineSet
EndChar

StartChar: Ebreve
Encoding: 276 276 266
Width: 554
VWidth: 0
Flags: HMW
LayerCount: 2
Fore
SplineSet
119 0 m 1
 136 104 l 1
 482 104 l 1
 464 0 l 1
 119 0 l 1
221 596 m 1
 238 700 l 1
 583 700 l 1
 565 596 l 1
 221 596 l 1
174 324 m 1
 192 426 l 1
 517 426 l 1
 499 324 l 1
 174 324 l 1
166 700 m 1
 282 700 l 1
 162 0 l 1
 48 0 l 1
 166 700 l 1
254 915 m 1
 334 914 l 1
 333 882 345 847 395 846 c 0
 447 845 473 882 485 914 c 1
 568 914 l 1
 550 838 488 772 390 772 c 0
 293 772 248 838 254 915 c 1
EndSplineSet
EndChar

StartChar: ebreve
Encoding: 277 277 267
Width: 522
VWidth: 0
Flags: HMW
LayerCount: 2
Fore
SplineSet
104 206 m 1
 115 280 l 1
 394 280 l 1
 394 339 374 387 307 388 c 0
 232 390 175 330 159 258 c 1
 152 230 l 1
 140 148 169 82 249 80 c 0
 309 78 356 112 390 152 c 1
 478 113 l 1
 420 41 348 -11 236 -10 c 0
 97 -9 26 102 44 230 c 0
 46 247 50 263 56 279 c 0
 92 389 190 470 316 470 c 0
 456 470 519 367 503 235 c 0
 502 226 500 216 498 206 c 1
 104 206 l 1
197 673 m 1
 276 672 l 1
 275 640 288 605 338 604 c 0
 390 603 416 640 428 672 c 1
 510 672 l 1
 492 596 430 530 332 530 c 0
 235 530 191 596 197 673 c 1
EndSplineSet
EndChar

StartChar: Edotaccent
Encoding: 278 278 268
Width: 554
VWidth: 0
Flags: HMW
LayerCount: 2
Fore
SplineSet
119 0 m 1
 136 104 l 1
 482 104 l 1
 464 0 l 1
 119 0 l 1
221 596 m 1
 238 700 l 1
 583 700 l 1
 565 596 l 1
 221 596 l 1
174 324 m 1
 192 426 l 1
 517 426 l 1
 499 324 l 1
 174 324 l 1
166 700 m 1
 282 700 l 1
 162 0 l 1
 48 0 l 1
 166 700 l 1
331 840 m 0
 335 874 371 905 406 904 c 0
 442 903 469 872 465 837 c 0
 461 803 423 771 388 772 c 0
 352 773 327 805 331 840 c 0
EndSplineSet
EndChar

StartChar: edotaccent
Encoding: 279 279 269
Width: 522
VWidth: 0
Flags: HMW
LayerCount: 2
Fore
SplineSet
104 206 m 1
 115 280 l 1
 394 280 l 1
 394 339 374 387 307 388 c 0
 232 390 175 330 159 258 c 1
 152 230 l 1
 140 148 169 82 249 80 c 0
 309 78 356 112 390 152 c 1
 478 113 l 1
 420 41 348 -11 236 -10 c 0
 97 -9 26 102 44 230 c 0
 46 247 50 263 56 279 c 0
 92 389 190 470 316 470 c 0
 456 470 519 367 503 235 c 0
 502 226 500 216 498 206 c 1
 104 206 l 1
274 597 m 0
 278 631 315 663 350 662 c 0
 386 661 412 630 408 595 c 0
 404 561 366 529 331 530 c 0
 295 531 270 562 274 597 c 0
EndSplineSet
EndChar

StartChar: Eogonek
Encoding: 280 280 270
Width: 554
VWidth: 0
Flags: HMW
LayerCount: 2
Fore
SplineSet
119 0 m 1
 136 104 l 1
 482 104 l 1
 464 0 l 1
 119 0 l 1
221 596 m 1
 238 700 l 1
 583 700 l 1
 565 596 l 1
 221 596 l 1
174 324 m 1
 192 426 l 1
 517 426 l 1
 499 324 l 1
 174 324 l 1
166 700 m 1
 282 700 l 1
 162 0 l 1
 48 0 l 1
 166 700 l 1
318 -122 m 1
 342 -182 l 1
 320 -202 290 -220 248 -220 c 0
 180 -220 136 -181 144 -120 c 0
 155 -52 232 -9 298 24 c 1
 336 0 l 1
 290 -24 241 -56 234 -98 c 0
 232 -124 241 -140 266 -142 c 0
 287 -144 304 -132 318 -122 c 1
EndSplineSet
EndChar

StartChar: eogonek
Encoding: 281 281 271
Width: 522
VWidth: 0
Flags: HMW
LayerCount: 2
Fore
SplineSet
104 206 m 1
 115 280 l 1
 394 280 l 1
 394 339 374 387 307 388 c 0
 232 390 175 330 159 258 c 1
 152 230 l 1
 140 148 169 82 249 80 c 0
 309 78 356 112 390 152 c 1
 478 113 l 1
 420 41 348 -11 236 -10 c 0
 97 -9 26 102 44 230 c 0
 46 247 50 263 56 279 c 0
 92 389 190 470 316 470 c 0
 456 470 519 367 503 235 c 0
 502 226 500 216 498 206 c 1
 104 206 l 1
252 -120 m 1
 276 -178 l 1
 254 -198 223 -216 181 -216 c 0
 113 -216 70 -177 78 -116 c 0
 89 -48 165 -5 231 28 c 1
 270 0 l 1
 224 -22 175 -53 168 -95 c 0
 165 -121 175 -138 200 -140 c 0
 221 -142 238 -130 252 -120 c 1
EndSplineSet
EndChar

StartChar: Ecaron
Encoding: 282 282 272
Width: 554
VWidth: 0
Flags: HMW
LayerCount: 2
Fore
SplineSet
119 0 m 1
 136 104 l 1
 482 104 l 1
 464 0 l 1
 119 0 l 1
221 596 m 1
 238 700 l 1
 583 700 l 1
 565 596 l 1
 221 596 l 1
174 324 m 1
 192 426 l 1
 517 426 l 1
 499 324 l 1
 174 324 l 1
166 700 m 1
 282 700 l 1
 162 0 l 1
 48 0 l 1
 166 700 l 1
401 874 m 1
 516 964 l 1
 581 910 l 1
 389 772 l 1
 240 914 l 1
 317 965 l 1
 401 874 l 1
EndSplineSet
EndChar

StartChar: ecaron
Encoding: 283 283 273
Width: 522
VWidth: 0
Flags: HMW
LayerCount: 2
Fore
SplineSet
104 206 m 1
 115 280 l 1
 394 280 l 1
 394 339 374 387 307 388 c 0
 232 390 175 330 159 258 c 1
 152 230 l 1
 140 148 169 82 249 80 c 0
 309 78 356 112 390 152 c 1
 478 113 l 1
 420 41 348 -11 236 -10 c 0
 97 -9 26 102 44 230 c 0
 46 247 50 263 56 279 c 0
 92 389 190 470 316 470 c 0
 456 470 519 367 503 235 c 0
 502 226 500 216 498 206 c 1
 104 206 l 1
344 632 m 1
 459 722 l 1
 524 668 l 1
 332 530 l 1
 183 672 l 1
 260 723 l 1
 344 632 l 1
EndSplineSet
EndChar

StartChar: Gcircumflex
Encoding: 284 284 274
Width: 766
VWidth: 0
Flags: HMW
LayerCount: 2
Fore
SplineSet
416 266 m 1
 434 366 l 1
 760 366 l 1
 730 167 587 -15 366 -15 c 0
 158 -15 39 154 68 350 c 0
 100 555 273 712 485 712 c 0
 609 712 702 656 755 556 c 1
 652 492 l 1
 620 560 560 602 474 602 c 0
 334 602 215 492 191 350 c 0
 171 216 240 96 380 96 c 0
 502 96 582 174 626 266 c 1
 416 266 l 1
518 863 m 1
 402 772 l 1
 338 827 l 1
 529 965 l 1
 678 824 l 1
 602 772 l 1
 518 863 l 1
EndSplineSet
EndChar

StartChar: gcircumflex
Encoding: 285 285 275
Width: 568
VWidth: 0
Flags: HMW
LayerCount: 2
Fore
SplineSet
8 -31 m 1
 112 -32 l 1
 110 -94 145 -140 218 -140 c 0
 295 -141 361 -78 376 10 c 1
 454 460 l 1
 558 460 l 1
 482 10 l 2
 458 -138 347 -234 212 -234 c 0
 74 -234 0 -151 8 -31 c 1
44 232 m 0
 63 368 174 471 300 470 c 0
 424 469 470 356 454 232 c 0
 436 101 348 -4 226 -4 c 0
 100 -4 26 102 44 232 c 0
154 232 m 0
 142 154 182 90 260 90 c 0
 330 90 403 150 415 232 c 0
 425 309 385 374 316 376 c 0
 238 378 167 314 154 232 c 0
359 620 m 1
 244 530 l 1
 180 585 l 1
 370 723 l 1
 520 582 l 1
 442 530 l 1
 359 620 l 1
EndSplineSet
EndChar

StartChar: Gbreve
Encoding: 286 286 276
Width: 766
VWidth: 0
Flags: HMW
LayerCount: 2
Fore
SplineSet
416 266 m 1
 434 366 l 1
 760 366 l 1
 730 167 587 -15 366 -15 c 0
 158 -15 39 154 68 350 c 0
 100 555 273 712 485 712 c 0
 609 712 702 656 755 556 c 1
 652 492 l 1
 620 560 560 602 474 602 c 0
 334 602 215 492 191 350 c 0
 171 216 240 96 380 96 c 0
 502 96 582 174 626 266 c 1
 416 266 l 1
366 915 m 1
 446 914 l 1
 445 882 458 847 508 846 c 0
 560 845 585 882 597 914 c 1
 680 914 l 1
 662 838 600 772 502 772 c 0
 405 772 360 838 366 915 c 1
EndSplineSet
EndChar

StartChar: gbreve
Encoding: 287 287 277
Width: 568
VWidth: 0
Flags: HMW
LayerCount: 2
Fore
SplineSet
8 -31 m 1
 112 -32 l 1
 110 -94 145 -140 218 -140 c 0
 295 -141 361 -78 376 10 c 1
 454 460 l 1
 558 460 l 1
 482 10 l 2
 458 -138 347 -234 212 -234 c 0
 74 -234 0 -151 8 -31 c 1
44 232 m 0
 63 368 174 471 300 470 c 0
 424 469 470 356 454 232 c 0
 436 101 348 -4 226 -4 c 0
 100 -4 26 102 44 232 c 0
154 232 m 0
 142 154 182 90 260 90 c 0
 330 90 403 150 415 232 c 0
 425 309 385 374 316 376 c 0
 238 378 167 314 154 232 c 0
208 673 m 1
 288 672 l 1
 287 640 300 605 350 604 c 0
 402 603 426 640 438 672 c 1
 521 672 l 1
 503 596 442 530 344 530 c 0
 247 530 202 596 208 673 c 1
EndSplineSet
EndChar

StartChar: Gdotaccent
Encoding: 288 288 278
Width: 766
VWidth: 0
Flags: HMW
LayerCount: 2
Fore
SplineSet
416 266 m 1
 434 366 l 1
 760 366 l 1
 730 167 587 -15 366 -15 c 0
 158 -15 39 154 68 350 c 0
 100 555 273 712 485 712 c 0
 609 712 702 656 755 556 c 1
 652 492 l 1
 620 560 560 602 474 602 c 0
 334 602 215 492 191 350 c 0
 171 216 240 96 380 96 c 0
 502 96 582 174 626 266 c 1
 416 266 l 1
443 840 m 0
 447 874 484 905 519 904 c 0
 555 903 581 872 577 837 c 0
 573 803 536 771 501 772 c 0
 465 773 439 805 443 840 c 0
EndSplineSet
EndChar

StartChar: gdotaccent
Encoding: 289 289 279
Width: 568
VWidth: 0
Flags: HMW
LayerCount: 2
Fore
SplineSet
8 -31 m 1
 112 -32 l 1
 110 -94 145 -140 218 -140 c 0
 295 -141 361 -78 376 10 c 1
 454 460 l 1
 558 460 l 1
 482 10 l 2
 458 -138 347 -234 212 -234 c 0
 74 -234 0 -151 8 -31 c 1
44 232 m 0
 63 368 174 471 300 470 c 0
 424 469 470 356 454 232 c 0
 436 101 348 -4 226 -4 c 0
 100 -4 26 102 44 232 c 0
154 232 m 0
 142 154 182 90 260 90 c 0
 330 90 403 150 415 232 c 0
 425 309 385 374 316 376 c 0
 238 378 167 314 154 232 c 0
298 627 m 0
 302 661 339 693 374 692 c 0
 410 691 434 660 430 625 c 0
 426 591 390 559 355 560 c 0
 319 561 294 592 298 627 c 0
EndSplineSet
EndChar

StartChar: uni0122
Encoding: 290 290 280
Width: 766
VWidth: 0
Flags: HMW
LayerCount: 2
Fore
SplineSet
416 266 m 1
 434 366 l 1
 760 366 l 1
 730 167 587 -15 366 -15 c 0
 158 -15 39 154 68 350 c 0
 100 555 273 712 485 712 c 0
 609 712 702 656 755 556 c 1
 652 492 l 1
 620 560 560 602 474 602 c 0
 334 602 215 492 191 350 c 0
 171 216 240 96 380 96 c 0
 502 96 582 174 626 266 c 1
 416 266 l 1
328 -76 m 1
 432 -108 l 1
 276 -355 l 1
 198 -332 l 1
 328 -76 l 1
EndSplineSet
EndChar

StartChar: Hcircumflex
Encoding: 292 292 281
Width: 720
VWidth: 0
Flags: HMW
LayerCount: 2
Fore
SplineSet
148 322 m 1
 166 430 l 1
 654 430 l 1
 636 321 l 1
 148 322 l 1
622 700 m 1
 741 700 l 1
 620 0 l 1
 504 0 l 1
 622 700 l 1
166 700 m 1
 284 700 l 1
 164 0 l 1
 48 0 l 1
 166 700 l 1
484 863 m 1
 369 772 l 1
 304 827 l 1
 496 965 l 1
 645 824 l 1
 568 772 l 1
 484 863 l 1
EndSplineSet
EndChar

StartChar: hcircumflex
Encoding: 293 293 282
Width: 525
VWidth: 0
Flags: HMW
LayerCount: 2
Fore
SplineSet
280 780 m 1
 146 0 l 1
 38 0 l 1
 172 780 l 1
 280 780 l 1
376 280 m 1
 382 334 371 380 313 382 c 0
 251 384 208 335 194 281 c 1
 160 281 l 1
 180 381 250 472 356 472 c 0
 460 472 496 395 484 295 c 1
 433 0 l 1
 326 0 l 1
 376 280 l 1
277 930 m 1
 162 840 l 1
 97 894 l 1
 288 1032 l 1
 438 890 l 1
 361 840 l 1
 277 930 l 1
EndSplineSet
EndChar

StartChar: Itilde
Encoding: 296 296 283
Width: 266
VWidth: 0
Flags: HMW
LayerCount: 2
Fore
SplineSet
166 700 m 1
 286 700 l 1
 164 0 l 1
 48 0 l 1
 166 700 l 1
74 822 m 1
 94 866 138 910 192 908 c 0
 245 907 262 858 310 860 c 0
 336 861 358 883 378 908 c 1
 426 852 l 1
 402 816 355 774 301 776 c 0
 253 778 229 826 185 824 c 0
 150 822 136 792 128 774 c 1
 74 822 l 1
EndSplineSet
EndChar

StartChar: itilde
Encoding: 297 297 284
Width: 258
VWidth: 0
Flags: HMW
LayerCount: 2
Fore
SplineSet
127 460 m 1
 234 460 l 1
 154 0 l 1
 50 0 l 1
 127 460 l 1
28 580 m 1
 48 624 93 668 147 666 c 0
 200 665 216 616 264 618 c 0
 290 619 312 641 332 666 c 1
 380 610 l 1
 356 574 308 532 254 534 c 0
 206 536 183 584 139 582 c 0
 104 580 90 550 82 532 c 1
 28 580 l 1
EndSplineSet
EndChar

StartChar: Imacron
Encoding: 298 298 285
Width: 266
VWidth: 0
Flags: HMW
LayerCount: 2
Fore
SplineSet
166 700 m 1
 286 700 l 1
 164 0 l 1
 48 0 l 1
 166 700 l 1
64 772 m 1
 80 870 l 1
 431 870 l 1
 414 772 l 1
 64 772 l 1
EndSplineSet
EndChar

StartChar: imacron
Encoding: 299 299 286
Width: 258
VWidth: 0
Flags: HMW
LayerCount: 2
Fore
SplineSet
127 460 m 1
 234 460 l 1
 154 0 l 1
 50 0 l 1
 127 460 l 1
18 530 m 1
 35 628 l 1
 385 628 l 1
 368 530 l 1
 18 530 l 1
EndSplineSet
EndChar

StartChar: Ibreve
Encoding: 300 300 287
Width: 266
VWidth: 0
Flags: HMW
LayerCount: 2
Fore
SplineSet
166 700 m 1
 286 700 l 1
 164 0 l 1
 48 0 l 1
 166 700 l 1
106 915 m 1
 186 914 l 1
 185 882 198 847 248 846 c 0
 300 845 325 882 337 914 c 1
 419 914 l 1
 401 838 340 772 242 772 c 0
 145 772 100 838 106 915 c 1
EndSplineSet
EndChar

StartChar: ibreve
Encoding: 301 301 288
Width: 258
VWidth: 0
Flags: HMW
LayerCount: 2
Fore
SplineSet
127 460 m 1
 234 460 l 1
 154 0 l 1
 50 0 l 1
 127 460 l 1
60 673 m 1
 140 672 l 1
 139 640 151 605 201 604 c 0
 253 603 278 640 290 672 c 1
 373 672 l 1
 355 596 294 530 196 530 c 0
 99 530 54 596 60 673 c 1
EndSplineSet
EndChar

StartChar: Iogonek
Encoding: 302 302 289
Width: 266
VWidth: 0
Flags: HMW
LayerCount: 2
Fore
SplineSet
166 700 m 1
 286 700 l 1
 164 0 l 1
 48 0 l 1
 166 700 l 1
137 -122 m 1
 162 -180 l 1
 140 -200 108 -219 66 -219 c 0
 -2 -219 -45 -179 -37 -118 c 0
 -27 -50 50 -7 116 26 c 1
 156 0 l 1
 110 -23 59 -55 52 -97 c 0
 49 -123 59 -140 84 -142 c 0
 105 -144 123 -132 137 -122 c 1
EndSplineSet
EndChar

StartChar: iogonek
Encoding: 303 303 290
Width: 258
VWidth: 0
Flags: HMW
LayerCount: 2
Fore
SplineSet
145 644 m 0
 149 678 186 709 221 708 c 0
 257 707 283 677 279 642 c 0
 275 608 237 577 202 578 c 0
 166 579 141 609 145 644 c 0
127 460 m 1
 234 460 l 1
 154 0 l 1
 50 0 l 1
 127 460 l 1
126 -122 m 1
 150 -182 l 1
 128 -202 98 -220 56 -220 c 0
 -12 -220 -56 -181 -48 -120 c 0
 -37 -52 40 -9 106 24 c 1
 144 0 l 1
 98 -24 49 -56 42 -98 c 0
 40 -124 49 -140 74 -142 c 0
 95 -144 112 -132 126 -122 c 1
EndSplineSet
EndChar

StartChar: Idotaccent
Encoding: 304 304 291
Width: 266
VWidth: 0
Flags: HMW
LayerCount: 2
Fore
SplineSet
166 700 m 1
 286 700 l 1
 164 0 l 1
 48 0 l 1
 166 700 l 1
182 840 m 0
 186 874 223 905 258 904 c 0
 294 903 320 872 316 837 c 0
 312 803 275 771 240 772 c 0
 204 773 178 805 182 840 c 0
EndSplineSet
EndChar

StartChar: uni0136
Encoding: 310 310 292
Width: 600
VWidth: 0
Flags: HMW
LayerCount: 2
Fore
SplineSet
166 700 m 1
 287 700 l 1
 166 0 l 1
 48 0 l 1
 166 700 l 1
534 700 m 1
 679 700 l 1
 332 370 l 1
 570 0 l 1
 432 0 l 1
 194 372 l 1
 534 700 l 1
277 -61 m 1
 382 -93 l 1
 226 -340 l 1
 148 -318 l 1
 277 -61 l 1
EndSplineSet
EndChar

StartChar: uni0137
Encoding: 311 311 293
Width: 479
VWidth: 0
Flags: HMW
LayerCount: 2
Fore
SplineSet
168 780 m 1
 274 780 l 1
 140 0 l 1
 36 0 l 1
 168 780 l 1
378 460 m 1
 514 460 l 1
 284 268 l 1
 449 0 l 1
 325 0 l 1
 156 273 l 1
 378 460 l 1
211 -61 m 1
 316 -93 l 1
 160 -340 l 1
 82 -318 l 1
 211 -61 l 1
EndSplineSet
EndChar

StartChar: Lacute
Encoding: 313 313 294
Width: 466
VWidth: 0
Flags: HMW
LayerCount: 2
Fore
SplineSet
167 700 m 1
 284 700 l 1
 182 106 l 1
 452 106 l 1
 434 0 l 1
 47 0 l 1
 167 700 l 1
537 920 m 1
 338 773 l 1
 282 810 l 1
 452 967 l 1
 537 920 l 1
EndSplineSet
EndChar

StartChar: lacute
Encoding: 314 314 295
Width: 238
VWidth: 0
Flags: HMW
LayerCount: 2
Fore
SplineSet
172 780 m 1
 280 780 l 1
 145 0 l 1
 40 0 l 1
 172 780 l 1
401 988 m 1
 202 841 l 1
 145 877 l 1
 316 1034 l 1
 401 988 l 1
EndSplineSet
EndChar

StartChar: uni013B
Encoding: 315 315 296
Width: 466
VWidth: 0
Flags: HMW
LayerCount: 2
Fore
SplineSet
167 700 m 1
 284 700 l 1
 182 106 l 1
 452 106 l 1
 434 0 l 1
 47 0 l 1
 167 700 l 1
218 -61 m 1
 322 -93 l 1
 167 -340 l 1
 88 -318 l 1
 218 -61 l 1
EndSplineSet
EndChar

StartChar: uni013C
Encoding: 316 316 297
Width: 238
VWidth: 0
Flags: HMW
LayerCount: 2
Fore
SplineSet
172 780 m 1
 280 780 l 1
 145 0 l 1
 40 0 l 1
 172 780 l 1
70 -61 m 1
 174 -93 l 1
 18 -340 l 1
 -59 -318 l 1
 70 -61 l 1
EndSplineSet
EndChar

StartChar: Lcaron
Encoding: 317 317 298
Width: 466
VWidth: 0
Flags: HMW
LayerCount: 2
Fore
SplineSet
167 700 m 1
 284 700 l 1
 182 106 l 1
 452 106 l 1
 434 0 l 1
 47 0 l 1
 167 700 l 1
444 711 m 1
 548 680 l 1
 392 433 l 1
 315 454 l 1
 444 711 l 1
EndSplineSet
EndChar

StartChar: lcaron
Encoding: 318 318 299
Width: 238
VWidth: 0
Flags: HMW
LayerCount: 2
Fore
SplineSet
172 780 m 1
 280 780 l 1
 145 0 l 1
 40 0 l 1
 172 780 l 1
410 779 m 1
 514 747 l 1
 359 500 l 1
 280 522 l 1
 410 779 l 1
EndSplineSet
EndChar

StartChar: Ldot
Encoding: 319 319 300
Width: 466
VWidth: 0
Flags: HMW
LayerCount: 2
Fore
SplineSet
167 700 m 1
 284 700 l 1
 182 106 l 1
 452 106 l 1
 434 0 l 1
 47 0 l 1
 167 700 l 1
318 422 m 0
 322 458 359 491 397 490 c 0
 435 489 461 456 457 420 c 0
 453 384 416 351 378 352 c 0
 340 353 314 386 318 422 c 0
EndSplineSet
EndChar

StartChar: ldot
Encoding: 320 320 301
Width: 400
VWidth: 0
Flags: HMW
LayerCount: 2
Fore
SplineSet
172 780 m 1
 280 780 l 1
 145 0 l 1
 40 0 l 1
 172 780 l 1
266 414 m 0
 270 450 308 483 346 482 c 0
 384 481 408 448 404 412 c 0
 400 376 364 341 326 342 c 0
 288 343 262 378 266 414 c 0
EndSplineSet
EndChar

StartChar: eth
Encoding: 240 240 302
Width: 596
VWidth: 0
Flags: HMW
LayerCount: 2
Fore
SplineSet
276 -12 m 0
 143 -12 51 74 51 208 c 0
 51 354 173 463 299 463 c 0
 368 463 423 432 481 369 c 1
 440 370 l 1
 396 490 329 577 206 675 c 1
 280 739 l 1
 480 555 555 420 555 276 c 0
 555 126 446 -12 276 -12 c 0
280 88 m 0
 374 88 439 169 439 252 c 0
 439 330 392 376 324 376 c 0
 242 376 164 302 164 210 c 0
 164 137 211 88 280 88 c 0
220 505 m 1
 203 555 l 1
 510 664 l 1
 528 614 l 1
 220 505 l 1
EndSplineSet
EndChar

StartChar: racute
Encoding: 341 341 303
Width: 359
VWidth: 0
Flags: HMW
LayerCount: 2
Fore
SplineSet
224 460 m 1
 144 0 l 1
 38 0 l 1
 118 460 l 1
 224 460 l 1
338 344 m 1
 321 358 307 369 284 369 c 0
 227 370 200 316 189 260 c 1
 156 281 l 1
 172 375 239 470 323 470 c 0
 355 470 381 456 403 434 c 1
 338 344 l 1
438 678 m 1
 240 530 l 1
 184 568 l 1
 355 725 l 1
 438 678 l 1
EndSplineSet
EndChar

StartChar: rcaron
Encoding: 345 345 304
Width: 359
VWidth: 0
Flags: HMW
LayerCount: 2
Fore
SplineSet
224 460 m 1
 144 0 l 1
 38 0 l 1
 118 460 l 1
 224 460 l 1
338 344 m 1
 321 358 307 369 284 369 c 0
 227 370 200 316 189 260 c 1
 156 281 l 1
 172 375 239 470 323 470 c 0
 355 470 381 456 403 434 c 1
 338 344 l 1
288 632 m 1
 404 722 l 1
 468 668 l 1
 276 530 l 1
 128 672 l 1
 204 723 l 1
 288 632 l 1
EndSplineSet
EndChar

StartChar: Rcaron
Encoding: 344 344 305
Width: 576
VWidth: 0
Flags: HMW
LayerCount: 2
Fore
SplineSet
246 334 m 1
 368 334 l 1
 542 0 l 1
 406 0 l 1
 246 334 l 1
166 700 m 1
 284 700 l 1
 164 0 l 1
 48 0 l 1
 166 700 l 1
218 598 m 1
 236 700 l 1
 374 700 l 1
 513 698 606 612 586 482 c 0
 566 350 451 267 307 265 c 1
 160 265 l 1
 178 363 l 1
 312 363 l 1
 390 365 453 406 466 480 c 0
 478 551 432 594 358 596 c 1
 218 598 l 1
389 874 m 1
 504 964 l 1
 568 910 l 1
 377 772 l 1
 228 914 l 1
 306 965 l 1
 389 874 l 1
EndSplineSet
EndChar

StartChar: uni0213
Encoding: 531 531 306
Width: 359
VWidth: 0
Flags: HMW
LayerCount: 2
Fore
SplineSet
224 460 m 1
 144 0 l 1
 38 0 l 1
 118 460 l 1
 224 460 l 1
338 344 m 1
 321 358 307 369 284 369 c 0
 227 370 200 316 189 260 c 1
 156 281 l 1
 172 375 239 470 323 470 c 0
 355 470 381 456 403 434 c 1
 338 344 l 1
118 530 m 1
 199 530 l 1
 211 562 235 598 287 598 c 0
 339 598 353 564 353 530 c 1
 428 530 l 1
 437 605 398 671 302 672 c 0
 202 673 140 606 118 530 c 1
EndSplineSet
EndChar

StartChar: uni0212
Encoding: 530 530 307
Width: 576
VWidth: 0
Flags: HMW
LayerCount: 2
Fore
SplineSet
246 334 m 1
 368 334 l 1
 542 0 l 1
 406 0 l 1
 246 334 l 1
166 700 m 1
 284 700 l 1
 164 0 l 1
 48 0 l 1
 166 700 l 1
218 598 m 1
 236 700 l 1
 374 700 l 1
 513 698 606 612 586 482 c 0
 566 350 451 267 307 265 c 1
 160 265 l 1
 178 363 l 1
 312 363 l 1
 390 365 453 406 466 480 c 0
 478 551 432 594 358 596 c 1
 218 598 l 1
235 772 m 1
 316 772 l 1
 328 804 352 840 404 840 c 0
 456 840 470 806 470 772 c 1
 546 772 l 1
 555 847 516 913 420 914 c 0
 320 915 257 848 235 772 c 1
EndSplineSet
EndChar

StartChar: OE
Encoding: 338 338 308
Width: 955
VWidth: 0
Flags: HMW
LayerCount: 2
Fore
SplineSet
573 324 m 1
 591 426 l 1
 930 426 l 1
 912 324 l 1
 573 324 l 1
574 670 m 1
 690 670 l 1
 578 30 l 1
 466 30 l 1
 574 670 l 1
892 104 m 1
 876 0 l 1
 356 0 l 1
 156 4 40 158 68 350 c 0
 99 550 262 697 466 700 c 1
 996 700 l 1
 976 596 l 1
 630 596 l 1
 612 592 l 1
 468 592 l 1
 320 589 212 493 188 350 c 0
 166 214 234 112 378 108 c 1
 520 108 l 1
 542 104 l 1
 892 104 l 1
EndSplineSet
EndChar

StartChar: oe
Encoding: 339 339 309
Width: 873
VWidth: 0
Flags: HMW
LayerCount: 2
Fore
SplineSet
744 250 m 2
 753 318 737 385 660 387 c 0
 586 389 526 332 511 260 c 1
 504 230 l 1
 492 150 518 80 600 78 c 0
 660 77 706 112 742 152 c 1
 828 113 l 1
 774 45 698 -10 602 -10 c 0
 474 -9 412 107 428 230 c 0
 430 247 434 263 440 279 c 0
 474 386 570 471 688 470 c 0
 808 469 868 358 854 234 c 0
 853 225 850 215 848 206 c 1
 740 230 l 1
 744 250 l 2
475 206 m 1
 486 279 l 1
 840 279 l 1
 848 205 l 1
 475 206 l 1
45 230 m 0
 65 366 174 470 304 470 c 0
 434 470 482 357 466 230 c 0
 447 97 359 -10 230 -10 c 0
 100 -10 27 100 45 230 c 0
152 230 m 0
 140 152 178 86 256 86 c 0
 328 86 390 149 402 230 c 0
 412 306 383 372 312 374 c 0
 234 376 165 313 152 230 c 0
EndSplineSet
EndChar

StartChar: a.alt
Encoding: 65536 -1 310
Width: 491
VWidth: 0
Flags: HMW
LayerCount: 2
Fore
SplineSet
129 139 m 0
 123 97 156 73 198 72 c 0
 267 70 318 118 336 182 c 1
 344 125 l 1
 324 41 245 -10 158 -10 c 0
 74 -10 9 47 21 135 c 0
 36 229 122 282 228 282 c 0
 301 282 349 256 377 226 c 1
 368 170 l 1
 331 198 291 212 243 212 c 0
 183 212 136 187 129 139 c 0
137 339 m 1
 106 417 l 1
 157 444 221 471 298 471 c 0
 398 471 479 420 465 328 c 1
 409 0 l 1
 304 0 l 1
 360 312 l 1
 366 360 332 380 282 382 c 0
 223 384 170 357 137 339 c 1
EndSplineSet
EndChar

StartChar: Jcircumflex
Encoding: 308 308 312
Width: 267
VWidth: 0
Flags: HMW
LayerCount: 2
Fore
SplineSet
-112 -88 m 1
 -96 -108 -72 -123 -41 -122 c 0
 -3 -120 33 -88 41 -36 c 1
 167 700 l 1
 287 700 l 1
 158 -58 l 2
 140 -166 58 -229 -48 -228 c 0
 -105 -228 -154 -202 -186 -174 c 1
 -112 -88 l 1
257 863 m 1
 142 772 l 1
 77 827 l 1
 268 965 l 1
 418 824 l 1
 341 772 l 1
 257 863 l 1
EndSplineSet
EndChar

StartChar: jcircumflex
Encoding: 309 309 313
Width: 250
VWidth: 0
Flags: HMW
LayerCount: 2
Fore
SplineSet
-69 -100 m 1
 -57 -116 -46 -126 -28 -126 c 0
 7 -126 28 -88 34 -44 c 1
 120 460 l 1
 226 460 l 1
 137 -66 l 2
 122 -160 62 -230 -34 -228 c 0
 -80 -228 -109 -206 -131 -182 c 1
 -69 -100 l 1
204 620 m 1
 88 530 l 1
 24 585 l 1
 216 723 l 1
 364 582 l 1
 288 530 l 1
 204 620 l 1
EndSplineSet
EndChar

StartChar: Nacute
Encoding: 323 323 314
Width: 758
VWidth: 0
Flags: HMW
LayerCount: 2
Fore
SplineSet
664 700 m 1
 778 700 l 1
 652 -34 l 1
 243 471 l 1
 162 0 l 1
 47 0 l 1
 172 734 l 1
 582 229 l 1
 664 700 l 1
667 904 m 1
 469 758 l 1
 412 794 l 1
 583 952 l 1
 667 904 l 1
EndSplineSet
EndChar

StartChar: nacute
Encoding: 324 324 315
Width: 528
VWidth: 0
Flags: HMW
LayerCount: 2
Fore
SplineSet
225 460 m 1
 146 0 l 1
 38 0 l 1
 118 460 l 1
 225 460 l 1
376 280 m 1
 382 334 371 380 313 382 c 0
 251 384 208 335 194 281 c 1
 166 279 l 1
 184 379 250 470 356 470 c 0
 460 470 498 393 486 292 c 1
 436 0 l 1
 326 0 l 1
 376 280 l 1
499 678 m 1
 301 530 l 1
 245 567 l 1
 416 724 l 1
 499 678 l 1
EndSplineSet
EndChar

StartChar: uni0145
Encoding: 325 325 316
Width: 758
VWidth: 0
Flags: HMW
LayerCount: 2
Fore
SplineSet
337 -44 m 1
 441 -75 l 1
 286 -322 l 1
 208 -300 l 1
 337 -44 l 1
664 700 m 1
 778 700 l 1
 652 -34 l 1
 243 471 l 1
 162 0 l 1
 47 0 l 1
 172 734 l 1
 582 229 l 1
 664 700 l 1
EndSplineSet
EndChar

StartChar: uni0146
Encoding: 326 326 317
Width: 528
VWidth: 0
Flags: HMW
LayerCount: 2
Fore
SplineSet
225 460 m 1
 146 0 l 1
 38 0 l 1
 118 460 l 1
 225 460 l 1
376 280 m 1
 382 334 371 380 313 382 c 0
 251 384 208 335 194 281 c 1
 160 279 l 1
 180 379 250 470 356 470 c 0
 460 470 498 393 486 292 c 1
 436 0 l 1
 326 0 l 1
 376 280 l 1
214 -61 m 1
 319 -93 l 1
 164 -340 l 1
 86 -318 l 1
 214 -61 l 1
EndSplineSet
EndChar

StartChar: Ncaron
Encoding: 327 327 318
Width: 758
VWidth: 0
Flags: HMW
LayerCount: 2
Fore
SplineSet
500 890 m 1
 616 980 l 1
 680 926 l 1
 488 787 l 1
 339 929 l 1
 416 980 l 1
 500 890 l 1
664 700 m 1
 778 700 l 1
 652 -34 l 1
 243 471 l 1
 162 0 l 1
 47 0 l 1
 172 734 l 1
 582 229 l 1
 664 700 l 1
EndSplineSet
EndChar

StartChar: ncaron
Encoding: 328 328 319
Width: 528
VWidth: 0
Flags: HMW
LayerCount: 2
Fore
SplineSet
225 460 m 1
 146 0 l 1
 38 0 l 1
 118 460 l 1
 225 460 l 1
376 280 m 1
 382 334 371 380 313 382 c 0
 251 384 208 335 194 281 c 1
 160 279 l 1
 180 379 250 470 356 470 c 0
 460 470 498 393 486 292 c 1
 436 0 l 1
 326 0 l 1
 376 280 l 1
342 632 m 1
 457 722 l 1
 522 668 l 1
 330 530 l 1
 181 672 l 1
 258 723 l 1
 342 632 l 1
EndSplineSet
EndChar

StartChar: Omacron
Encoding: 332 332 320
Width: 778
VWidth: 0
Flags: HMW
LayerCount: 2
Fore
SplineSet
192 350 m 0
 172 222 237 103 376 102 c 0
 517 101 629 215 652 350 c 0
 672 478 608 597 468 598 c 0
 327 599 215 485 192 350 c 0
68 350 m 0
 99 550 272 712 480 712 c 0
 686 712 804 543 776 350 c 0
 745 149 574 -15 364 -15 c 0
 158 -15 40 157 68 350 c 0
320 772 m 1
 336 870 l 1
 686 870 l 1
 669 772 l 1
 320 772 l 1
EndSplineSet
EndChar

StartChar: omacron
Encoding: 333 333 321
Width: 546
VWidth: 0
Flags: HMW
LayerCount: 2
Fore
SplineSet
44 230 m 0
 64 365 183 470 323 470 c 0
 461 470 547 362 528 230 c 0
 508 95 388 -10 248 -10 c 0
 110 -10 25 98 44 230 c 0
153 230 m 0
 141 156 180 86 258 86 c 0
 338 86 405 151 418 230 c 0
 430 304 392 374 314 374 c 0
 234 374 166 309 153 230 c 0
162 530 m 1
 179 628 l 1
 529 628 l 1
 512 530 l 1
 162 530 l 1
EndSplineSet
EndChar

StartChar: Obreve
Encoding: 334 334 322
Width: 778
VWidth: 0
Flags: HMW
LayerCount: 2
Fore
SplineSet
192 350 m 0
 172 222 237 103 376 102 c 0
 517 101 629 215 652 350 c 0
 672 478 608 597 468 598 c 0
 327 599 215 485 192 350 c 0
68 350 m 0
 99 550 272 712 480 712 c 0
 686 712 804 543 776 350 c 0
 745 149 574 -15 364 -15 c 0
 158 -15 40 157 68 350 c 0
362 915 m 1
 441 914 l 1
 440 882 453 847 503 846 c 0
 555 845 581 882 593 914 c 1
 675 914 l 1
 657 838 595 772 497 772 c 0
 400 772 356 838 362 915 c 1
EndSplineSet
EndChar

StartChar: obreve
Encoding: 335 335 323
Width: 546
VWidth: 0
Flags: HMW
LayerCount: 2
Fore
SplineSet
44 230 m 0
 64 365 183 470 323 470 c 0
 461 470 547 362 528 230 c 0
 508 95 388 -10 248 -10 c 0
 110 -10 25 98 44 230 c 0
153 230 m 0
 141 156 180 86 258 86 c 0
 338 86 405 151 418 230 c 0
 430 304 392 374 314 374 c 0
 234 374 166 309 153 230 c 0
204 673 m 1
 284 672 l 1
 283 640 296 605 346 604 c 0
 398 603 423 640 435 672 c 1
 517 672 l 1
 499 596 438 530 340 530 c 0
 243 530 198 596 204 673 c 1
EndSplineSet
EndChar

StartChar: Racute
Encoding: 340 340 324
Width: 576
VWidth: 0
Flags: HMW
LayerCount: 2
Fore
SplineSet
246 334 m 1
 368 334 l 1
 542 0 l 1
 406 0 l 1
 246 334 l 1
166 700 m 1
 284 700 l 1
 164 0 l 1
 48 0 l 1
 166 700 l 1
218 598 m 1
 236 700 l 1
 374 700 l 1
 513 698 606 612 586 482 c 0
 566 350 451 267 307 265 c 1
 160 265 l 1
 178 363 l 1
 312 363 l 1
 390 365 453 406 466 480 c 0
 478 551 432 594 358 596 c 1
 218 598 l 1
550 920 m 1
 351 773 l 1
 294 810 l 1
 465 967 l 1
 550 920 l 1
EndSplineSet
EndChar

StartChar: uni0156
Encoding: 342 342 325
Width: 576
VWidth: 0
Flags: HMW
LayerCount: 2
Fore
SplineSet
246 334 m 1
 368 334 l 1
 542 0 l 1
 406 0 l 1
 246 334 l 1
166 700 m 1
 284 700 l 1
 164 0 l 1
 48 0 l 1
 166 700 l 1
218 598 m 1
 236 700 l 1
 374 700 l 1
 513 698 606 612 586 482 c 0
 566 350 451 267 307 265 c 1
 160 265 l 1
 178 363 l 1
 312 363 l 1
 390 365 453 406 466 480 c 0
 478 551 432 594 358 596 c 1
 218 598 l 1
272 -61 m 1
 378 -93 l 1
 222 -340 l 1
 144 -318 l 1
 272 -61 l 1
EndSplineSet
EndChar

StartChar: uni0157
Encoding: 343 343 326
Width: 359
VWidth: 0
Flags: HMW
LayerCount: 2
Fore
SplineSet
224 460 m 1
 144 0 l 1
 38 0 l 1
 118 460 l 1
 224 460 l 1
338 344 m 1
 321 358 307 369 284 369 c 0
 227 370 200 316 189 260 c 1
 156 281 l 1
 172 375 239 470 323 470 c 0
 355 470 381 456 403 434 c 1
 338 344 l 1
69 -61 m 1
 174 -93 l 1
 18 -340 l 1
 -60 -318 l 1
 69 -61 l 1
EndSplineSet
EndChar

StartChar: Scedilla
Encoding: 350 350 327
Width: 561
VWidth: 0
Flags: HMW
LayerCount: 2
Fore
SplineSet
136 236 m 1
 164 157 200 92 282 92 c 0
 346 92 394 129 404 187 c 0
 418 263 348 296 280 324 c 0
 203 357 119 410 134 526 c 0
 152 638 254 712 378 712 c 0
 492 712 553 645 581 560 c 1
 484 504 l 1
 462 558 426 606 362 606 c 0
 306 606 262 572 254 522 c 0
 242 458 322 430 387 403 c 0
 471 367 542 302 528 192 c 0
 510 66 401 -14 267 -14 c 0
 149 -14 69 68 39 178 c 1
 136 236 l 1
268 59 m 1
 350 58 l 1
 258 -58 l 1
 264 -57 269 -56 275 -56 c 0
 315 -59 348 -92 342 -141 c 0
 334 -202 271 -240 214 -240 c 0
 172 -240 141 -226 108 -200 c 1
 154 -150 l 1
 172 -164 190 -174 212 -174 c 0
 239 -174 270 -158 272 -135 c 0
 274 -112 251 -102 227 -102 c 0
 210 -101 181 -108 156 -118 c 1
 268 59 l 1
EndSplineSet
EndChar

StartChar: scedilla
Encoding: 351 351 328
Width: 411
VWidth: 0
Flags: HMW
LayerCount: 2
Fore
SplineSet
82 168 m 1
 116 118 156 78 200 78 c 0
 232 78 266 94 272 126 c 0
 280 169 232 188 190 206 c 0
 129 233 71 264 82 344 c 0
 94 426 175 470 256 470 c 0
 327 470 382 436 418 388 c 1
 352 326 l 1
 328 357 292 384 254 384 c 0
 222 384 189 372 184 344 c 0
 176 302 238 288 278 271 c 0
 339 245 391 202 381 130 c 0
 369 36 292 -12 200 -12 c 0
 113 -12 50 40 12 106 c 1
 82 168 l 1
199 61 m 1
 282 59 l 1
 189 -56 l 1
 194 -55 199 -54 205 -54 c 0
 245 -57 280 -89 274 -139 c 0
 266 -201 201 -238 144 -238 c 0
 102 -238 74 -224 41 -198 c 1
 84 -148 l 1
 102 -162 121 -172 143 -172 c 0
 170 -172 200 -157 202 -134 c 0
 204 -111 180 -100 156 -100 c 0
 139 -99 113 -106 88 -116 c 1
 199 61 l 1
EndSplineSet
EndChar

StartChar: Zcaron
Encoding: 381 381 329
Width: 557
VWidth: 0
Flags: HMW
LayerCount: 2
Fore
SplineSet
115 591 m 1
 134 700 l 1
 636 700 l 1
 192 106 l 1
 508 106 l 1
 489 0 l 1
 -18 0 l 1
 424 590 l 1
 115 591 l 1
410 874 m 1
 526 964 l 1
 591 910 l 1
 399 772 l 1
 250 914 l 1
 327 965 l 1
 410 874 l 1
EndSplineSet
EndChar

StartChar: zcaron
Encoding: 382 382 330
Width: 467
VWidth: 0
Flags: HMW
LayerCount: 2
Fore
SplineSet
330 632 m 1
 446 722 l 1
 510 668 l 1
 318 530 l 1
 169 672 l 1
 246 722 l 1
 330 632 l 1
306 360 m 1
 82 360 l 1
 99 460 l 1
 510 460 l 1
 194 100 l 1
 424 100 l 1
 406 0 l 1
 -16 0 l 1
 306 360 l 1
EndSplineSet
EndChar

StartChar: Ydieresis
Encoding: 376 376 331
Width: 582
VWidth: 0
Flags: HMW
LayerCount: 2
Fore
SplineSet
228 844 m 0
 232 878 269 909 304 908 c 0
 340 907 366 877 362 842 c 0
 358 808 321 777 286 778 c 0
 250 779 224 809 228 844 c 0
454 844 m 0
 458 878 495 909 530 908 c 0
 566 907 592 877 588 842 c 0
 584 808 546 777 511 778 c 0
 475 779 450 809 454 844 c 0
540 700 m 1
 676 700 l 1
 374 292 l 1
 324 0 l 1
 204 0 l 1
 257 298 l 1
 96 700 l 1
 226 700 l 1
 331 402 l 1
 540 700 l 1
EndSplineSet
EndChar

StartChar: Scaron
Encoding: 352 352 332
Width: 561
VWidth: 0
Flags: HMW
LayerCount: 2
Fore
SplineSet
136 236 m 1
 164 157 200 92 282 92 c 0
 346 92 394 129 404 187 c 0
 418 263 348 295 280 324 c 0
 204 358 121 420 135 530 c 0
 152 640 259 712 378 712 c 0
 490 712 558 641 581 560 c 1
 484 504 l 1
 462 557 434 605 370 606 c 0
 313 606 263 572 254 522 c 0
 242 459 322 430 387 403 c 0
 471 367 542 302 528 192 c 0
 510 66 405 -14 267 -14 c 0
 149 -14 69 68 39 178 c 1
 136 236 l 1
406 874 m 1
 521 964 l 1
 586 910 l 1
 394 772 l 1
 245 914 l 1
 322 965 l 1
 406 874 l 1
EndSplineSet
EndChar

StartChar: scaron
Encoding: 353 353 333
Width: 411
VWidth: 0
Flags: HMW
LayerCount: 2
Fore
SplineSet
84 166 m 1
 108 114 145 78 197 78 c 0
 233 78 266 94 272 126 c 0
 280 169 222 188 180 208 c 0
 122 236 68 272 78 344 c 0
 90 424 176 470 256 470 c 0
 327 470 388 438 418 388 c 1
 352 326 l 1
 327 357 288 380 250 380 c 0
 218 380 185 367 181 338 c 0
 175 302 238 284 278 267 c 0
 338 241 389 198 381 130 c 0
 369 34 288 -14 192 -14 c 0
 105 -14 39 36 12 104 c 1
 84 166 l 1
282 628 m 1
 398 718 l 1
 462 663 l 1
 270 525 l 1
 122 666 l 1
 198 718 l 1
 282 628 l 1
EndSplineSet
EndChar

StartChar: Lslash
Encoding: 321 321 334
Width: 468
VWidth: 0
Flags: HMW
LayerCount: 2
Fore
SplineSet
35 328 m 1
 18 392 l 1
 349 590 l 1
 368 526 l 1
 35 328 l 1
167 700 m 1
 284 700 l 1
 182 106 l 1
 452 106 l 1
 434 0 l 1
 47 0 l 1
 167 700 l 1
EndSplineSet
EndChar

StartChar: lslash
Encoding: 322 322 335
Width: 238
VWidth: 0
Flags: HMW
LayerCount: 2
Fore
SplineSet
30 328 m 1
 13 392 l 1
 316 568 l 1
 334 504 l 1
 30 328 l 1
172 780 m 1
 280 780 l 1
 145 0 l 1
 40 0 l 1
 172 780 l 1
EndSplineSet
EndChar

StartChar: uni0218
Encoding: 536 536 336
Width: 561
VWidth: 0
Flags: HMW
LayerCount: 2
Fore
SplineSet
136 236 m 1
 164 157 200 92 282 92 c 0
 346 92 394 129 404 187 c 0
 418 263 348 295 280 324 c 0
 204 358 121 420 135 530 c 0
 152 640 259 712 378 712 c 0
 490 712 558 641 581 560 c 1
 484 504 l 1
 462 557 434 605 370 606 c 0
 313 606 263 572 254 522 c 0
 242 459 322 430 387 403 c 0
 471 367 542 302 528 192 c 0
 510 66 405 -14 267 -14 c 0
 149 -14 69 68 39 178 c 1
 136 236 l 1
232 -71 m 1
 336 -103 l 1
 181 -350 l 1
 102 -328 l 1
 232 -71 l 1
EndSplineSet
EndChar

StartChar: uni0219
Encoding: 537 537 337
Width: 411
VWidth: 0
Flags: HMW
LayerCount: 2
Fore
SplineSet
84 166 m 1
 108 114 144 78 196 78 c 0
 232 78 266 94 272 126 c 0
 280 169 222 188 180 208 c 0
 122 236 68 272 78 344 c 0
 90 424 176 470 256 470 c 0
 327 470 388 438 418 388 c 1
 352 326 l 1
 327 357 288 380 250 380 c 0
 218 380 185 367 181 338 c 0
 175 302 238 284 278 267 c 0
 338 241 389 198 381 130 c 0
 369 34 288 -14 192 -14 c 0
 105 -14 39 36 12 104 c 1
 84 166 l 1
158 -70 m 1
 262 -102 l 1
 106 -349 l 1
 29 -326 l 1
 158 -70 l 1
EndSplineSet
EndChar

StartChar: pi
Encoding: 960 960 338
Width: 547
VWidth: 0
Flags: HMW
LayerCount: 2
Fore
SplineSet
132 430 m 1
 238 430 l 1
 162 0 l 1
 60 0 l 1
 132 430 l 1
80 460 m 1
 562 460 l 1
 546 365 l 1
 63 365 l 1
 80 460 l 1
376 430 m 1
 480 430 l 1
 432 156 l 1
 426 104 438 94 472 86 c 1
 456 -8 l 1
 362 -4 311 17 323 121 c 1
 376 430 l 1
EndSplineSet
EndChar

StartChar: trademark
Encoding: 8482 8482 339
Width: 676
VWidth: 0
Flags: HMW
LayerCount: 2
Fore
SplineSet
112 646 m 1
 122 700 l 1
 360 700 l 1
 352 646 l 1
 262 646 l 1
 211 350 l 1
 152 350 l 1
 202 646 l 1
 112 646 l 1
635 600 m 1
 700 723 l 1
 680 350 l 1
 620 350 l 1
 635 600 l 1
417 717 m 1
 438 594 l 1
 368 350 l 1
 307 351 l 1
 417 717 l 1
702 723 m 1
 680 617 l 1
 501 381 l 1
 400 624 l 1
 417 717 l 1
 514 482 l 1
 702 723 l 1
EndSplineSet
EndChar

StartChar: uni2219
Encoding: 8729 8729 340
Width: 299
VWidth: 0
Flags: HMW
LayerCount: 2
Fore
SplineSet
126 427 m 0
 130 463 168 497 206 496 c 0
 244 495 269 461 265 425 c 0
 261 389 224 355 186 356 c 0
 148 357 122 391 126 427 c 0
EndSplineSet
EndChar

StartChar: agrave.alt
Encoding: 65537 -1 341
Width: 493
VWidth: 0
Flags: HMW
LayerCount: 2
Fore
SplineSet
129 136 m 0
 123 94 152 73 198 72 c 0
 270 70 320 112 338 182 c 1
 346 129 l 1
 326 45 252 -10 158 -10 c 0
 70 -10 8 42 20 126 c 0
 34 226 130 282 236 282 c 0
 303 282 353 255 379 226 c 1
 370 170 l 1
 333 198 296 214 246 214 c 0
 186 214 137 186 129 136 c 0
142 338 m 1
 111 417 l 1
 162 444 226 471 302 471 c 0
 402 471 479 421 467 328 c 1
 411 0 l 1
 306 0 l 1
 362 316 l 1
 364 358 335 380 288 382 c 0
 229 384 176 356 142 338 c 1
180 682 m 1
 274 726 l 1
 395 564 l 1
 332 531 l 1
 180 682 l 1
EndSplineSet
EndChar

StartChar: aacute.alt
Encoding: 65538 -1 342
Width: 493
VWidth: 0
Flags: HMW
LayerCount: 2
Fore
SplineSet
129 136 m 0
 123 94 152 73 198 72 c 0
 270 70 320 112 338 182 c 1
 346 129 l 1
 326 45 252 -10 158 -10 c 0
 70 -10 8 42 20 126 c 0
 34 226 130 282 236 282 c 0
 303 282 353 255 379 226 c 1
 370 170 l 1
 333 198 296 214 246 214 c 0
 186 214 137 186 129 136 c 0
142 338 m 1
 111 417 l 1
 162 444 226 471 302 471 c 0
 402 471 479 421 467 328 c 1
 411 0 l 1
 306 0 l 1
 362 316 l 1
 364 358 335 380 288 382 c 0
 229 384 176 356 142 338 c 1
502 678 m 1
 303 532 l 1
 246 568 l 1
 418 726 l 1
 502 678 l 1
EndSplineSet
EndChar

StartChar: acircumflex.alt
Encoding: 65539 -1 343
Width: 493
VWidth: 0
Flags: HMW
LayerCount: 2
Fore
SplineSet
129 136 m 0
 123 94 152 73 198 72 c 0
 270 70 320 112 338 182 c 1
 346 129 l 1
 326 45 252 -10 158 -10 c 0
 70 -10 8 42 20 126 c 0
 34 226 130 282 236 282 c 0
 303 282 353 255 379 226 c 1
 370 170 l 1
 333 198 296 214 246 214 c 0
 186 214 137 186 129 136 c 0
142 338 m 1
 111 417 l 1
 162 444 226 471 302 471 c 0
 402 471 479 421 467 328 c 1
 411 0 l 1
 306 0 l 1
 362 316 l 1
 364 358 335 380 288 382 c 0
 229 384 176 356 142 338 c 1
334 622 m 1
 218 532 l 1
 154 586 l 1
 346 724 l 1
 494 582 l 1
 418 531 l 1
 334 622 l 1
EndSplineSet
EndChar

StartChar: atilde.alt
Encoding: 65540 -1 344
Width: 493
VWidth: 0
Flags: HMW
LayerCount: 2
Fore
SplineSet
129 136 m 0
 123 94 152 73 198 72 c 0
 270 70 320 112 338 182 c 1
 346 129 l 1
 326 45 252 -10 158 -10 c 0
 70 -10 8 42 20 126 c 0
 34 226 130 282 236 282 c 0
 303 282 353 255 379 226 c 1
 370 170 l 1
 333 198 296 214 246 214 c 0
 186 214 137 186 129 136 c 0
142 338 m 1
 111 417 l 1
 162 444 226 471 302 471 c 0
 402 471 479 421 467 328 c 1
 411 0 l 1
 306 0 l 1
 362 316 l 1
 364 358 335 380 288 382 c 0
 229 384 176 356 142 338 c 1
150 582 m 1
 170 626 216 668 270 666 c 0
 323 665 338 616 386 618 c 0
 412 619 434 643 454 668 c 1
 502 610 l 1
 478 574 432 532 378 534 c 0
 330 536 306 585 262 583 c 0
 227 581 212 551 204 533 c 1
 150 582 l 1
EndSplineSet
EndChar

StartChar: adieresis.alt
Encoding: 65541 -1 345
Width: 493
VWidth: 0
Flags: HMW
LayerCount: 2
Fore
SplineSet
129 136 m 0
 123 94 152 73 198 72 c 0
 270 70 320 112 338 182 c 1
 346 129 l 1
 326 45 252 -10 158 -10 c 0
 70 -10 8 42 20 126 c 0
 34 226 130 282 236 282 c 0
 303 282 353 255 379 226 c 1
 370 170 l 1
 333 198 296 214 246 214 c 0
 186 214 137 186 129 136 c 0
142 338 m 1
 111 417 l 1
 162 444 226 471 302 471 c 0
 402 471 479 421 467 328 c 1
 411 0 l 1
 306 0 l 1
 362 316 l 1
 364 358 335 380 288 382 c 0
 229 384 176 356 142 338 c 1
365 598 m 0
 369 632 406 663 441 662 c 0
 477 661 503 631 499 596 c 0
 495 562 457 531 422 532 c 0
 386 533 361 563 365 598 c 0
154 598 m 0
 158 632 195 663 230 662 c 0
 266 661 292 631 288 596 c 0
 284 562 246 531 211 532 c 0
 175 533 150 563 154 598 c 0
EndSplineSet
EndChar

StartChar: aring.alt
Encoding: 65542 -1 346
Width: 493
VWidth: 0
Flags: HMW
LayerCount: 2
Fore
SplineSet
129 136 m 0
 123 94 152 73 198 72 c 0
 270 70 320 112 338 182 c 1
 346 129 l 1
 326 45 252 -10 158 -10 c 0
 70 -10 8 42 20 126 c 0
 34 226 130 282 236 282 c 0
 303 282 353 255 379 226 c 1
 370 170 l 1
 333 198 296 214 246 214 c 0
 186 214 137 186 129 136 c 0
142 338 m 1
 111 417 l 1
 162 444 226 471 302 471 c 0
 402 471 479 421 467 328 c 1
 411 0 l 1
 306 0 l 1
 362 316 l 1
 364 358 335 380 288 382 c 0
 229 384 176 356 142 338 c 1
224 639 m 0
 232 699 290 744 348 744 c 0
 406 744 450 697 442 637 c 0
 434 577 376 532 318 532 c 0
 260 532 216 580 224 639 c 0
286 637 m 0
 283 611 298 590 322 588 c 0
 346 586 378 612 381 638 c 0
 384 664 368 686 344 688 c 0
 320 690 289 663 286 637 c 0
EndSplineSet
EndChar

StartChar: amacron.alt
Encoding: 65543 -1 347
Width: 493
VWidth: 0
Flags: HMW
LayerCount: 2
Fore
SplineSet
129 136 m 0
 123 94 152 73 198 72 c 0
 270 70 320 112 338 182 c 1
 346 129 l 1
 326 45 252 -10 158 -10 c 0
 70 -10 8 42 20 126 c 0
 34 226 130 282 236 282 c 0
 303 282 353 255 379 226 c 1
 370 170 l 1
 333 198 296 214 246 214 c 0
 186 214 137 186 129 136 c 0
142 338 m 1
 111 417 l 1
 162 444 226 471 302 471 c 0
 402 471 479 421 467 328 c 1
 411 0 l 1
 306 0 l 1
 362 316 l 1
 364 358 335 380 288 382 c 0
 229 384 176 356 142 338 c 1
144 546 m 1
 160 644 l 1
 510 644 l 1
 494 546 l 1
 144 546 l 1
EndSplineSet
EndChar

StartChar: abreve.alt
Encoding: 65544 -1 348
Width: 493
VWidth: 0
Flags: HMW
LayerCount: 2
Fore
SplineSet
129 136 m 0
 123 94 152 73 198 72 c 0
 270 70 320 112 338 182 c 1
 346 129 l 1
 326 45 252 -10 158 -10 c 0
 70 -10 8 42 20 126 c 0
 34 226 130 282 236 282 c 0
 303 282 353 255 379 226 c 1
 370 170 l 1
 333 198 296 214 246 214 c 0
 186 214 137 186 129 136 c 0
142 338 m 1
 111 417 l 1
 162 444 226 471 302 471 c 0
 402 471 479 421 467 328 c 1
 411 0 l 1
 306 0 l 1
 362 316 l 1
 364 358 335 380 288 382 c 0
 229 384 176 356 142 338 c 1
182 674 m 1
 262 674 l 1
 261 642 274 607 324 606 c 0
 376 605 401 642 413 674 c 1
 496 673 l 1
 478 597 416 532 318 532 c 0
 221 532 176 597 182 674 c 1
EndSplineSet
EndChar

StartChar: aogonek.alt
Encoding: 65545 -1 349
Width: 493
VWidth: 0
Flags: HMW
LayerCount: 2
Fore
SplineSet
129 136 m 0
 123 95 157 73 198 72 c 0
 270 70 320 112 338 182 c 1
 346 129 l 1
 326 45 252 -10 158 -10 c 0
 72 -10 9 44 21 132 c 0
 36 228 127 282 236 282 c 0
 303 282 353 255 379 226 c 1
 370 170 l 1
 333 198 296 214 246 214 c 0
 186 214 137 186 129 136 c 0
142 338 m 1
 111 417 l 1
 162 444 226 471 302 471 c 0
 402 471 479 421 467 328 c 1
 411 0 l 1
 306 0 l 1
 362 316 l 1
 364 358 335 380 288 382 c 0
 229 384 176 356 142 338 c 1
382 -122 m 1
 406 -182 l 1
 384 -202 352 -220 310 -220 c 0
 242 -220 198 -181 206 -120 c 0
 217 -52 295 -9 361 24 c 1
 400 0 l 1
 354 -24 304 -56 297 -98 c 0
 295 -124 304 -140 329 -142 c 0
 350 -144 368 -132 382 -122 c 1
EndSplineSet
EndChar

StartChar: dagger
Encoding: 8224 8224 350
Width: 576
VWidth: 0
Flags: HMW
LayerCount: 2
Fore
SplineSet
153 540 m 1
 558 540 l 1
 542 445 l 1
 138 445 l 1
 153 540 l 1
327 700 m 1
 432 700 l 1
 300 -150 l 1
 198 -150 l 1
 327 700 l 1
EndSplineSet
EndChar

StartChar: daggerdbl
Encoding: 8225 8225 351
Width: 576
VWidth: 0
Flags: HMW
LayerCount: 2
Fore
SplineSet
90 135 m 1
 495 135 l 1
 480 40 l 1
 75 40 l 1
 90 135 l 1
153 540 m 1
 558 540 l 1
 542 445 l 1
 138 445 l 1
 153 540 l 1
327 700 m 1
 432 700 l 1
 300 -150 l 1
 198 -150 l 1
 327 700 l 1
EndSplineSet
EndChar

StartChar: ellipsis
Encoding: 8230 8230 352
Width: 882
VWidth: 0
Flags: HMW
LayerCount: 2
Fore
SplineSet
62 52 m 0
 66 88 104 121 142 120 c 0
 180 119 205 86 201 50 c 0
 197 14 160 -19 122 -18 c 0
 84 -17 58 16 62 52 c 0
354 52 m 0
 358 88 394 121 432 120 c 0
 470 119 496 86 492 50 c 0
 488 14 450 -19 412 -18 c 0
 374 -17 350 16 354 52 c 0
644 52 m 0
 648 88 686 121 724 120 c 0
 762 119 787 86 783 50 c 0
 779 14 742 -19 704 -18 c 0
 666 -17 640 16 644 52 c 0
EndSplineSet
EndChar

StartChar: uniFF10
Encoding: 65296 65296 353
Width: 581
VWidth: 0
Flags: HMW
LayerCount: 2
Fore
SplineSet
172 350 m 0
 160 239 166 98 276 96 c 0
 386 94 456 226 474 350 c 0
 486 461 481 602 371 604 c 0
 261 606 190 474 172 350 c 0
58 350 m 0
 84 538 206 711 382 711 c 0
 561 711 611 526 589 350 c 0
 563 161 444 -11 266 -11 c 0
 88 -11 36 174 58 350 c 0
EndSplineSet
EndChar

StartChar: uniFF11
Encoding: 65297 65297 354
Width: 581
VWidth: 0
Flags: HMW
LayerCount: 2
Fore
SplineSet
172 536 m 1
 192 649 l 1
 476 712 l 1
 353 0 l 1
 238 0 l 1
 338 580 l 1
 172 536 l 1
EndSplineSet
EndChar

StartChar: uniFF12
Encoding: 65298 65298 355
Width: 581
VWidth: 0
Flags: HMW
LayerCount: 2
Fore
SplineSet
-8 0 m 1
 362 341 l 2
 412 388 458 436 469 496 c 0
 478 550 449 604 380 606 c 0
 296 608 239 534 222 452 c 1
 106 453 l 1
 132 595 236 713 394 712 c 0
 536 712 606 602 588 494 c 0
 576 418 524 357 464 305 c 2
 238 110 l 1
 532 110 l 1
 513 0 l 1
 -8 0 l 1
EndSplineSet
EndChar

StartChar: uniFF13
Encoding: 65299 65299 356
Width: 581
VWidth: 0
Flags: HMW
LayerCount: 2
Fore
SplineSet
294 344 m 1
 304 406 l 1
 380 412 444 450 456 516 c 0
 464 566 442 609 384 610 c 0
 323 611 277 566 262 514 c 1
 152 515 l 1
 175 627 267 711 393 711 c 0
 513 711 590 626 574 522 c 0
 554 404 428 348 294 344 c 1
272 -12 m 0
 134 -12 56 82 68 200 c 1
 184 200 l 1
 180 137 214 91 284 90 c 0
 352 90 409 134 421 200 c 0
 436 278 371 313 290 317 c 1
 300 384 l 1
 436 380 558 326 536 186 c 0
 517 66 406 -12 272 -12 c 0
EndSplineSet
EndChar

StartChar: uniFF14
Encoding: 65300 65300 357
Width: 581
VWidth: 0
Flags: HMW
LayerCount: 2
Fore
SplineSet
8 134 m 1
 118 226 l 1
 402 228 l 1
 420 236 l 1
 573 236 l 1
 555 134 l 1
 8 134 l 1
130 154 m 1
 6 133 l 1
 477 699 l 1
 549 700 l 1
 430 0 l 1
 309 0 l 1
 338 170 l 1
 348 181 l 1
 400 482 l 1
 130 154 l 1
EndSplineSet
EndChar

StartChar: uniFF15
Encoding: 65301 65301 358
Width: 581
VWidth: 0
Flags: HMW
LayerCount: 2
Fore
SplineSet
552 228 m 0
 530 79 401 -11 261 -11 c 0
 147 -11 73 42 24 114 c 1
 104 198 l 1
 137 144 192 99 258 99 c 0
 346 99 415 153 429 235 c 0
 441 312 390 368 312 370 c 0
 246 372 185 351 118 316 c 1
 202 388 l 1
 252 434 316 460 382 460 c 0
 504 459 568 351 552 228 c 0
348 596 m 1
 258 400 l 1
 112 311 l 1
 274 700 l 1
 626 700 l 1
 608 596 l 1
 348 596 l 1
EndSplineSet
EndChar

StartChar: uniFF16
Encoding: 65302 65302 359
Width: 581
VWidth: 0
Flags: HMW
LayerCount: 2
Fore
SplineSet
168 236 m 0
 156 160 196 92 276 92 c 0
 358 92 426 156 440 236 c 0
 452 312 413 382 332 382 c 0
 250 382 182 316 168 236 c 0
404 698 m 1
 556 698 l 1
 292 425 l 1
 272 424 l 1
 305 452 340 462 384 462 c 0
 500 461 570 354 554 236 c 0
 533 90 410 -12 266 -12 c 0
 124 -12 34 95 54 236 c 0
 64 300 97 355 138 401 c 2
 404 698 l 1
EndSplineSet
EndChar

StartChar: uniFF17
Encoding: 65303 65303 360
Width: 581
VWidth: 0
Flags: HMW
LayerCount: 2
Fore
SplineSet
121 589 m 1
 140 700 l 1
 651 700 l 1
 204 0 l 1
 76 0 l 1
 456 588 l 1
 121 589 l 1
EndSplineSet
EndChar

StartChar: uniFF18
Encoding: 65304 65304 361
Width: 581
VWidth: 0
Flags: HMW
LayerCount: 2
Fore
SplineSet
154 532 m 0
 170 638 274 712 387 712 c 0
 497 712 579 634 564 530 c 0
 548 418 444 350 332 350 c 0
 222 350 138 421 154 532 c 0
262 518 m 0
 254 467 285 421 338 420 c 0
 392 418 443 465 452 519 c 0
 460 570 434 617 378 618 c 0
 322 619 271 572 262 518 c 0
72 190 m 0
 90 318 214 392 332 392 c 0
 447 392 548 316 530 190 c 0
 512 73 395 -12 270 -12 c 0
 149 -12 55 75 72 190 c 0
188 206 m 0
 178 140 218 89 281 88 c 0
 345 87 409 138 420 206 c 0
 429 266 390 323 328 324 c 0
 264 325 199 268 188 206 c 0
EndSplineSet
EndChar

StartChar: uniFF19
Encoding: 65305 65305 362
Width: 581
VWidth: 0
Flags: HMW
LayerCount: 2
Fore
SplineSet
480 464 m 0
 492 540 452 608 372 608 c 0
 290 608 220 544 206 464 c 0
 194 388 233 318 314 318 c 0
 396 318 466 384 480 464 c 0
243 2 m 1
 91 2 l 1
 354 275 l 1
 375 276 l 1
 342 248 307 238 263 238 c 0
 147 239 76 346 92 464 c 0
 113 610 238 712 382 712 c 0
 524 712 613 605 593 464 c 0
 583 400 551 345 510 299 c 2
 243 2 l 1
EndSplineSet
EndChar

StartChar: caron
Encoding: 711 711 363
Width: 465
VWidth: 0
Flags: HMW
LayerCount: 2
Fore
SplineSet
316 664 m 1
 431 754 l 1
 496 700 l 1
 304 562 l 1
 156 704 l 1
 232 755 l 1
 316 664 l 1
EndSplineSet
EndChar

StartChar: napostrophe
Encoding: 329 329 364
Width: 659
VWidth: 0
Flags: HMW
LayerCount: 2
Fore
SplineSet
356 460 m 1
 277 0 l 1
 169 0 l 1
 248 460 l 1
 356 460 l 1
506 280 m 1
 512 334 502 380 444 382 c 0
 382 384 339 335 325 281 c 1
 290 279 l 1
 310 379 381 470 487 470 c 0
 591 470 628 393 616 292 c 1
 566 0 l 1
 458 0 l 1
 506 280 l 1
209 700 m 1
 331 700 l 1
 190 461 l 1
 113 461 l 1
 209 700 l 1
EndSplineSet
EndChar

StartChar: IJ
Encoding: 306 306 365
Width: 527
VWidth: 0
Flags: HMW
LayerCount: 2
Fore
SplineSet
148 -88 m 1
 164 -108 187 -123 218 -122 c 0
 256 -120 292 -88 300 -36 c 1
 427 700 l 1
 546 700 l 1
 417 -58 l 2
 399 -166 317 -229 211 -228 c 0
 154 -228 106 -202 74 -174 c 1
 148 -88 l 1
166 700 m 1
 286 700 l 1
 164 0 l 1
 48 0 l 1
 166 700 l 1
EndSplineSet
EndChar

StartChar: ij
Encoding: 307 307 366
Width: 508
VWidth: 0
Flags: HMW
LayerCount: 2
Fore
SplineSet
395 644 m 0
 399 678 437 709 472 708 c 0
 508 707 532 677 528 642 c 0
 524 608 488 577 453 578 c 0
 417 579 391 609 395 644 c 0
187 -100 m 1
 199 -110 216 -126 230 -126 c 0
 264 -128 286 -87 292 -44 c 1
 378 460 l 1
 484 460 l 1
 394 -66 l 2
 379 -160 319 -230 223 -228 c 0
 177 -228 148 -206 126 -182 c 1
 187 -100 l 1
145 644 m 0
 149 678 186 709 221 708 c 0
 257 707 283 677 279 642 c 0
 275 608 237 577 202 578 c 0
 166 579 141 609 145 644 c 0
127 460 m 1
 234 460 l 1
 154 0 l 1
 50 0 l 1
 127 460 l 1
EndSplineSet
EndChar

StartChar: uni0237
Encoding: 567 567 367
Width: 250
VWidth: 0
Flags: HMW
LayerCount: 2
Fore
SplineSet
-69 -100 m 1
 -57 -116 -46 -126 -28 -126 c 0
 7 -126 28 -88 34 -44 c 1
 120 460 l 1
 226 460 l 1
 137 -66 l 2
 122 -160 62 -230 -34 -228 c 0
 -80 -228 -109 -206 -131 -182 c 1
 -69 -100 l 1
EndSplineSet
EndChar

StartChar: Sacute
Encoding: 346 346 368
Width: 561
VWidth: 0
Flags: HMW
LayerCount: 2
Fore
SplineSet
136 236 m 1
 164 157 200 92 282 92 c 0
 346 92 394 129 404 187 c 0
 418 263 348 295 280 324 c 0
 204 358 121 420 135 530 c 0
 152 640 259 712 378 712 c 0
 490 712 558 641 581 560 c 1
 484 504 l 1
 462 557 434 605 370 606 c 0
 313 606 263 572 254 522 c 0
 242 459 322 430 387 403 c 0
 471 367 542 302 528 192 c 0
 510 66 405 -14 267 -14 c 0
 149 -14 69 68 39 178 c 1
 136 236 l 1
592 920 m 1
 394 773 l 1
 336 810 l 1
 508 967 l 1
 592 920 l 1
EndSplineSet
EndChar

StartChar: sacute
Encoding: 347 347 369
Width: 411
VWidth: 0
Flags: HMW
LayerCount: 2
Fore
SplineSet
84 166 m 1
 108 114 144 78 196 78 c 0
 232 78 266 94 272 126 c 0
 280 169 222 188 180 208 c 0
 122 236 68 272 78 344 c 0
 90 424 176 470 256 470 c 0
 327 470 388 438 418 388 c 1
 352 326 l 1
 327 357 288 380 250 380 c 0
 218 380 185 367 181 338 c 0
 175 302 238 284 278 267 c 0
 338 241 389 198 381 130 c 0
 369 34 288 -14 192 -14 c 0
 105 -14 39 36 12 104 c 1
 84 166 l 1
470 678 m 1
 272 531 l 1
 214 567 l 1
 385 724 l 1
 470 678 l 1
EndSplineSet
EndChar

StartChar: Scircumflex
Encoding: 348 348 370
Width: 561
VWidth: 0
Flags: HMW
LayerCount: 2
Fore
SplineSet
136 236 m 1
 164 157 200 92 282 92 c 0
 346 92 394 129 404 187 c 0
 418 263 348 295 280 324 c 0
 204 358 121 420 135 530 c 0
 152 640 259 712 378 712 c 0
 490 712 558 641 581 560 c 1
 484 504 l 1
 462 557 434 605 370 606 c 0
 313 606 263 572 254 522 c 0
 242 459 322 430 387 403 c 0
 471 367 542 302 528 192 c 0
 510 66 405 -14 267 -14 c 0
 149 -14 69 68 39 178 c 1
 136 236 l 1
410 863 m 1
 294 772 l 1
 230 827 l 1
 422 965 l 1
 570 824 l 1
 494 772 l 1
 410 863 l 1
EndSplineSet
EndChar

StartChar: scircumflex
Encoding: 349 349 371
Width: 411
VWidth: 0
Flags: HMW
LayerCount: 2
Fore
SplineSet
84 166 m 1
 108 114 145 78 197 78 c 0
 233 78 266 94 272 126 c 0
 280 169 222 188 180 208 c 0
 122 236 68 272 78 344 c 0
 90 424 176 470 256 470 c 0
 327 470 388 438 418 388 c 1
 352 326 l 1
 327 357 288 380 250 380 c 0
 218 380 185 367 181 338 c 0
 175 302 238 284 278 267 c 0
 338 241 389 198 381 130 c 0
 369 34 288 -14 192 -14 c 0
 105 -14 39 36 12 104 c 1
 84 166 l 1
292 620 m 1
 177 530 l 1
 112 585 l 1
 304 723 l 1
 453 582 l 1
 376 530 l 1
 292 620 l 1
EndSplineSet
EndChar

StartChar: uni1E9E
Encoding: 7838 7838 372
Width: 755
VWidth: 0
Flags: HMW
LayerCount: 2
Fore
SplineSet
472 -12 m 0
 615 -12 715 64 715 174 c 0
 715 318 578 303 578 360 c 0
 578 408 724 430 724 557 c 0
 724 652 632 712 486 712 c 0
 286 712 147 588 114 380 c 2
 50 -2 l 1
 172 -2 l 1
 234 369 l 2
 258 519 354 602 478 602 c 0
 560 602 596 567 596 527 c 0
 596 451 447 448 447 354 c 0
 447 256 587 278 587 182 c 0
 587 120 525 96 455 96 c 0
 395 96 350 115 300 144 c 1
 260 46 l 1
 316 11 386 -12 472 -12 c 0
EndSplineSet
EndChar

StartChar: Zacute
Encoding: 377 377 373
Width: 557
VWidth: 0
Flags: HW
LayerCount: 2
Fore
SplineSet
115 591 m 1
 134 700 l 1
 636 700 l 1
 192 106 l 1
 508 106 l 1
 489 0 l 1
 -18 0 l 1
 424 590 l 1
 115 591 l 1
583 920 m 1
 384 773 l 1
 327 810 l 1
 498 967 l 1
 583 920 l 1
EndSplineSet
EndChar

StartChar: zacute
Encoding: 378 378 374
Width: 469
VWidth: 0
Flags: HW
LayerCount: 2
Fore
SplineSet
306 360 m 1
 82 360 l 1
 99 460 l 1
 510 460 l 1
 194 100 l 1
 424 100 l 1
 406 0 l 1
 -16 0 l 1
 306 360 l 1
505 692 m 1
 306 546 l 1
 249 582 l 1
 420 740 l 1
 505 692 l 1
EndSplineSet
EndChar

StartChar: Zdotaccent
Encoding: 379 379 375
Width: 557
VWidth: 0
Flags: HW
LayerCount: 2
Fore
SplineSet
115 591 m 1
 134 700 l 1
 636 700 l 1
 192 106 l 1
 508 106 l 1
 489 0 l 1
 -18 0 l 1
 424 590 l 1
 115 591 l 1
340 840 m 0
 344 874 381 905 416 904 c 0
 452 903 478 872 474 837 c 0
 470 803 433 771 398 772 c 0
 362 773 336 805 340 840 c 0
EndSplineSet
EndChar

StartChar: zdotaccent
Encoding: 380 380 376
Width: 469
VWidth: 0
Flags: HW
LayerCount: 2
Fore
SplineSet
306 360 m 1
 82 360 l 1
 99 460 l 1
 510 460 l 1
 194 100 l 1
 424 100 l 1
 406 0 l 1
 -16 0 l 1
 306 360 l 1
264 620 m 0
 268 654 305 685 340 684 c 0
 376 683 402 653 398 618 c 0
 394 584 357 553 322 554 c 0
 286 555 260 585 264 620 c 0
EndSplineSet
EndChar

StartChar: Tcaron
Encoding: 356 356 377
Width: 488
VWidth: 0
Flags: HW
LayerCount: 2
Fore
SplineSet
80 591 m 1
 99 700 l 1
 575 700 l 1
 556 591 l 1
 377 591 l 1
 276 0 l 1
 158 0 l 1
 260 591 l 1
 80 591 l 1
364 874 m 1
 479 964 l 1
 544 910 l 1
 352 772 l 1
 203 914 l 1
 280 965 l 1
 364 874 l 1
EndSplineSet
EndChar

StartChar: tcaron
Encoding: 357 357 378
Width: 391
VWidth: 0
Flags: HW
LayerCount: 2
Fore
SplineSet
56 460 m 1
 311 460 l 1
 294 365 l 1
 38 365 l 1
 56 460 l 1
157 620 m 1
 264 620 l 1
 156 0 l 1
 52 0 l 1
 157 620 l 1
426 799 m 1
 531 768 l 1
 376 521 l 1
 298 542 l 1
 426 799 l 1
EndSplineSet
EndChar

StartChar: Uring
Encoding: 366 366 379
Width: 636
VWidth: 0
Flags: HW
LayerCount: 2
Fore
SplineSet
162 700 m 1
 280 700 l 1
 198 235 l 2
 188 159 217 93 304 92 c 0
 392 91 448 155 463 235 c 1
 543 700 l 1
 660 700 l 1
 580 230 l 2
 556 86 442 -18 292 -18 c 0
 146 -18 63 88 82 230 c 1
 162 700 l 1
332 880 m 0
 340 940 398 984 456 984 c 0
 514 984 558 938 550 878 c 0
 542 818 484 772 426 772 c 0
 368 772 324 821 332 880 c 0
394 878 m 0
 391 852 406 830 430 828 c 0
 454 826 486 854 489 880 c 0
 492 906 476 928 452 930 c 0
 428 932 397 904 394 878 c 0
EndSplineSet
EndChar

StartChar: uring
Encoding: 367 367 380
Width: 528
VWidth: 0
Flags: HW
LayerCount: 2
Fore
SplineSet
328 0 m 1
 408 460 l 1
 515 460 l 1
 436 0 l 1
 328 0 l 1
178 180 m 1
 172 126 182 80 240 78 c 0
 302 76 346 125 360 179 c 1
 386 181 l 1
 368 81 303 -10 197 -10 c 0
 93 -10 56 67 68 168 c 1
 118 460 l 1
 226 460 l 1
 178 180 l 1
237 637 m 0
 245 697 303 742 361 742 c 0
 419 742 463 695 455 635 c 0
 447 575 388 530 330 530 c 0
 272 530 229 578 237 637 c 0
298 636 m 0
 295 610 311 588 335 586 c 0
 359 584 391 611 394 637 c 0
 397 663 380 684 356 686 c 0
 332 688 301 662 298 636 c 0
EndSplineSet
EndChar

StartChar: Utilde
Encoding: 360 360 381
Width: 636
VWidth: 0
Flags: HW
LayerCount: 2
Fore
SplineSet
162 700 m 1
 280 700 l 1
 198 235 l 2
 188 159 215 93 302 92 c 0
 390 90 447 155 462 235 c 1
 542 700 l 1
 660 700 l 1
 580 230 l 2
 556 86 443 -18 293 -18 c 0
 147 -18 63 88 82 230 c 1
 162 700 l 1
258 822 m 1
 263 867 331 908 376 908 c 0
 429 907 446 858 494 860 c 0
 520 861 542 884 562 909 c 1
 610 851 l 1
 586 815 539 774 486 776 c 0
 438 778 415 826 371 824 c 0
 336 822 321 792 313 774 c 1
 258 822 l 1
EndSplineSet
EndChar

StartChar: utilde
Encoding: 361 361 382
Width: 528
VWidth: 0
Flags: HW
LayerCount: 2
Fore
SplineSet
328 0 m 1
 408 460 l 1
 516 460 l 1
 436 0 l 1
 328 0 l 1
178 180 m 1
 172 126 182 80 240 78 c 0
 302 76 345 125 359 179 c 1
 386 181 l 1
 368 81 304 -10 198 -10 c 0
 94 -10 56 66 68 168 c 1
 118 460 l 1
 226 460 l 1
 178 180 l 1
163 580 m 1
 183 624 227 667 281 665 c 0
 334 664 350 616 398 618 c 0
 424 619 446 641 466 666 c 1
 515 609 l 1
 491 573 445 532 392 534 c 0
 344 536 319 584 275 582 c 0
 240 580 226 550 218 532 c 1
 163 580 l 1
EndSplineSet
EndChar

StartChar: Umacron
Encoding: 362 362 383
Width: 636
VWidth: 0
Flags: HW
LayerCount: 2
Fore
SplineSet
162 700 m 1
 280 700 l 1
 198 235 l 2
 188 159 215 93 302 92 c 0
 390 90 447 155 462 235 c 1
 542 700 l 1
 660 700 l 1
 580 230 l 2
 556 86 443 -18 293 -18 c 0
 147 -18 63 88 82 230 c 1
 162 700 l 1
250 772 m 1
 265 870 l 1
 616 870 l 1
 600 772 l 1
 250 772 l 1
EndSplineSet
EndChar

StartChar: umacron
Encoding: 363 363 384
Width: 528
VWidth: 0
Flags: HW
LayerCount: 2
Fore
SplineSet
328 0 m 1
 408 460 l 1
 516 460 l 1
 436 0 l 1
 328 0 l 1
178 180 m 1
 172 126 182 80 240 78 c 0
 302 76 345 125 359 179 c 1
 386 181 l 1
 368 81 304 -10 198 -10 c 0
 94 -10 56 66 68 168 c 1
 118 460 l 1
 226 460 l 1
 178 180 l 1
154 530 m 1
 170 628 l 1
 521 628 l 1
 505 530 l 1
 154 530 l 1
EndSplineSet
EndChar

StartChar: Ubreve
Encoding: 364 364 385
Width: 636
VWidth: 0
Flags: HW
LayerCount: 2
Fore
SplineSet
162 700 m 1
 280 700 l 1
 198 235 l 2
 188 159 215 93 302 92 c 0
 390 90 447 155 462 235 c 1
 542 700 l 1
 660 700 l 1
 580 230 l 2
 556 86 443 -18 293 -18 c 0
 147 -18 63 88 82 230 c 1
 162 700 l 1
290 915 m 1
 370 914 l 1
 369 882 382 847 432 846 c 0
 484 845 509 882 521 914 c 1
 604 914 l 1
 586 838 526 772 428 772 c 0
 331 772 285 837 290 915 c 1
EndSplineSet
EndChar

StartChar: ubreve
Encoding: 365 365 386
Width: 528
VWidth: 0
Flags: HW
LayerCount: 2
Fore
SplineSet
328 0 m 1
 408 460 l 1
 516 460 l 1
 436 0 l 1
 328 0 l 1
178 180 m 1
 172 126 182 80 240 78 c 0
 302 76 345 125 359 179 c 1
 386 181 l 1
 368 81 304 -10 198 -10 c 0
 94 -10 56 66 68 168 c 1
 118 460 l 1
 226 460 l 1
 178 180 l 1
195 672 m 1
 274 672 l 1
 273 640 286 605 336 604 c 0
 388 603 414 640 426 672 c 1
 508 672 l 1
 490 596 432 530 334 530 c 0
 237 530 190 594 195 672 c 1
EndSplineSet
EndChar

StartChar: Wcircumflex
Encoding: 372 372 387
Width: 989
VWidth: 0
Flags: HW
LayerCount: 2
Fore
SplineSet
701 222 m 1
 939 700 l 1
 1078 700 l 1
 674 -40 l 1
 548 454 l 1
 254 -40 l 1
 100 700 l 1
 233 700 l 1
 310 224 l 1
 592 738 l 1
 701 222 l 1
622 886 m 1
 506 796 l 1
 442 850 l 1
 632 988 l 1
 782 846 l 1
 706 796 l 1
 622 886 l 1
EndSplineSet
EndChar

StartChar: wcircumflex
Encoding: 373 373 388
Width: 690
VWidth: 0
Flags: HW
LayerCount: 2
Fore
SplineSet
52 460 m 1
 165 460 l 1
 222 190 l 1
 400 498 l 1
 476 188 l 1
 626 460 l 1
 747 460 l 1
 450 -36 l 1
 365 274 l 1
 176 -36 l 1
 52 460 l 1
430 646 m 1
 314 556 l 1
 248 610 l 1
 439 748 l 1
 589 606 l 1
 512 556 l 1
 430 646 l 1
EndSplineSet
EndChar

StartChar: Ycircumflex
Encoding: 374 374 389
Width: 582
VWidth: 0
Flags: HW
LayerCount: 2
Fore
SplineSet
539 700 m 1
 677 700 l 1
 374 291 l 1
 324 0 l 1
 204 0 l 1
 257 299 l 1
 96 700 l 1
 225 700 l 1
 330 403 l 1
 539 700 l 1
414 863 m 1
 298 773 l 1
 234 828 l 1
 424 966 l 1
 574 823 l 1
 498 772 l 1
 414 863 l 1
EndSplineSet
EndChar

StartChar: ycircumflex
Encoding: 375 375 390
Width: 457
VWidth: 0
Flags: HW
LayerCount: 2
Fore
SplineSet
517 460 m 1
 109 -220 l 1
 -10 -220 l 1
 160 58 l 1
 48 460 l 1
 168 460 l 1
 248 96 l 1
 197 100 l 1
 398 460 l 1
 517 460 l 1
310 620 m 1
 195 530 l 1
 130 586 l 1
 320 723 l 1
 470 581 l 1
 394 530 l 1
 310 620 l 1
EndSplineSet
EndChar

StartChar: uni0123
Encoding: 291 291 391
Width: 553
VWidth: 0
Flags: HW
LayerCount: 2
Fore
SplineSet
-12 -31 m 1
 93 -32 l 1
 91 -93 123 -139 196 -140 c 0
 273 -141 341 -78 356 10 c 1
 434 460 l 1
 540 460 l 1
 464 10 l 2
 440 -138 329 -234 194 -234 c 0
 56 -234 -18 -151 -12 -31 c 1
25 232 m 0
 43 368 154 471 280 470 c 0
 404 469 452 358 436 232 c 0
 419 101 332 -4 210 -4 c 0
 84 -5 8 100 25 232 c 0
136 232 m 0
 124 154 162 90 240 90 c 0
 310 90 382 150 395 232 c 0
 406 308 368 374 299 376 c 0
 221 378 150 314 136 232 c 0
336 544 m 1
 238 596 l 1
 424 820 l 1
 498 784 l 1
 336 544 l 1
EndSplineSet
EndChar

StartChar: Hbar
Encoding: 294 294 392
Width: 720
VWidth: 0
Flags: HW
LayerCount: 2
Fore
SplineSet
130 322 m 1
 148 430 l 1
 636 430 l 1
 618 322 l 1
 130 322 l 1
602 700 m 1
 722 700 l 1
 602 0 l 1
 485 0 l 1
 602 700 l 1
146 700 m 1
 266 700 l 1
 145 0 l 1
 29 0 l 1
 146 700 l 1
50 539 m 1
 65 626 l 1
 780 626 l 1
 766 539 l 1
 50 539 l 1
EndSplineSet
EndChar

StartChar: hbar
Encoding: 295 295 393
Width: 525
VWidth: 0
Flags: HW
LayerCount: 2
Fore
SplineSet
262 780 m 1
 127 0 l 1
 18 0 l 1
 153 780 l 1
 262 780 l 1
356 280 m 1
 362 334 354 380 296 382 c 0
 234 384 190 335 176 281 c 1
 148 282 l 1
 166 382 230 472 336 472 c 0
 440 472 478 396 466 295 c 1
 414 0 l 1
 308 0 l 1
 356 280 l 1
64 614 m 1
 80 711 l 1
 393 711 l 1
 377 614 l 1
 64 614 l 1
EndSplineSet
EndChar

StartChar: uni0400
Encoding: 1024 1024 394
Width: 544
VWidth: 0
Flags: HW
LayerCount: 2
Fore
SplineSet
119 0 m 1
 136 104 l 1
 482 104 l 1
 464 0 l 1
 119 0 l 1
220 596 m 1
 238 700 l 1
 584 700 l 1
 566 596 l 1
 220 596 l 1
174 324 m 1
 192 426 l 1
 518 426 l 1
 500 324 l 1
 174 324 l 1
166 700 m 1
 283 700 l 1
 162 0 l 1
 48 0 l 1
 166 700 l 1
243 924 m 1
 336 968 l 1
 460 806 l 1
 398 772 l 1
 243 924 l 1
EndSplineSet
EndChar

StartChar: uni0401
Encoding: 1025 1025 395
Width: 544
VWidth: 0
Flags: HW
LayerCount: 2
Fore
SplineSet
119 0 m 1
 136 104 l 1
 482 104 l 1
 464 0 l 1
 119 0 l 1
220 596 m 1
 238 700 l 1
 584 700 l 1
 566 596 l 1
 220 596 l 1
174 324 m 1
 192 426 l 1
 518 426 l 1
 500 324 l 1
 174 324 l 1
166 700 m 1
 283 700 l 1
 162 0 l 1
 48 0 l 1
 166 700 l 1
445 839 m 0
 449 873 485 905 520 904 c 0
 556 903 584 872 580 836 c 0
 576 802 539 771 504 772 c 0
 468 773 441 803 445 839 c 0
234 839 m 0
 238 873 275 905 310 904 c 0
 346 903 372 872 368 836 c 0
 364 802 328 771 293 772 c 0
 257 773 230 803 234 839 c 0
EndSplineSet
EndChar

StartChar: uni0403
Encoding: 1027 1027 396
Width: 449
VWidth: 0
Flags: HW
LayerCount: 2
Fore
SplineSet
167 700 m 1
 535 700 l 1
 516 591 l 1
 268 591 l 1
 166 0 l 1
 50 0 l 1
 167 700 l 1
553 919 m 1
 356 772 l 1
 298 810 l 1
 467 966 l 1
 553 919 l 1
EndSplineSet
EndChar

StartChar: uni040C
Encoding: 1036 1036 397
Width: 575
VWidth: 0
Flags: HW
LayerCount: 2
Fore
SplineSet
166 700 m 1
 288 700 l 1
 166 0 l 1
 48 0 l 1
 166 700 l 1
534 700 m 1
 681 700 l 1
 332 368 l 1
 568 0 l 1
 432 0 l 1
 194 374 l 1
 534 700 l 1
614 916 m 1
 418 770 l 1
 358 808 l 1
 528 964 l 1
 614 916 l 1
EndSplineSet
EndChar

StartChar: uni040D
Encoding: 1037 1037 398
Width: 758
VWidth: 0
Flags: HW
LayerCount: 2
Fore
SplineSet
750 570 m 1
 36 -42 l 1
 74 130 l 1
 788 742 l 1
 750 570 l 1
283 700 m 1
 178 94 l 1
 36 -42 l 1
 166 700 l 1
 283 700 l 1
788 742 m 1
 658 0 l 1
 542 0 l 1
 646 604 l 1
 788 742 l 1
349 902 m 1
 442 946 l 1
 564 782 l 1
 502 750 l 1
 349 902 l 1
EndSplineSet
EndChar

StartChar: uni040E
Encoding: 1038 1038 399
Width: 563
VWidth: 0
Flags: HW
LayerCount: 2
Fore
SplineSet
664 700 m 1
 224 0 l 1
 96 0 l 1
 226 214 l 1
 90 700 l 1
 219 700 l 1
 324 251 l 1
 264 255 l 1
 536 700 l 1
 664 700 l 1
251 915 m 1
 330 914 l 1
 330 882 344 847 394 846 c 0
 446 845 470 882 482 914 c 1
 564 914 l 1
 547 838 488 772 390 772 c 0
 294 772 247 837 251 915 c 1
EndSplineSet
EndChar

StartChar: uni0410
Encoding: 1040 1040 400
Width: 669
VWidth: 0
Flags: HW
LayerCount: 2
Fore
SplineSet
160 181 m 1
 198 280 l 1
 516 280 l 1
 522 180 l 1
 160 181 l 1
398 502 m 1
 246 245 l 1
 240 218 l 1
 108 0 l 1
 -29 0 l 1
 433 742 l 1
 639 0 l 1
 511 0 l 1
 454 214 l 1
 458 242 l 1
 398 502 l 1
EndSplineSet
EndChar

StartChar: uni0411
Encoding: 1041 1041 401
Width: 579
VWidth: 0
Flags: HW
LayerCount: 2
Fore
SplineSet
150 324 m 1
 168 426 l 1
 350 426 l 1
 478 424 570 339 552 214 c 0
 534 87 420 2 289 0 c 1
 94 0 l 1
 112 104 l 1
 282 104 l 2
 358 106 420 142 434 214 c 0
 446 284 400 322 328 324 c 1
 150 324 l 1
167 700 m 1
 584 700 l 1
 566 596 l 1
 271 596 l 1
 168 0 l 1
 50 0 l 1
 167 700 l 1
EndSplineSet
EndChar

StartChar: uni0412
Encoding: 1042 1042 402
Width: 582
VWidth: 0
Flags: HW
LayerCount: 2
Fore
SplineSet
197 362 m 1
 206 418 l 1
 313 419 l 1
 375 421 429 453 440 511 c 0
 450 567 412 600 354 602 c 1
 268 603 l 1
 181 97 l 1
 270 98 l 1
 348 100 414 138 428 214 c 0
 440 286 392 324 319 326 c 1
 191 328 l 1
 202 392 l 1
 327 392 l 1
 451 390 564 334 546 202 c 0
 528 66 409 2 271 0 c 1
 47 0 l 1
 167 700 l 1
 368 700 l 1
 486 698 580 642 562 524 c 0
 546 416 440 364 320 362 c 2
 197 362 l 1
EndSplineSet
EndChar

StartChar: uni0413
Encoding: 1043 1043 403
Width: 449
VWidth: 0
Flags: HW
LayerCount: 2
Fore
SplineSet
167 700 m 1
 535 700 l 1
 516 591 l 1
 268 591 l 1
 166 0 l 1
 50 0 l 1
 167 700 l 1
EndSplineSet
EndChar

StartChar: uni0414
Encoding: 1044 1044 404
Width: 804
VWidth: 0
Flags: HW
LayerCount: 2
Fore
SplineSet
460 496 m 1
 212 30 l 1
 76 30 l 1
 498 738 l 1
 676 30 l 1
 550 30 l 1
 460 496 l 1
627 0 m 1
 124 0 l 1
 104 -110 l 1
 -8 -110 l 1
 28 106 l 1
 755 106 l 1
 718 -110 l 1
 606 -110 l 1
 627 0 l 1
EndSplineSet
EndChar

StartChar: uni0415
Encoding: 1045 1045 405
Width: 554
VWidth: 0
Flags: HW
LayerCount: 2
Fore
SplineSet
120 0 m 1
 136 104 l 1
 482 104 l 1
 465 0 l 1
 120 0 l 1
221 596 m 1
 238 700 l 1
 584 700 l 1
 566 596 l 1
 221 596 l 1
175 324 m 1
 192 426 l 1
 518 426 l 1
 501 324 l 1
 175 324 l 1
166 700 m 1
 284 700 l 1
 162 0 l 1
 48 0 l 1
 166 700 l 1
EndSplineSet
EndChar

StartChar: uni0416
Encoding: 1046 1046 406
Width: 942
VWidth: 0
Flags: HW
LayerCount: 2
Fore
SplineSet
245 700 m 1
 478 366 l 1
 118 0 l 1
 -30 0 l 1
 343 376 l 1
 112 700 l 1
 245 700 l 1
506 700 m 1
 628 700 l 1
 508 0 l 1
 389 0 l 1
 506 700 l 1
872 700 m 1
 1024 700 l 1
 672 368 l 1
 910 0 l 1
 774 0 l 1
 544 375 l 1
 872 700 l 1
EndSplineSet
EndChar

StartChar: uni0417
Encoding: 1047 1047 407
Width: 611
VWidth: 0
Flags: HW
LayerCount: 2
Fore
SplineSet
314 343 m 1
 322 406 l 1
 411 410 486 446 500 514 c 0
 510 571 472 610 403 610 c 0
 327 611 272 570 254 514 c 1
 143 515 l 1
 167 633 268 711 408 711 c 0
 540 711 636 633 618 522 c 0
 598 399 458 346 314 343 c 1
296 -12 m 0
 138 -12 47 74 58 200 c 1
 174 200 l 1
 173 131 216 90 300 90 c 0
 386 90 451 128 465 200 c 0
 483 284 400 315 310 318 c 1
 320 385 l 1
 464 383 602 330 581 186 c 0
 562 60 444 -12 296 -12 c 0
EndSplineSet
EndChar

StartChar: uni0418
Encoding: 1048 1048 408
Width: 758
VWidth: 0
Flags: HW
LayerCount: 2
Fore
SplineSet
750 570 m 1
 36 -42 l 1
 74 130 l 1
 788 742 l 1
 750 570 l 1
283 700 m 1
 178 94 l 1
 36 -42 l 1
 166 700 l 1
 283 700 l 1
788 742 m 1
 658 0 l 1
 542 0 l 1
 646 604 l 1
 788 742 l 1
EndSplineSet
EndChar

StartChar: uni0419
Encoding: 1049 1049 409
Width: 758
VWidth: 0
Flags: HW
LayerCount: 2
Fore
SplineSet
750 570 m 1
 36 -42 l 1
 74 130 l 1
 788 742 l 1
 750 570 l 1
283 700 m 1
 178 94 l 1
 36 -42 l 1
 166 700 l 1
 283 700 l 1
788 742 m 1
 658 0 l 1
 542 0 l 1
 646 604 l 1
 788 742 l 1
360 912 m 1
 439 912 l 1
 439 880 452 845 502 844 c 0
 554 843 578 880 590 912 c 1
 672 911 l 1
 654 835 595 770 497 770 c 0
 401 770 356 834 360 912 c 1
EndSplineSet
EndChar

StartChar: uni041A
Encoding: 1050 1050 410
Width: 601
VWidth: 0
Flags: HW
LayerCount: 2
Fore
SplineSet
166 700 m 1
 288 700 l 1
 166 0 l 1
 48 0 l 1
 166 700 l 1
534 700 m 1
 681 700 l 1
 332 368 l 1
 568 0 l 1
 432 0 l 1
 194 374 l 1
 534 700 l 1
EndSplineSet
EndChar

StartChar: uni041B
Encoding: 1051 1051 411
Width: 681
VWidth: 0
Flags: HW
LayerCount: 2
Fore
SplineSet
699 700 m 1
 578 0 l 1
 459 0 l 1
 560 591 l 1
 294 591 l 1
 238 262 l 2
 213 112 133 9 -17 1 c 1
 -2 100 l 1
 70 112 108 183 122 270 c 1
 196 700 l 1
 699 700 l 1
EndSplineSet
EndChar

StartChar: uni041C
Encoding: 1052 1052 412
Width: 817
VWidth: 0
Flags: HW
LayerCount: 2
Fore
SplineSet
250 425 m 1
 130 0 l 1
 6 0 l 1
 227 736 l 1
 424 262 l 1
 790 742 l 1
 754 0 l 1
 634 0 l 1
 660 418 l 1
 394 63 l 1
 250 425 l 1
EndSplineSet
EndChar

StartChar: uni041D
Encoding: 1053 1053 413
Width: 721
VWidth: 0
Flags: HW
LayerCount: 2
Fore
SplineSet
148 322 m 1
 166 430 l 1
 655 430 l 1
 636 322 l 1
 148 322 l 1
622 700 m 1
 742 700 l 1
 620 0 l 1
 504 0 l 1
 622 700 l 1
166 700 m 1
 286 700 l 1
 164 0 l 1
 48 0 l 1
 166 700 l 1
EndSplineSet
EndChar

StartChar: uni041E
Encoding: 1054 1054 414
Width: 778
VWidth: 0
Flags: HW
LayerCount: 2
Fore
SplineSet
192 350 m 0
 172 223 235 103 374 102 c 0
 515 101 628 215 652 350 c 0
 672 477 610 597 470 598 c 0
 329 599 216 485 192 350 c 0
68 350 m 0
 98 550 270 712 478 712 c 0
 683 712 804 544 776 350 c 0
 746 149 575 -15 365 -15 c 0
 159 -15 40 156 68 350 c 0
EndSplineSet
EndChar

StartChar: uni041F
Encoding: 1055 1055 415
Width: 715
VWidth: 0
Flags: HW
LayerCount: 2
Fore
SplineSet
596 592 m 1
 270 591 l 1
 168 0 l 1
 48 0 l 1
 168 700 l 1
 732 700 l 1
 612 0 l 1
 494 0 l 1
 596 592 l 1
EndSplineSet
EndChar

StartChar: uni0420
Encoding: 1056 1056 416
Width: 561
VWidth: 0
Flags: HW
LayerCount: 2
Fore
SplineSet
166 700 m 1
 286 700 l 1
 164 0 l 1
 48 0 l 1
 166 700 l 1
218 596 m 1
 235 700 l 1
 368 700 l 1
 508 698 602 614 582 482 c 0
 562 348 448 267 304 265 c 1
 160 265 l 1
 178 368 l 1
 312 369 l 2
 389 371 452 408 466 482 c 0
 478 552 434 594 360 596 c 1
 218 596 l 1
EndSplineSet
EndChar

StartChar: uni0421
Encoding: 1057 1057 417
Width: 670
VWidth: 0
Flags: HW
LayerCount: 2
Fore
SplineSet
195 350 m 0
 174 220 246 106 378 104 c 0
 473 103 552 148 612 202 c 1
 592 62 l 1
 528 16 458 -12 366 -12 c 0
 162 -12 40 154 68 350 c 0
 98 554 270 712 478 712 c 0
 567 712 630 688 687 638 c 1
 666 497 l 1
 624 557 562 596 474 596 c 0
 340 596 219 488 195 350 c 0
EndSplineSet
EndChar

StartChar: uni0422
Encoding: 1058 1058 418
Width: 488
VWidth: 0
Flags: HW
LayerCount: 2
Fore
SplineSet
80 591 m 1
 99 700 l 1
 576 700 l 1
 557 591 l 1
 378 591 l 1
 276 0 l 1
 158 0 l 1
 259 591 l 1
 80 591 l 1
EndSplineSet
EndChar

StartChar: uni0423
Encoding: 1059 1059 419
Width: 568
VWidth: 0
Flags: HW
LayerCount: 2
Fore
SplineSet
670 700 m 1
 230 0 l 1
 100 0 l 1
 230 214 l 1
 90 700 l 1
 221 700 l 1
 326 251 l 1
 267 255 l 1
 538 700 l 1
 670 700 l 1
EndSplineSet
EndChar

StartChar: uni0424
Encoding: 1060 1060 420
Width: 817
VWidth: 0
Flags: HW
LayerCount: 2
Fore
SplineSet
440 700 m 1
 562 700 l 1
 442 0 l 1
 323 0 l 1
 440 700 l 1
694 350 m 0
 715 458 632 508 520 510 c 1
 430 510 l 2
 311 508 209 460 188 350 c 0
 167 242 252 192 364 190 c 1
 454 190 l 2
 573 192 673 240 694 350 c 0
814 350 m 0
 788 182 634 82 458 80 c 1
 344 80 l 1
 174 82 46 184 70 350 c 0
 96 518 248 618 424 620 c 1
 540 620 l 1
 710 618 838 516 814 350 c 0
EndSplineSet
EndChar

StartChar: uni0425
Encoding: 1061 1061 421
Width: 600
VWidth: 0
Flags: HW
LayerCount: 2
Fore
SplineSet
520 700 m 1
 668 700 l 1
 400 359 l 1
 557 0 l 1
 420 0 l 1
 321 266 l 1
 126 0 l 1
 -22 0 l 1
 272 368 l 1
 129 700 l 1
 266 700 l 1
 351 466 l 1
 520 700 l 1
EndSplineSet
EndChar

StartChar: uni0426
Encoding: 1062 1062 422
Width: 776
VWidth: 0
Flags: HW
LayerCount: 2
Fore
SplineSet
182 108 m 1
 521 109 l 1
 622 700 l 1
 742 700 l 1
 640 109 l 1
 733 109 l 1
 694 -120 l 1
 584 -120 l 1
 605 0 l 1
 46 0 l 1
 167 700 l 1
 284 700 l 1
 182 108 l 1
EndSplineSet
EndChar

StartChar: uni0427
Encoding: 1063 1063 423
Width: 636
VWidth: 0
Flags: HW
LayerCount: 2
Fore
SplineSet
308 256 m 1
 343 361 l 1
 537 361 l 1
 518 256 l 1
 308 256 l 1
532 700 m 1
 654 700 l 1
 533 0 l 1
 414 0 l 1
 532 700 l 1
282 700 m 1
 248 506 l 1
 235 426 267 361 343 361 c 1
 308 256 l 1
 176 256 114 370 132 498 c 1
 166 700 l 1
 282 700 l 1
EndSplineSet
EndChar

StartChar: uni0428
Encoding: 1064 1064 424
Width: 992
VWidth: 0
Flags: HW
LayerCount: 2
Fore
SplineSet
790 109 m 1
 892 700 l 1
 1010 700 l 1
 890 0 l 1
 48 0 l 1
 168 700 l 1
 288 700 l 1
 186 109 l 1
 430 109 l 1
 532 700 l 1
 648 700 l 1
 546 109 l 1
 790 109 l 1
EndSplineSet
EndChar

StartChar: uni0429
Encoding: 1065 1065 425
Width: 1046
VWidth: 0
Flags: HW
LayerCount: 2
Fore
SplineSet
790 109 m 1
 892 700 l 1
 1010 700 l 1
 909 109 l 1
 1002 109 l 1
 962 -120 l 1
 852 -120 l 1
 873 0 l 1
 48 0 l 1
 168 700 l 1
 288 700 l 1
 186 109 l 1
 430 109 l 1
 532 700 l 1
 648 700 l 1
 546 109 l 1
 790 109 l 1
EndSplineSet
EndChar

StartChar: uni042A
Encoding: 1066 1066 426
Width: 668
VWidth: 0
Flags: HW
LayerCount: 2
Fore
SplineSet
280 332 m 1
 298 435 l 1
 430 435 l 2
 570 435 664 350 644 218 c 0
 624 84 510 0 366 0 c 2
 222 0 l 1
 241 104 l 1
 373 104 l 2
 450 106 515 144 529 218 c 0
 541 288 496 330 422 330 c 2
 280 332 l 1
258 592 m 1
 82 592 l 1
 100 700 l 1
 394 700 l 1
 274 0 l 1
 157 0 l 1
 258 592 l 1
EndSplineSet
EndChar

StartChar: uni042B
Encoding: 1067 1067 427
Width: 797
VWidth: 0
Flags: HW
LayerCount: 2
Fore
SplineSet
696 700 m 1
 818 700 l 1
 697 0 l 1
 579 0 l 1
 696 700 l 1
166 700 m 1
 286 700 l 1
 164 0 l 1
 48 0 l 1
 166 700 l 1
172 332 m 1
 190 435 l 1
 322 435 l 2
 462 435 556 350 536 218 c 0
 516 84 403 0 259 0 c 2
 114 0 l 1
 133 104 l 1
 266 104 l 2
 343 106 407 144 421 218 c 0
 433 288 388 330 314 330 c 2
 172 332 l 1
EndSplineSet
EndChar

StartChar: uni042C
Encoding: 1068 1068 428
Width: 560
VWidth: 0
Flags: HW
LayerCount: 2
Fore
SplineSet
166 700 m 1
 286 700 l 1
 164 0 l 1
 48 0 l 1
 166 700 l 1
172 332 m 1
 190 435 l 1
 322 435 l 2
 462 435 556 350 536 218 c 0
 516 84 403 0 259 0 c 2
 114 0 l 1
 133 104 l 1
 266 104 l 2
 343 106 407 144 421 218 c 0
 433 288 388 330 314 330 c 2
 172 332 l 1
EndSplineSet
EndChar

StartChar: uni042D
Encoding: 1069 1069 429
Width: 670
VWidth: 0
Flags: HW
LayerCount: 2
Fore
SplineSet
154 299 m 1
 170 401 l 1
 565 401 l 1
 548 299 l 1
 154 299 l 1
548 350 m 0
 570 480 490 596 358 598 c 0
 264 599 185 556 126 506 c 1
 145 638 l 1
 209 684 278 712 370 712 c 0
 574 712 697 546 669 350 c 0
 639 146 466 -12 258 -12 c 0
 169 -12 106 12 49 62 c 1
 68 195 l 1
 110 139 176 102 262 102 c 0
 397 102 524 212 548 350 c 0
EndSplineSet
EndChar

StartChar: uni042E
Encoding: 1070 1070 430
Width: 1042
VWidth: 0
Flags: HW
LayerCount: 2
Fore
SplineSet
148 322 m 1
 166 430 l 1
 429 430 l 1
 410 322 l 1
 148 322 l 1
166 700 m 1
 286 700 l 1
 164 0 l 1
 48 0 l 1
 166 700 l 1
457 350 m 0
 437 223 499 103 638 102 c 0
 779 101 892 215 916 350 c 0
 936 477 875 597 735 598 c 0
 594 599 481 485 457 350 c 0
332 350 m 0
 362 550 534 712 742 712 c 0
 947 712 1070 544 1042 350 c 0
 1012 149 840 -15 630 -15 c 0
 424 -15 304 156 332 350 c 0
EndSplineSet
EndChar

StartChar: uni042F
Encoding: 1071 1071 431
Width: 576
VWidth: 0
Flags: HW
LayerCount: 2
Fore
SplineSet
396 334 m 1
 122 0 l 1
 -24 0 l 1
 264 334 l 1
 396 334 l 1
597 700 m 1
 476 0 l 1
 358 0 l 1
 478 700 l 1
 597 700 l 1
510 598 m 1
 378 597 l 2
 300 597 235 554 221 480 c 0
 208 410 253 366 327 364 c 1
 470 362 l 1
 453 265 l 1
 316 265 l 1
 177 267 82 352 102 482 c 0
 122 614 236 700 379 700 c 1
 528 700 l 1
 510 598 l 1
EndSplineSet
EndChar

StartChar: uni0430
Encoding: 1072 1072 432
Width: 493
VWidth: 0
Flags: HW
LayerCount: 2
Fore
SplineSet
129 136 m 0
 123 96 157 73 198 72 c 0
 270 70 320 112 338 182 c 1
 346 129 l 1
 326 45 253 -10 159 -10 c 0
 73 -10 9 44 21 132 c 0
 35 228 128 283 236 283 c 0
 303 283 353 255 379 226 c 1
 371 170 l 1
 334 198 296 214 246 214 c 0
 186 214 137 186 129 136 c 0
143 338 m 1
 110 418 l 1
 161 445 225 471 300 471 c 0
 400 471 483 420 467 328 c 2
 412 0 l 1
 306 0 l 1
 362 316 l 2
 369 357 335 380 288 382 c 0
 229 384 177 356 143 338 c 1
EndSplineSet
EndChar

StartChar: uni0431
Encoding: 1073 1073 433
Width: 553
VWidth: 0
Flags: HW
LayerCount: 2
Fore
SplineSet
320 375 m 1
 340 470 l 1
 474 470 557 363 540 230 c 0
 522 95 407 -10 266 -10 c 0
 115 -10 54 112 54 238 c 1
 162 206 l 1
 162 146 196 86 271 86 c 0
 351 86 418 150 430 230 c 0
 444 312 398 375 320 375 c 1
116 231 m 1
 138 369 214 470 340 470 c 1
 320 375 l 1
 246 375 162 315 162 206 c 1
 116 231 l 1
54 238 m 1
 54 435 149 595 310 658 c 0
 390 689 442 725 470 780 c 1
 576 779 l 1
 546 683 461 623 356 583 c 0
 240 539 154 422 152 306 c 1
 157 208 l 1
 54 238 l 1
EndSplineSet
EndChar

StartChar: uni0432
Encoding: 1074 1074 434
Width: 466
VWidth: 0
Flags: HW
LayerCount: 2
Fore
SplineSet
146 240 m 1
 284 240 l 2
 368 239 446 213 434 124 c 0
 424 50 363 0 273 0 c 2
 106 0 l 1
 119 80 l 1
 245 80 l 2
 289 80 326 104 332 138 c 0
 338 171 313 192 272 192 c 2
 140 194 l 1
 146 240 l 1
144 220 m 1
 152 272 l 1
 269 272 l 2
 305 272 340 295 346 328 c 0
 351 358 328 380 294 380 c 2
 170 380 l 1
 184 460 l 1
 312 460 l 2
 391 460 463 420 451 334 c 0
 439 256 361 222 281 220 c 2
 144 220 l 1
122 460 m 1
 230 460 l 1
 150 0 l 1
 45 0 l 1
 122 460 l 1
EndSplineSet
EndChar

StartChar: uni0433
Encoding: 1075 1075 435
Width: 330
VWidth: 0
Flags: HW
LayerCount: 2
Fore
SplineSet
118 460 m 1
 380 460 l 1
 364 365 l 1
 212 365 l 1
 148 0 l 1
 42 0 l 1
 118 460 l 1
EndSplineSet
EndChar

StartChar: uni0434
Encoding: 1076 1076 436
Width: 654
VWidth: 0
Flags: HW
LayerCount: 2
Fore
SplineSet
353 302 m 1
 185 30 l 1
 72 44 l 1
 382 498 l 1
 534 42 l 1
 426 29 l 1
 353 302 l 1
484 0 m 1
 120 0 l 1
 104 -90 l 1
 -6 -90 l 1
 26 93 l 1
 602 93 l 1
 570 -90 l 1
 467 -90 l 1
 484 0 l 1
EndSplineSet
EndChar

StartChar: uni0435
Encoding: 1077 1077 437
Width: 522
VWidth: 0
Flags: HW
LayerCount: 2
Fore
SplineSet
108 205 m 1
 120 280 l 1
 398 280 l 1
 400 338 377 387 310 388 c 0
 235 390 179 330 164 258 c 1
 156 230 l 1
 145 148 175 82 255 80 c 0
 315 79 360 112 394 152 c 1
 484 113 l 1
 428 41 356 -11 244 -10 c 0
 106 -9 32 100 48 230 c 0
 50 247 55 263 60 279 c 0
 94 389 190 470 316 470 c 0
 456 470 522 367 508 235 c 0
 507 226 505 215 503 205 c 1
 108 205 l 1
EndSplineSet
EndChar

StartChar: uni0436
Encoding: 1078 1078 438
Width: 734
VWidth: 0
Flags: HW
LayerCount: 2
Fore
SplineSet
636 460 m 1
 772 460 l 1
 534 258 l 1
 706 0 l 1
 584 0 l 1
 414 274 l 1
 636 460 l 1
470 460 m 1
 392 0 l 1
 290 0 l 1
 368 460 l 1
 470 460 l 1
194 460 m 1
 358 266 l 1
 103 0 l 1
 -32 0 l 1
 236 266 l 1
 74 460 l 1
 194 460 l 1
EndSplineSet
EndChar

StartChar: uni0437
Encoding: 1079 1079 439
Width: 483
VWidth: 0
Flags: HW
LayerCount: 2
Fore
SplineSet
258 230 m 1
 265 280 l 1
 308 283 344 300 350 334 c 0
 354 363 332 382 298 382 c 0
 252 383 225 349 215 318 c 1
 110 320 l 1
 128 404 200 470 300 470 c 0
 387 470 464 416 452 338 c 0
 439 260 355 231 258 230 c 1
228 -10 m 0
 118 -10 57 54 54 150 c 1
 157 150 l 1
 163 108 180 77 234 76 c 0
 284 75 328 101 335 142 c 0
 343 188 304 205 254 208 c 1
 262 260 l 1
 360 258 451 224 438 134 c 0
 426 44 326 -10 228 -10 c 0
EndSplineSet
EndChar

StartChar: uni0438
Encoding: 1080 1080 440
Width: 546
VWidth: 0
Flags: HW
LayerCount: 2
Fore
SplineSet
506 357 m 1
 32 -42 l 1
 64 103 l 1
 540 502 l 1
 506 357 l 1
227 460 m 1
 162 84 l 1
 32 -42 l 1
 120 460 l 1
 227 460 l 1
540 502 m 1
 451 0 l 1
 344 0 l 1
 410 376 l 1
 540 502 l 1
EndSplineSet
EndChar

StartChar: uni0439
Encoding: 1081 1081 441
Width: 546
VWidth: 0
Flags: HW
LayerCount: 2
Fore
SplineSet
506 357 m 1
 32 -42 l 1
 64 103 l 1
 540 502 l 1
 506 357 l 1
227 460 m 1
 162 84 l 1
 32 -42 l 1
 120 460 l 1
 227 460 l 1
540 502 m 1
 451 0 l 1
 344 0 l 1
 410 376 l 1
 540 502 l 1
204 689 m 1
 283 689 l 1
 283 657 296 622 346 621 c 0
 398 620 422 656 434 688 c 1
 516 688 l 1
 498 612 439 548 341 548 c 0
 245 548 200 611 204 689 c 1
EndSplineSet
EndChar

StartChar: uni043A
Encoding: 1082 1082 442
Width: 477
VWidth: 0
Flags: HW
LayerCount: 2
Fore
SplineSet
112 460 m 1
 220 460 l 1
 140 0 l 1
 36 0 l 1
 112 460 l 1
376 460 m 1
 515 460 l 1
 284 266 l 1
 448 0 l 1
 326 0 l 1
 156 274 l 1
 376 460 l 1
EndSplineSet
EndChar

StartChar: uni043B
Encoding: 1083 1083 443
Width: 566
VWidth: 0
Flags: HW
LayerCount: 2
Fore
SplineSet
543 460 m 1
 464 0 l 1
 357 0 l 1
 420 360 l 1
 220 360 l 1
 186 160 l 1
 166 52 102 6 -17 0 c 1
 -3 98 l 1
 40 104 71 122 81 175 c 1
 130 460 l 1
 543 460 l 1
EndSplineSet
EndChar

StartChar: uni043C
Encoding: 1084 1084 444
Width: 608
VWidth: 0
Flags: HW
LayerCount: 2
Fore
SplineSet
464 0 m 1
 456 350 l 1
 539 501 l 1
 576 0 l 1
 464 0 l 1
262 99 m 1
 539 501 l 1
 516 312 l 1
 271 -33 l 1
 262 99 l 1
271 -33 m 1
 146 323 l 1
 186 498 l 1
 321 88 l 1
 271 -33 l 1
-26 0 m 1
 186 498 l 1
 216 339 l 1
 92 0 l 1
 -26 0 l 1
EndSplineSet
EndChar

StartChar: uni043D
Encoding: 1085 1085 445
Width: 567
VWidth: 0
Flags: HW
LayerCount: 2
Fore
SplineSet
119 198 m 1
 134 288 l 1
 478 288 l 1
 464 198 l 1
 119 198 l 1
446 460 m 1
 555 460 l 1
 474 0 l 1
 370 0 l 1
 446 460 l 1
116 460 m 1
 224 460 l 1
 144 0 l 1
 39 0 l 1
 116 460 l 1
EndSplineSet
EndChar

StartChar: uni043E
Encoding: 1086 1086 446
Width: 546
VWidth: 0
Flags: HW
LayerCount: 2
Fore
SplineSet
43 230 m 0
 63 366 181 470 321 470 c 0
 459 470 546 362 528 230 c 0
 508 94 390 -10 250 -10 c 0
 112 -10 25 98 43 230 c 0
154 230 m 0
 142 156 178 87 256 86 c 0
 336 85 404 151 418 230 c 0
 430 304 393 373 315 374 c 0
 235 375 168 309 154 230 c 0
EndSplineSet
EndChar

StartChar: uni043F
Encoding: 1087 1087 447
Width: 528
VWidth: 0
Flags: HW
LayerCount: 2
Fore
SplineSet
516 460 m 1
 436 0 l 1
 330 0 l 1
 392 363 l 1
 207 363 l 1
 144 0 l 1
 38 0 l 1
 117 460 l 1
 516 460 l 1
EndSplineSet
EndChar

StartChar: uni0440
Encoding: 1088 1088 448
Width: 570
VWidth: 0
Flags: HW
LayerCount: 2
Fore
SplineSet
106 -220 m 1
 -4 -220 l 1
 114 460 l 1
 220 460 l 1
 106 -220 l 1
552 230 m 0
 534 92 426 -13 298 -12 c 0
 172 -11 129 105 145 230 c 0
 163 362 245 472 369 472 c 0
 497 473 569 362 552 230 c 0
442 230 m 0
 454 308 415 374 337 374 c 0
 267 374 195 312 182 230 c 0
 171 154 210 88 279 86 c 0
 357 84 428 148 442 230 c 0
EndSplineSet
EndChar

StartChar: uni0441
Encoding: 1089 1089 449
Width: 468
VWidth: 0
Flags: HW
LayerCount: 2
Fore
SplineSet
150 230 m 0
 137 154 178 86 258 84 c 0
 324 83 384 118 420 160 c 1
 404 42 l 1
 364 10 310 -10 248 -10 c 0
 110 -10 22 98 40 230 c 0
 60 366 177 470 318 470 c 0
 378 470 430 450 466 418 c 1
 448 299 l 1
 427 347 378 376 318 376 c 0
 236 376 164 310 150 230 c 0
EndSplineSet
EndChar

StartChar: uni0442
Encoding: 1090 1090 450
Width: 292
VWidth: 0
Flags: HW
LayerCount: 2
Fore
SplineSet
55 460 m 1
 341 460 l 1
 324 365 l 1
 38 365 l 1
 55 460 l 1
140 440 m 1
 248 440 l 1
 172 0 l 1
 68 0 l 1
 140 440 l 1
EndSplineSet
EndChar

StartChar: uni0443
Encoding: 1091 1091 451
Width: 457
VWidth: 0
Flags: HW
LayerCount: 2
Fore
SplineSet
517 460 m 1
 109 -220 l 1
 -10 -220 l 1
 160 58 l 1
 48 460 l 1
 168 460 l 1
 248 96 l 1
 197 100 l 1
 398 460 l 1
 517 460 l 1
EndSplineSet
EndChar

StartChar: uni0444
Encoding: 1092 1092 452
Width: 599
VWidth: 0
Flags: HW
LayerCount: 2
Fore
SplineSet
316 560 m 1
 422 560 l 1
 308 -100 l 1
 205 -100 l 1
 316 560 l 1
44 230 m 0
 65 372 190 470 348 470 c 0
 502 470 601 370 581 230 c 0
 560 88 435 -10 277 -10 c 0
 123 -10 24 90 44 230 c 0
146 230 m 0
 130 146 184 87 282 86 c 0
 384 85 461 144 478 230 c 0
 494 314 440 373 342 374 c 0
 240 375 163 316 146 230 c 0
EndSplineSet
EndChar

StartChar: uni0445
Encoding: 1093 1093 453
Width: 450
VWidth: 0
Flags: HW
LayerCount: 2
Fore
SplineSet
373 460 m 1
 498 460 l 1
 296 234 l 1
 425 0 l 1
 310 0 l 1
 230 157 l 1
 98 0 l 1
 -29 0 l 1
 185 242 l 1
 64 460 l 1
 180 460 l 1
 252 318 l 1
 373 460 l 1
EndSplineSet
EndChar

StartChar: uni0446
Encoding: 1094 1094 454
Width: 569
VWidth: 0
Flags: HW
LayerCount: 2
Fore
SplineSet
454 94 m 1
 534 94 l 1
 501 -94 l 1
 402 -94 l 1
 418 0 l 1
 38 0 l 1
 117 460 l 1
 226 460 l 1
 162 95 l 1
 346 95 l 1
 410 460 l 1
 516 460 l 1
 454 94 l 1
EndSplineSet
EndChar

StartChar: uni0447
Encoding: 1095 1095 455
Width: 494
VWidth: 0
Flags: HW
LayerCount: 2
Fore
SplineSet
220 130 m 1
 250 224 l 1
 390 225 l 1
 373 130 l 1
 220 130 l 1
369 460 m 1
 480 460 l 1
 400 0 l 1
 292 0 l 1
 369 460 l 1
208 460 m 1
 182 323 l 2
 172 259 188 224 250 224 c 1
 220 130 l 1
 90 130 58 206 76 328 c 2
 98 460 l 1
 208 460 l 1
EndSplineSet
EndChar

StartChar: uni0448
Encoding: 1096 1096 456
Width: 778
VWidth: 0
Flags: HW
LayerCount: 2
Fore
SplineSet
430 94 m 1
 596 95 l 1
 660 460 l 1
 766 460 l 1
 686 0 l 1
 38 0 l 1
 117 460 l 1
 224 460 l 1
 160 95 l 1
 324 95 l 1
 388 460 l 1
 493 460 l 1
 430 94 l 1
EndSplineSet
EndChar

StartChar: uni0449
Encoding: 1097 1097 457
Width: 817
VWidth: 0
Flags: HW
LayerCount: 2
Fore
SplineSet
430 94 m 1
 596 95 l 1
 659 460 l 1
 766 460 l 1
 703 95 l 1
 780 95 l 1
 748 -94 l 1
 650 -94 l 1
 666 0 l 1
 38 0 l 1
 117 460 l 1
 224 460 l 1
 160 95 l 1
 324 95 l 1
 388 460 l 1
 493 460 l 1
 430 94 l 1
EndSplineSet
EndChar

StartChar: uni044A
Encoding: 1098 1098 458
Width: 573
VWidth: 0
Flags: HW
LayerCount: 2
Fore
SplineSet
234 212 m 1
 246 294 l 1
 382 294 l 2
 472 294 540 244 527 150 c 0
 514 56 434 0 342 0 c 2
 197 0 l 1
 212 88 l 1
 337 88 l 2
 381 88 415 113 423 152 c 0
 430 188 405 212 365 212 c 2
 234 212 l 1
191 366 m 1
 38 365 l 1
 55 460 l 1
 310 460 l 1
 230 0 l 1
 128 0 l 1
 191 366 l 1
EndSplineSet
EndChar

StartChar: uni044B
Encoding: 1099 1099 459
Width: 671
VWidth: 0
Flags: HW
LayerCount: 2
Fore
SplineSet
549 460 m 1
 660 460 l 1
 579 0 l 1
 472 0 l 1
 549 460 l 1
116 460 m 1
 226 460 l 1
 146 0 l 1
 39 0 l 1
 116 460 l 1
149 212 m 1
 162 294 l 1
 297 294 l 2
 387 294 455 244 442 150 c 0
 429 56 349 0 257 0 c 2
 112 0 l 1
 126 88 l 1
 252 88 l 2
 296 88 330 113 338 152 c 0
 345 188 321 212 281 212 c 2
 149 212 l 1
EndSplineSet
EndChar

StartChar: uni044C
Encoding: 1100 1100 460
Width: 492
VWidth: 0
Flags: HW
LayerCount: 2
Fore
SplineSet
118 460 m 1
 229 460 l 1
 148 0 l 1
 42 0 l 1
 118 460 l 1
152 212 m 1
 164 294 l 1
 300 294 l 2
 390 294 457 244 444 150 c 0
 431 56 352 0 260 0 c 2
 114 0 l 1
 129 88 l 1
 254 88 l 2
 298 88 332 113 340 152 c 0
 347 188 324 212 283 212 c 2
 152 212 l 1
EndSplineSet
EndChar

StartChar: uni044D
Encoding: 1101 1101 461
Width: 469
VWidth: 0
Flags: HW
LayerCount: 2
Fore
SplineSet
140 272 m 1
 436 272 l 1
 369 188 l 1
 127 188 l 1
 140 272 l 1
344 230 m 0
 357 309 319 381 237 383 c 0
 173 385 111 350 75 308 c 1
 90 419 l 1
 130 449 185 470 246 470 c 0
 384 470 472 362 454 230 c 0
 434 94 317 -10 176 -10 c 0
 116 -10 64 8 28 42 c 1
 45 153 l 1
 65 105 114 76 174 76 c 0
 258 76 329 144 344 230 c 0
EndSplineSet
EndChar

StartChar: uni044E
Encoding: 1102 1102 462
Width: 752
VWidth: 0
Flags: HW
LayerCount: 2
Fore
SplineSet
118 198 m 1
 134 288 l 1
 341 288 l 1
 325 198 l 1
 118 198 l 1
116 460 m 1
 224 460 l 1
 144 0 l 1
 39 0 l 1
 116 460 l 1
250 230 m 0
 270 366 387 470 527 470 c 0
 665 470 752 362 734 230 c 0
 714 94 596 -10 456 -10 c 0
 318 -10 232 98 250 230 c 0
360 230 m 0
 348 156 384 87 462 86 c 0
 542 85 610 151 624 230 c 0
 636 304 599 373 521 374 c 0
 441 375 374 309 360 230 c 0
EndSplineSet
EndChar

StartChar: uni044F
Encoding: 1103 1103 463
Width: 492
VWidth: 0
Flags: HW
LayerCount: 2
Fore
SplineSet
136 0 m 1
 14 0 l 1
 212 227 l 1
 322 226 l 1
 136 0 l 1
424 0 m 1
 313 0 l 1
 394 460 l 1
 500 460 l 1
 424 0 l 1
399 258 m 1
 386 176 l 1
 252 176 l 1
 162 176 85 223 98 320 c 0
 111 416 198 458 290 460 c 2
 434 460 l 1
 420 370 l 1
 292 370 l 2
 249 370 210 353 204 314 c 0
 198 277 225 260 265 260 c 2
 399 258 l 1
EndSplineSet
EndChar

StartChar: uni0450
Encoding: 1104 1104 464
Width: 522
VWidth: 0
Flags: HW
LayerCount: 2
Fore
SplineSet
108 205 m 1
 120 280 l 1
 398 280 l 1
 400 338 377 387 310 388 c 0
 235 390 179 330 164 258 c 1
 156 230 l 1
 145 148 175 82 255 80 c 0
 315 79 360 112 394 152 c 1
 484 113 l 1
 428 41 356 -11 244 -10 c 0
 106 -9 32 100 48 230 c 0
 50 247 55 263 60 279 c 0
 94 389 190 470 316 470 c 0
 456 470 522 367 508 235 c 0
 507 226 505 215 503 205 c 1
 108 205 l 1
183 681 m 1
 276 724 l 1
 400 563 l 1
 338 530 l 1
 183 681 l 1
EndSplineSet
EndChar

